<svg width="353" height="192" viewBox="0 0 353 192" fill="none" xmlns="http://www.w3.org/2000/svg">
<path d="M95.0769 68.6016C92.9188 68.7346 91.2906 69.2005 90.1923 69.9994C89.1133 70.7973 88.5738 71.9082 88.5738 73.3326C88.5738 74.6415 89.0073 75.6446 89.8744 76.3419C90.7607 77.0188 91.9843 77.3093 93.545 77.2132C95.4911 77.0934 97.129 76.2998 98.4585 74.8322C99.788 73.3452 100.453 71.5527 100.453 69.4546V68.271L95.0769 68.6016ZM110.887 63.7311V82.1806L100.453 82.8224V78.0295C99.0654 80.0782 97.5047 81.6082 95.7705 82.6196C94.0364 83.6118 91.9265 84.1844 89.4408 84.3373C86.0881 84.5438 83.3616 83.7394 81.2614 81.9245C79.1804 80.0892 78.1399 77.6125 78.1399 74.4942C78.1399 70.7023 79.4405 67.8407 82.0418 65.9098C84.6623 63.9777 88.7664 62.8399 94.3543 62.4961L100.453 62.121V61.3126C100.453 59.6765 99.8073 58.5228 98.5163 57.8515C97.2253 57.161 95.2117 56.8999 92.4756 57.0683C90.2598 57.2049 88.198 57.5531 86.2905 58.113C84.3829 58.6731 82.6102 59.4462 80.9724 60.4324V52.5502C83.1882 51.8749 85.4137 51.3339 87.6489 50.9268C89.884 50.5008 92.1192 50.2188 94.3543 50.0811C100.193 49.7217 104.403 50.6175 106.985 52.7685C109.586 54.899 110.887 58.5532 110.887 63.7311Z" fill="#581518"/>
<path d="M148.568 60.1708V79.8619L138.163 80.5023V77.2975V65.4308C138.163 62.6398 138.096 60.7192 137.961 59.6688C137.845 58.6172 137.634 57.8506 137.325 57.3692C136.921 56.7203 136.371 56.2345 135.678 55.9115C134.984 55.5694 134.194 55.4255 133.308 55.4799C131.15 55.6129 129.454 56.5545 128.221 58.3048C126.988 60.0361 126.371 62.3743 126.371 65.3193V81.2282L116.024 81.8644V49.5273L126.371 48.8902V53.6254C127.932 51.643 129.589 50.155 131.342 49.1617C133.096 48.1491 135.032 47.5778 137.152 47.4474C140.89 47.2173 143.722 48.1881 145.649 50.3601C147.595 52.5309 148.568 55.801 148.568 60.1704L148.568 60.1708Z" fill="#581518"/>
<path d="M153.908 47.196L164.255 46.5596V78.897L153.908 79.534V47.196ZM153.908 34.6076L164.255 33.9712V42.4021L153.908 43.0383V34.6076Z" fill="#581518"/>
<path d="M201.785 49.6203C203.095 47.5379 204.646 45.9219 206.438 44.7722C208.249 43.6021 210.234 42.9505 212.392 42.8177C216.111 42.589 218.943 43.5601 220.889 45.7307C222.835 47.9015 223.809 51.1716 223.809 55.541V75.2321L213.404 75.8724V59.011C213.423 58.7596 213.432 58.4992 213.432 58.2296C213.451 57.9592 213.461 57.5736 213.461 57.073C213.461 54.7824 213.124 53.1478 212.449 52.1692C211.775 51.1713 210.686 50.7186 209.183 50.811C207.218 50.9322 205.696 51.8343 204.617 53.5174C203.557 55.1994 203.008 57.5717 202.969 60.6346V76.5146L192.564 77.155V60.2935C192.564 56.7133 192.256 54.4321 191.639 53.4499C191.023 52.4484 189.924 51.9961 188.344 52.0934C186.36 52.2154 184.828 53.1278 183.749 54.8304C182.67 56.5137 182.13 58.8663 182.13 61.8883V77.797L171.725 78.4375V46.1002L182.13 45.4599V50.1948C183.402 48.288 184.857 46.8223 186.495 45.7976C188.152 44.7717 189.973 44.1977 191.957 44.0756C194.192 43.9381 196.167 44.3555 197.882 45.3278C199.597 46.3002 200.898 47.7312 201.784 49.6207L201.785 49.6203Z" fill="#581518"/>
<path d="M242.764 59.5144C240.606 59.6474 238.977 60.1131 237.879 60.912C236.8 61.7099 236.261 62.821 236.261 64.2454C236.261 65.5542 236.694 66.5574 237.561 67.2547C238.448 67.9317 239.671 68.2221 241.232 68.126C243.178 68.0063 244.816 67.2124 246.145 65.7448C247.475 64.2578 248.14 62.4653 248.14 60.3672V59.1835L242.764 59.5144ZM258.573 54.6437V73.0932L248.14 73.735V68.9421C246.752 70.9908 245.191 72.521 243.457 73.5324C241.723 74.5246 239.613 75.097 237.128 75.2499C233.775 75.4564 231.048 74.6522 228.948 72.8373C226.867 71.002 225.827 68.5251 225.827 65.4068C225.827 61.6149 227.127 58.7535 229.729 56.8226C232.349 54.8905 236.453 53.7525 242.041 53.4087L248.14 53.0338V52.2252C248.14 50.5891 247.494 49.4356 246.203 48.7643C244.912 48.0738 242.899 47.8127 240.162 47.9811C237.947 48.1176 235.885 48.4657 233.977 49.0256C232.07 49.5857 230.297 50.359 228.659 51.3452V43.463C230.875 42.7877 233.101 42.2464 235.336 41.8394C237.571 41.4129 239.806 41.131 242.041 40.9937C247.879 40.6343 252.09 41.5303 254.672 43.6813C257.273 45.8118 258.573 49.4658 258.573 54.6437Z" fill="#581518"/>
<path d="M263.71 27.8512L274.058 27.2142V72.1398L263.71 72.7762V27.8512Z" fill="#581518"/>
<path d="M272.903 81.5073C274.262 81.7612 276.144 82.103 278.022 82.4671C280.791 83.002 282.105 84.8297 281.791 87.4862C281.462 90.2706 279.417 91.3284 276.77 91.2806C275.711 91.2602 274.638 91.175 273.6 90.9743C257.221 87.8122 240.63 88.2785 224.09 88.237C211.77 88.203 199.438 88.5262 187.128 89.0842C160.759 90.2792 134.747 93.7618 109.802 102.886C104.887 104.685 100.248 107.309 95.6348 109.832C93.4525 111.023 91.6027 111.26 89.8593 109.527C87.9305 107.607 87.767 105.22 89.5228 103.219C90.736 101.836 92.4742 100.812 94.1427 99.9444C110.908 91.2241 128.834 86.2312 147.445 83.3639C177.35 78.7562 207.445 77.2698 237.658 77.6611C249.343 77.8136 261.028 78.1165 272.903 81.5073Z" fill="#F6A31C"/>
<path d="M116.237 2.58777H120.651L131.396 22.8384V2.58777H134.577V26.7945H130.162L119.418 6.54382V26.7945H116.237V2.58777Z" fill="#581518"/>
<path d="M138.003 19.6278V8.63513H140.989V19.5144C140.989 21.2331 141.325 22.5248 141.996 23.3895C142.666 24.2434 143.673 24.6703 145.015 24.6703C146.627 24.6703 147.898 24.1569 148.829 23.13C149.77 22.1032 150.241 20.7035 150.241 18.9308V8.63513H153.227V26.7943H150.241V24.0055C149.516 25.108 148.672 25.9296 147.709 26.4701C146.757 26.9997 145.647 27.2645 144.382 27.2645C142.293 27.2645 140.708 26.6159 139.626 25.3188C138.544 24.0217 138.003 22.1247 138.003 19.6278Z" fill="#581518"/>
<path d="M159.813 3.47925V8.63517H165.965V10.9537H159.813V20.8115C159.813 22.2924 160.014 23.2436 160.414 23.6651C160.825 24.0866 161.653 24.2974 162.897 24.2974H165.965V26.7943H162.897C160.592 26.7943 159.002 26.3674 158.125 25.5134C157.249 24.6487 156.811 23.0814 156.811 20.8115V10.9537H154.62V8.63517H156.811V3.47925H159.813Z" fill="#581518"/>
<path d="M178.529 11.4241C178.193 11.2295 177.825 11.0891 177.425 11.0029C177.035 10.9058 176.603 10.8571 176.126 10.8571C174.438 10.8571 173.14 11.4085 172.231 12.511C171.333 13.6027 170.884 15.1754 170.884 17.2291V26.7951H167.881V8.63574H170.884V11.4569C171.512 10.3544 172.328 9.5384 173.335 9.00877C174.341 8.46829 175.564 8.19812 177.003 8.19812C177.208 8.19812 177.436 8.21392 177.685 8.24568C177.933 8.26837 178.209 8.30621 178.512 8.35929L178.529 11.4241Z" fill="#581518"/>
<path d="M179.96 8.63496H182.947V26.7941H179.96V8.63496ZM179.96 1.56592H182.947V5.34355H179.96V1.56592Z" fill="#581518"/>
<path d="M200.655 9.33266V12.1212C199.811 11.6565 198.961 11.3106 198.106 11.0836C197.262 10.8458 196.408 10.7269 195.542 10.7269C193.605 10.7269 192.101 11.3432 191.03 12.5755C189.959 13.7969 189.423 15.5154 189.423 17.7312C189.423 19.947 189.959 21.6711 191.03 22.9033C192.101 24.1247 193.605 24.7354 195.542 24.7354C196.408 24.7354 197.262 24.6221 198.106 24.3952C198.961 24.1575 199.811 23.8062 200.655 23.3413V26.0977C199.821 26.487 198.956 26.7788 198.058 26.9732C197.17 27.1678 196.224 27.2652 195.217 27.2652C192.48 27.2652 190.305 26.4059 188.693 24.6872C187.081 22.9686 186.274 20.6501 186.274 17.7316C186.274 14.7699 187.086 12.4406 188.709 10.7436C190.343 9.04653 192.577 8.198 195.412 8.198C196.332 8.198 197.23 8.29537 198.106 8.49002C198.983 8.67378 199.832 8.95476 200.655 9.33307V9.33266ZM196.435 26.7946C197.03 27.4647 197.473 28.0808 197.766 28.6429C198.058 29.2157 198.204 29.7617 198.204 30.2806C198.204 31.2426 197.879 31.9667 197.23 32.4531C196.581 32.9503 195.618 33.199 194.341 33.199C193.843 33.199 193.356 33.1664 192.88 33.1015C192.415 33.0367 191.95 32.9393 191.484 32.8095V30.6856C191.852 30.8694 192.236 30.9993 192.637 31.075C193.037 31.1617 193.492 31.2048 194 31.2048C194.638 31.2048 195.12 31.0751 195.445 30.8156C195.769 30.5561 195.932 30.1778 195.932 29.6807C195.932 29.3563 195.813 28.9563 195.574 28.4809C195.347 28.0161 194.99 27.4539 194.503 26.7946H196.435Z" fill="#581518"/>
<path d="M211.191 17.666C208.778 17.666 207.106 17.9416 206.175 18.4929C205.245 19.0442 204.78 19.9846 204.78 21.3141C204.78 22.3733 205.126 23.2165 205.818 23.8434C206.522 24.4596 207.474 24.7675 208.675 24.7675C210.33 24.7675 211.656 24.1839 212.651 23.0166C213.658 21.8384 214.161 20.2763 214.161 18.3307V17.6658L211.191 17.666ZM217.147 16.4338V26.7942H214.161V24.0378C213.479 25.1404 212.63 25.9565 211.613 26.4862C210.596 27.005 209.351 27.2645 207.88 27.2645C206.019 27.2645 204.536 26.7456 203.432 25.708C202.34 24.6595 201.793 23.2598 201.793 21.5087C201.793 19.4657 202.475 17.9255 203.838 16.8878C205.212 15.8502 207.257 15.3313 209.973 15.3313H214.161V15.0393C214.161 13.6665 213.706 12.6073 212.797 11.8615C211.899 11.1048 210.633 10.7266 209 10.7266C207.961 10.7266 206.949 10.8508 205.964 11.0994C204.98 11.3481 204.033 11.7211 203.124 12.2183V9.46193C204.217 9.04042 205.277 8.72707 206.305 8.52167C207.333 8.30524 208.334 8.19704 209.308 8.19704C211.937 8.19704 213.901 8.87802 215.2 10.24C216.498 11.6019 217.147 13.6663 217.147 16.4334V16.4338ZM209.373 4.58162L208.448 3.68996C208.21 3.47354 207.999 3.31683 207.815 3.21973C207.642 3.11175 207.485 3.05773 207.344 3.05773C206.933 3.05773 206.63 3.25762 206.435 3.65736C206.24 4.04665 206.132 4.6843 206.11 5.57047H204.082C204.103 4.11125 204.39 2.98709 204.942 2.19806C205.494 1.39819 206.262 0.998389 207.247 0.998389C207.658 0.998389 208.036 1.0739 208.383 1.22499C208.729 1.37653 209.102 1.63055 209.503 1.98704L210.428 2.87869C210.666 3.09466 210.871 3.25689 211.045 3.36533C211.229 3.46243 211.391 3.51093 211.531 3.51093C211.943 3.51093 212.246 3.31638 212.44 2.92708C212.635 2.5269 212.743 1.88364 212.765 0.997559H214.794C214.772 2.45674 214.485 3.5863 213.934 4.38617C213.382 5.17525 212.614 5.56985 211.629 5.56985C211.218 5.56985 210.839 5.49396 210.493 5.34242C210.147 5.19133 209.773 4.93732 209.373 4.58037V4.58162Z" fill="#581518"/>
<path d="M227.424 10.7266C225.823 10.7266 224.557 11.3535 223.627 12.6073C222.696 13.8504 222.231 15.5582 222.231 17.7309C222.231 19.9035 222.691 21.6167 223.61 22.8706C224.541 24.1136 225.812 24.7351 227.424 24.7351C229.015 24.7351 230.276 24.1082 231.206 22.8544C232.137 21.6005 232.602 19.8927 232.602 17.7309C232.602 15.5799 232.137 13.8774 231.206 12.6235C230.276 11.3589 229.015 10.7266 227.424 10.7266ZM227.424 8.19727C230.021 8.19727 232.061 9.0404 233.543 10.7266C235.026 12.4128 235.767 14.7476 235.767 17.7309C235.767 20.7034 235.026 23.0381 233.543 24.7351C232.061 26.4213 230.021 27.2645 227.424 27.2645C224.817 27.2645 222.772 26.4213 221.289 24.7351C219.818 23.0381 219.082 20.7034 219.082 17.7309C219.082 14.7476 219.818 12.4128 221.289 10.7266C222.772 9.0404 224.817 8.19727 227.424 8.19727Z" fill="#581518"/>
<path d="M8.95822 117.835L31.9534 104.578C34.7311 102.977 37.823 102.175 40.9037 102.175C43.9845 102.175 47.0763 102.977 49.854 104.578L72.8492 117.835C75.6111 119.429 77.8485 121.705 79.3977 124.383C80.9511 127.063 81.8077 130.141 81.8077 133.33V159.846C81.8077 163.035 80.9511 166.113 79.4013 168.794C77.8513 171.467 75.6106 173.743 72.8411 175.34L49.8595 188.593C47.0845 190.2 43.99 191.001 40.9037 191.001C37.823 191.001 34.7311 190.2 31.9534 188.598L8.95822 175.34C6.18942 173.743 3.95083 171.467 2.40636 168.794C0.856357 166.113 0 163.035 0 159.846V133.33C0 130.141 0.856357 127.063 2.40636 124.381C3.959 121.705 6.19711 119.429 8.95822 117.835Z" fill="#581518"/>
<path fill-rule="evenodd" clip-rule="evenodd" d="M40.0241 167.375C41.2804 167.375 39.9157 168.552 42.0038 167.155C42.9544 167.981 43.0395 167.19 43.3243 168.255C40.8218 168.837 41.0862 168.911 38.2642 168.255C38.831 167.481 38.1027 168.109 39.0415 167.713C39.3972 167.563 39.7025 167.375 40.0241 167.375ZM38.0441 133.091C38.2042 133.202 38.1614 133.202 38.4625 133.332C40.1188 134.051 41.3253 134.665 42.8842 133.312C44.3114 133.278 44.9716 132.82 47.2402 134.235C48.5206 135.032 49.5226 135.661 50.0139 137.398C52.0224 144.501 48.1247 155.177 46.1012 162.019L44.6438 166.497L43.0157 166.193C41.7272 165.68 41.7839 165.792 41.7839 164.52C43.0503 164.52 43.0149 164.506 44.1479 163.148C45.7756 161.2 44.7877 158.615 42.9017 158.801C41.9262 158.897 41.8716 159.525 40.244 159.904C39.5458 159.438 39.0749 158.661 37.8391 158.798C35.4171 159.068 36.8832 161.895 37.8559 163.169C38.4827 163.991 39.0543 164.493 40.2445 164.52V165.838C38.9733 165.944 38.5707 166.686 37.1644 166.717L34.386 158.065C32.9581 153.242 28.1718 138.391 33.732 134.718C35.0333 133.858 35.9564 133.255 38.0446 133.092L38.0441 133.091ZM46.1844 145.618C46.1844 147.076 47.8615 147.51 48.7133 146.602C50.6964 144.486 46.1844 142.619 46.1844 145.618ZM32.984 145.618C32.984 147.639 36.0636 147.487 36.0636 145.618C36.0636 143.792 32.984 143.306 32.984 145.618ZM17.8042 145.089V144.576C17.9847 142.875 19.8875 140.84 21.6848 139.825C23.9835 138.525 27.1155 138.365 30.1239 138.365C30.1431 137.476 30.5702 136.303 30.9245 135.649C31.4934 134.599 31.7619 134.179 32.544 133.97C31.7266 132.426 31.2809 130.312 30.3441 128.915C29.0967 129.019 28.5148 129.522 27.6966 130.007C27.2359 130.28 26.9581 130.452 26.4545 130.744L23.2123 132.999C22.7087 133.374 20.4442 135.497 20.4442 133.75C20.4442 132.93 22.2141 131.772 22.8068 131.276C23.236 130.917 23.6088 130.481 24.0181 130.068L27.8668 126.661C29.3704 125.401 31.5242 122.526 33.3991 123.209C36.08 124.185 38.5721 130.412 38.7036 131.992L39.59 132.245C42.0814 133.217 41.0691 132.161 43.1041 131.992C43.3425 130.969 43.8256 129.99 44.1725 129.104C44.5486 128.139 44.8947 127.484 45.3749 126.568C46.1032 125.178 47.5395 122.981 49.4839 122.981C50.067 122.981 53.9327 126.43 54.379 126.882C55.0241 127.536 55.1924 127.659 55.905 128.215C56.4148 128.614 56.8582 129.151 57.3454 129.633C58.3455 130.621 61.2977 132.743 61.5844 133.97C60.4937 134.699 60.8867 134.635 58.6329 132.962C56.987 131.741 53.3604 129.073 51.4643 128.915L50.4309 131.4C50.0636 132.314 49.7074 133.013 49.4839 133.97C50.5289 135.529 50.8858 134.943 51.6845 138.365L56.2533 138.633C59.093 139.017 61.2035 140.174 62.9662 142.479C63.4279 143.082 64.0045 143.877 64.0045 144.739C64.0045 147.747 55.651 149.225 55.2039 143.86C53.366 143.86 53.4381 143.722 51.9037 144.08C51.7989 148.794 48.3235 160.104 46.7103 164.824C45.9342 167.093 45.7039 168.306 44.3414 169.227C42.2852 170.619 38.8569 170.454 37.2149 169.083C35.4226 167.586 33.553 159.931 32.6824 157.348L31.2242 151.991C30.7087 149.935 29.904 146.524 29.904 144.079C28.3696 143.722 28.4427 143.86 26.6038 143.86C26.4505 145.698 25.2254 147.376 22.8642 147.376C19.3323 147.376 17.9573 146.383 17.8042 145.089ZM38.0441 160.123C38.4685 160.347 38.47 160.288 38.8651 160.621C39.5833 161.227 38.9564 161.221 40.6841 161.221C41.5181 161.221 42.5713 160.479 43.1041 160.123C44.3217 161.939 42.3677 163.132 41.5637 163.2C41.3015 162.218 40.5064 162.218 40.244 163.2C39.4354 162.984 39.2261 162.662 38.756 162.048C38.3051 161.46 38.0708 161.084 38.0441 160.123V160.123ZM51.9037 142.541V140.783C53.6623 140.783 53.9368 141.175 54.5439 142.321C53.2794 142.321 52.8685 142.517 51.9037 142.541ZM29.6838 141.442C29.6838 142.889 29.5988 141.926 29.904 142.541C28.9448 142.521 28.5271 142.321 27.264 142.321C27.5645 141.199 28.4665 140.783 29.904 140.783C29.7528 141.051 29.6838 141.018 29.6838 141.442V141.442ZM54.5439 139.904C56.9781 139.904 59.9166 141.019 61.3119 142.593C62.2826 143.688 62.4638 144.058 62.4638 145.179C61.1585 145.869 61.3876 145.672 60.2661 145.855C59.4506 145.988 59.7087 146.113 59.0677 145.994C56.5809 145.532 56.8568 144.303 56.0175 142.162C55.6183 141.143 55.7654 141.263 55.0705 140.518L54.7638 140.187C54.7341 140.153 54.6807 140.077 54.6562 140.048C54.6312 140.014 54.5814 139.952 54.5439 139.904L54.5439 139.904ZM27.264 139.904C27.2244 139.938 27.1604 139.938 27.1427 140.003L26.3788 140.778C25.5907 142.049 25.4456 143.534 24.8904 144.565C24.4481 145.388 23.7893 145.91 22.578 146.034C22.5309 146.039 22.4725 146.048 22.4261 146.048L19.6989 145.479C17.9261 144.555 21.533 139.905 27.264 139.905L27.264 139.904ZM53.6642 128.256H53.8837L53.701 128.512L53.6642 128.256ZM53.6642 128.256C51.8847 128.108 50.8962 126.848 49.8442 129.055C49.2005 130.405 48.8162 131.86 48.1641 133.091C47.1403 132.55 46.0616 131.89 44.6438 131.772L46.4002 127.594C46.8247 126.762 48.2711 124.206 49.4839 124.52L51.6292 126.333C52.3351 127.054 53.1206 127.445 53.6642 128.256ZM27.924 128.476C28.2906 127.976 31.9698 124.52 32.7641 124.52C34.3896 124.52 37.0529 130.438 37.1639 131.772C35.5957 131.806 34.6922 132.537 33.6436 133.091C33.4616 132.31 32.9473 131.219 32.6108 130.387C31.7143 128.166 32.2947 129.414 31.2242 127.817C29.0068 127.817 29.3644 128.141 27.924 128.476" fill="#F6A31C"/>
<path d="M99.0224 117.835L122.018 104.578C124.795 102.977 127.888 102.175 130.968 102.175C134.049 102.175 137.141 102.977 139.918 104.578L162.913 117.835C165.675 119.429 167.913 121.705 169.462 124.383C171.015 127.063 171.872 130.141 171.872 133.33V159.846C171.872 163.035 171.015 166.113 169.466 168.794C167.916 171.467 165.675 173.743 162.905 175.34L139.924 188.593C137.149 190.2 134.054 191.001 130.968 191.001C127.888 191.001 124.795 190.2 122.018 188.598L99.0224 175.34C96.2536 173.743 94.015 171.467 92.4706 168.794C90.9206 166.113 90.0642 163.035 90.0642 159.846V133.33C90.0642 130.141 90.9206 127.063 92.4706 124.381C94.0232 121.705 96.2613 119.429 99.0224 117.835Z" fill="#581518"/>
<path d="M189.087 117.835L212.082 104.578C214.86 102.977 217.952 102.175 221.032 102.175C224.114 102.175 227.205 102.977 229.982 104.578L252.978 117.835C255.739 119.429 257.977 121.705 259.526 124.383C261.08 127.063 261.936 130.141 261.936 133.33V159.846C261.936 163.035 261.08 166.113 259.53 168.794C257.98 171.467 255.739 173.743 252.97 175.34L229.988 188.593C227.213 190.2 224.118 191.001 221.032 191.001C217.952 191.001 214.86 190.2 212.082 188.598L189.087 175.34C186.318 173.743 184.08 171.467 182.535 168.794C180.985 166.113 180.128 163.035 180.128 159.846V133.33C180.128 130.141 180.985 127.063 182.535 124.381C184.087 121.705 186.326 119.429 189.087 117.835Z" fill="#581518"/>
<path d="M279.152 117.835L302.147 104.578C304.925 102.977 308.017 102.175 311.097 102.175C314.179 102.175 317.27 102.977 320.048 104.578L343.043 117.835C345.805 119.429 348.042 121.705 349.591 124.383C351.145 127.063 352.001 130.141 352.001 133.33V159.846C352.001 163.035 351.145 166.113 349.595 168.794C348.045 171.467 345.804 173.743 343.035 175.34L320.054 188.593C317.279 190.2 314.184 191.001 311.097 191.001C308.017 191.001 304.925 190.2 302.147 188.598L279.152 175.34C276.383 173.743 274.145 171.467 272.6 168.794C271.05 166.113 270.194 163.035 270.194 159.846V133.33C270.194 130.141 271.05 127.063 272.6 124.381C274.153 121.705 276.391 119.429 279.152 117.835Z" fill="#581518"/>
<path d="M120.641 131.509C119.358 130.651 118.153 130.142 116.8 129.861C115.259 129.541 113.5 129.506 111.212 129.584C111.225 131.747 111.406 133.39 111.819 134.857C112.18 136.141 112.723 137.304 113.492 138.581C114.303 137.145 115.316 135.823 116.496 134.647C117.713 133.436 119.107 132.378 120.641 131.509H120.641ZM134.309 148.476C135.132 148.476 135.798 149.142 135.798 149.963C135.798 150.786 135.131 151.452 134.309 151.452C133.486 151.452 132.819 150.786 132.819 149.963C132.819 149.142 133.486 148.476 134.309 148.476ZM128.465 148.476C129.288 148.476 129.955 149.142 129.955 149.963C129.955 150.786 129.288 151.452 128.465 151.452C127.643 151.452 126.976 150.786 126.976 149.963C126.976 149.142 127.643 148.476 128.465 148.476ZM122.833 138.746C123.656 138.746 124.323 139.412 124.323 140.235C124.323 141.056 123.656 141.722 122.833 141.722C122.01 141.722 121.343 141.056 121.343 140.235C121.343 139.412 122.01 138.746 122.833 138.746ZM139.677 138.746C140.499 138.746 141.166 139.412 141.166 140.235C141.166 141.056 140.499 141.722 139.677 141.722C138.854 141.722 138.187 141.056 138.187 140.235C138.187 139.412 138.854 138.746 139.677 138.746ZM130.968 128.826C134.222 128.826 137.292 129.553 139.997 130.838C141.642 129.634 143.143 128.953 144.873 128.594C146.677 128.219 148.701 128.205 151.395 128.314L152.012 128.341L152.017 128.957C152.039 131.562 151.851 133.486 151.366 135.209C150.906 136.845 150.185 138.284 149.13 139.934C150.101 142.071 150.639 144.416 150.639 146.876C150.639 151.869 148.428 156.387 144.854 159.656C141.296 162.91 136.386 164.924 130.967 164.924C125.55 164.924 120.64 162.91 117.081 159.656C113.508 156.387 111.297 151.869 111.297 146.876C111.297 144.416 111.835 142.071 112.807 139.934C111.751 138.285 111.03 136.845 110.57 135.209C110.085 133.486 109.897 131.562 109.92 128.957L109.924 128.341L110.54 128.314C113.235 128.205 115.259 128.219 117.063 128.594C118.792 128.953 120.294 129.634 121.939 130.838C124.644 129.553 127.714 128.826 130.967 128.826H130.968ZM143.982 135.048C140.656 132.006 136.055 130.124 130.968 130.124C125.882 130.124 121.281 132.006 117.955 135.048C114.645 138.076 112.597 142.258 112.597 146.874C112.597 151.491 114.645 155.672 117.955 158.7C121.281 161.742 125.882 163.624 130.968 163.624C136.055 163.624 140.656 161.742 143.982 158.7C147.292 155.672 149.34 151.491 149.34 146.874C149.34 142.257 147.292 138.076 143.982 135.048ZM131.387 142.334C133.927 142.334 136.234 143.199 137.908 144.598C139.614 146.023 140.67 148.001 140.67 150.194C140.67 152.386 139.614 154.364 137.908 155.789C136.234 157.188 133.927 158.054 131.387 158.054C128.847 158.054 126.54 157.188 124.866 155.789C123.16 154.364 122.103 152.386 122.103 150.194C122.103 148.001 123.16 146.023 124.866 144.598C126.54 143.199 128.847 142.334 131.387 142.334ZM137.075 145.591C135.626 144.381 133.615 143.631 131.387 143.631C129.159 143.631 127.148 144.381 125.698 145.591C124.28 146.776 123.403 148.404 123.403 150.194C123.403 151.983 124.28 153.612 125.698 154.796C127.148 156.007 129.159 156.756 131.387 156.756C133.615 156.756 135.626 156.007 137.075 154.796C138.494 153.612 139.371 151.983 139.371 150.194C139.371 148.404 138.494 146.776 137.075 145.591ZM145.137 129.861C143.784 130.142 142.579 130.65 141.296 131.509C142.829 132.378 144.223 133.436 145.44 134.647C146.621 135.823 147.635 137.145 148.445 138.581C149.213 137.304 149.757 136.141 150.119 134.857C150.531 133.39 150.712 131.747 150.724 129.584C148.437 129.506 146.677 129.543 145.137 129.861" fill="#F6A31C"/>
<path d="M206.287 134.385C206.957 132.589 207.876 131.478 209.074 130.977C209.196 130.922 209.32 130.881 209.446 130.843C210.221 126.643 211.47 126.698 214.463 126.835C215.125 126.869 215.887 126.903 216.75 126.876C216.767 126.875 216.785 126.875 216.802 126.875C217.16 126.889 217.441 127.185 217.429 127.542L217.376 129.198C217.32 130.934 216.102 131.703 214.615 132.021C216.774 133.673 218.459 137.268 219.852 140.241C220.863 142.397 221.706 144.195 222.206 144.369C222.208 144.37 222.282 144.164 222.455 143.666C226.818 131.154 229.576 131.107 237.315 130.977C238.395 130.956 239.578 130.936 240.909 130.876C241.266 130.863 241.569 131.138 241.584 131.495C241.586 131.579 241.574 131.661 241.548 131.736C240.951 133.441 240.489 134.649 239.692 135.553C239.549 135.716 239.397 135.868 239.233 136.008L240.953 135.967C241.31 135.96 241.606 136.244 241.612 136.601C241.613 136.621 241.612 136.641 241.611 136.662H241.612C241.433 139.027 238.823 140.662 237.092 141.688H241.137C241.496 141.688 241.788 141.979 241.788 142.337C241.788 142.392 241.78 142.439 241.77 142.486C241.768 142.541 241.763 142.602 241.753 142.661C241.726 142.812 241.674 143.034 241.578 143.311L241.577 143.313L241.578 143.314C241.167 144.495 239.908 146.647 236.118 147.99C236.117 148.065 236.11 148.142 236.093 148.223C234.896 153.701 231.952 157.329 228.343 159.277C227.18 159.906 225.946 160.358 224.681 160.641V162.332H226.667C227.026 162.332 227.317 162.622 227.317 162.98C227.317 163.338 227.026 163.63 226.667 163.63H224.681V164.964H226.667C227.026 164.964 227.317 165.255 227.317 165.614C227.317 165.972 227.026 166.262 226.667 166.262H224.401C224.296 166.334 224.168 166.377 224.032 166.377C223.895 166.377 223.768 166.336 223.663 166.262H222.084H220.853H219.816C219.712 166.334 219.584 166.377 219.448 166.377C219.311 166.377 219.184 166.336 219.08 166.262H216.269C215.91 166.262 215.619 165.972 215.619 165.614C215.619 165.255 215.91 164.964 216.269 164.964H218.798V162.98V160.769C216.955 160.45 215.159 159.797 213.519 158.828C209.802 156.631 206.88 152.817 206.01 147.595C206.002 147.541 205.997 147.491 206.002 147.441L206.021 145.749C205.049 146.17 204.211 146.238 203.52 146.066C202.907 145.913 202.416 145.579 202.051 145.133C201.702 144.706 201.471 144.177 201.361 143.609C201.149 142.513 201.395 141.249 202.122 140.32L202.217 140.197L202.354 140.128L205.245 138.76L201.719 137.061L200.276 136.366L201.798 135.862L206.286 134.377L206.287 134.385ZM210.549 133.889C211.139 133.889 211.674 134.128 212.061 134.514C212.448 134.901 212.687 135.435 212.687 136.025C212.687 136.615 212.448 137.15 212.061 137.536L212.06 137.535C211.672 137.923 211.137 138.162 210.549 138.162C209.961 138.162 209.427 137.923 209.038 137.536L209.036 137.534C208.649 137.146 208.41 136.612 208.41 136.025C208.41 135.438 208.649 134.904 209.037 134.516L209.036 134.514C209.423 134.128 209.958 133.889 210.549 133.889H210.549ZM211.142 135.432C210.99 135.281 210.78 135.187 210.549 135.187C210.317 135.187 210.107 135.281 209.955 135.432H209.952C209.803 135.582 209.709 135.792 209.709 136.025C209.709 136.259 209.802 136.468 209.952 136.619L209.955 136.621C210.105 136.771 210.315 136.864 210.549 136.864C210.782 136.864 210.992 136.771 211.142 136.621V136.619C211.294 136.467 211.388 136.256 211.388 136.025C211.388 135.794 211.294 135.583 211.142 135.432ZM223.382 164.969V162.985V160.876C222.555 160.984 221.72 161.022 220.886 160.992C220.623 160.985 220.36 160.965 220.097 160.944V162.337H222.083C222.442 162.337 222.732 162.628 222.732 162.986C222.732 163.344 222.442 163.635 222.083 163.635H220.097V164.97H220.852H222.083L223.382 164.969ZM211.297 146.785C211.331 146.43 211.646 146.169 212.003 146.202C212.358 146.236 212.619 146.551 212.586 146.906C212.258 150.369 213.769 153.015 216.006 154.669C217.157 155.521 218.504 156.114 219.891 156.425L219.915 156.43C221.292 156.735 222.707 156.761 224.013 156.484C226.008 156.063 227.748 154.925 228.687 152.988H226.953C226.594 152.988 226.303 152.697 226.303 152.339C226.303 151.997 226.569 151.716 226.905 151.692C228.088 151.519 229.162 151.122 230.056 150.359C230.817 149.709 231.463 148.783 231.953 147.494H223.401C223.042 147.494 222.752 147.202 222.752 146.844C222.752 146.486 223.043 146.196 223.401 146.196H232.855V146.197C232.915 146.197 232.976 146.203 233.037 146.224C233.381 146.324 233.577 146.684 233.476 147.028C232.886 149.023 231.999 150.404 230.898 151.344C230.651 151.554 230.395 151.742 230.13 151.909C230.278 152.075 230.336 152.313 230.262 152.539C229.296 155.494 226.981 157.181 224.277 157.752C222.793 158.065 221.191 158.037 219.637 157.691L219.608 157.684C218.05 157.335 216.536 156.666 215.235 155.704C212.66 153.8 210.921 150.759 211.298 146.782L211.297 146.785ZM206.038 144.301L206.088 139.802L203.055 141.238C202.633 141.852 202.497 142.659 202.635 143.37C202.704 143.73 202.846 144.059 203.057 144.317C203.253 144.556 203.511 144.734 203.83 144.814C204.375 144.949 205.109 144.827 206.038 144.301L206.038 144.301ZM206.111 137.749L206.133 135.803L203.725 136.6L206.111 137.749H206.111ZM210.802 130.681C211.268 130.694 211.762 130.782 212.283 130.93C214.032 130.937 216.033 130.683 216.082 129.159L216.114 128.179C215.478 128.177 214.914 128.152 214.408 128.131C212.328 128.036 211.393 127.994 210.801 130.683L210.802 130.681ZM212.094 132.221C211.965 132.219 211.836 132.216 211.71 132.214C211.257 132.201 210.877 132.174 210.549 132.16C210.316 132.146 210.106 132.133 209.974 132.126L209.966 132.125C209.941 132.125 209.916 132.123 209.89 132.118C209.857 132.114 209.825 132.105 209.795 132.098C209.718 132.125 209.643 132.146 209.57 132.179C208.685 132.549 207.982 133.477 207.435 135.027L207.296 147.441C208.106 152.226 210.781 155.716 214.177 157.723C216.247 158.947 218.585 159.622 220.931 159.705C223.272 159.789 225.624 159.284 227.727 158.148C231.022 156.369 233.716 153.028 234.823 147.961C234.825 147.954 234.821 147.933 234.818 147.893C234.801 147.486 234.782 147.078 235.377 146.882C238.787 145.761 239.935 144.004 240.318 142.996H236.153C235.106 142.996 234.672 142.717 234.672 142.165C234.672 141.621 235.312 141.244 236.208 140.715C237.504 139.951 239.527 138.756 240.141 137.288L235.846 137.383C235.51 137.417 235.2 137.187 235.141 136.849C235.079 136.497 235.315 136.16 235.668 136.099C237.208 135.826 238.101 135.404 238.718 134.703C239.232 134.12 239.599 133.307 240.003 132.214C239.056 132.248 238.166 132.262 237.335 132.276C230.264 132.395 227.744 132.438 223.678 144.099C223.203 145.461 222.564 145.871 221.779 145.598C220.765 145.245 219.817 143.222 218.68 140.795C217.172 137.578 215.301 133.586 213.102 132.611C212.749 132.454 212.413 132.325 212.093 132.226L212.094 132.221ZM236.007 142.086C235.983 142.1 235.972 142.127 235.972 142.16C235.972 142.3 235.984 142.221 236.007 142.086Z" fill="#F6A31C"/>
<path d="M306.37 164.486C306.014 164.52 305.697 164.26 305.662 163.905C305.627 163.55 305.887 163.233 306.243 163.198C306.251 163.198 308.717 162.879 308.899 164.695C309.018 165.89 309.019 166.188 309.019 166.188C309.019 166.546 308.728 166.838 308.369 166.838C308.01 166.838 307.72 166.546 307.72 166.188C307.72 166.188 307.719 165.913 307.61 164.821C307.563 164.348 306.373 164.486 306.37 164.486H306.37ZM316.208 163.198C316.563 163.232 316.824 163.55 316.789 163.905C316.754 164.26 316.437 164.52 316.081 164.486C316.079 164.486 314.889 164.348 314.841 164.821C314.732 165.914 314.732 166.188 314.732 166.189C314.732 166.547 314.44 166.838 314.082 166.838C313.724 166.838 313.433 166.547 313.433 166.189C313.433 166.188 313.433 165.89 313.552 164.695C313.734 162.88 316.201 163.198 316.208 163.198L316.208 163.198ZM311.005 158.613C313.6 158.613 315.963 159.217 317.685 160.192C319.517 161.229 320.65 162.7 320.65 164.357C320.65 166.014 319.517 167.485 317.685 168.522C315.964 169.497 313.6 170.1 311.005 170.1C308.409 170.1 306.046 169.497 304.324 168.522C302.493 167.485 301.359 166.014 301.359 164.357C301.359 162.7 302.493 161.229 304.324 160.192C306.046 159.217 308.409 158.613 311.005 158.613ZM317.045 161.319C315.512 160.451 313.376 159.913 311.005 159.913C308.632 159.913 306.498 160.451 304.964 161.319C303.541 162.125 302.66 163.201 302.66 164.357C302.66 165.513 303.541 166.589 304.964 167.395C306.498 168.264 308.632 168.801 311.005 168.801C313.376 168.801 315.512 168.264 317.045 167.395C318.468 166.589 319.349 165.513 319.349 164.357C319.349 163.201 318.468 162.125 317.045 161.319ZM302.525 162.152C301.748 160.456 300.539 157.701 299.536 154.901C298.849 152.979 298.249 151.012 297.936 149.307C297.667 147.843 297.364 146.681 297.11 145.706C296.347 142.78 295.988 141.401 297.928 138.633C298.634 137.624 299.436 136.697 300.222 135.887C301.007 135.078 301.776 134.384 302.418 133.841C302.691 133.61 303.1 133.644 303.331 133.917C303.442 134.048 303.491 134.209 303.483 134.367L303.484 134.453L303.485 134.534L303.487 134.596L303.489 134.657H303.49L303.495 134.749L303.497 134.803L303.505 134.892L303.507 134.94H303.508L303.509 134.954L303.521 135.091L303.523 135.125L303.533 135.216L303.533 135.222H303.535L303.544 135.31L303.554 135.391L303.556 135.431L303.561 135.459L303.563 135.472H303.564L303.581 135.589L303.582 135.596L303.587 135.644L303.601 135.746H303.602L303.604 135.767H303.606L303.611 135.794L303.613 135.815L303.63 135.915L303.635 135.949L303.644 136.004L303.646 136.003L303.649 136.017L303.656 136.064L303.673 136.156L303.674 136.156L303.701 136.292L303.706 136.32L303.731 136.435L303.735 136.462H303.736L303.761 136.576L303.768 136.616L303.771 136.63L303.773 136.629L303.78 136.657L303.785 136.684L303.809 136.785L303.814 136.806H303.814L303.824 136.847L303.834 136.887L303.855 136.978H303.857L303.892 137.121L303.9 137.155L303.941 137.311L303.944 137.325H303.945L303.964 137.395L303.973 137.443L303.988 137.497H303.988L303.998 137.531H303.999L304.037 137.669L304.038 137.669L304.077 137.804L304.084 137.831L304.111 137.922L304.112 137.922L304.115 137.928L304.136 138L304.155 138.061L304.163 138.095L304.185 138.163L304.185 138.166L304.187 138.165L304.195 138.192L304.202 138.219L304.233 138.317L304.245 138.358L304.273 138.441H304.273L304.285 138.482L304.313 138.569L304.314 138.568L304.335 138.637H304.336L304.355 138.691L304.368 138.732L304.387 138.793L304.391 138.813L304.393 138.813L304.433 138.932L304.434 138.931L304.436 138.938C304.441 138.952 304.446 138.972 304.45 138.986L304.472 139.047L304.485 139.081H304.485L304.512 139.158L304.536 139.226L304.536 139.225L304.553 139.273H304.554L304.588 139.367L304.601 139.408L304.63 139.49L304.635 139.503L304.652 139.544L306.067 136.717C306.227 136.398 306.616 136.268 306.935 136.428C307.082 136.501 307.189 136.624 307.246 136.765L307.247 136.764C307.248 136.767 307.551 137.524 309.602 139.905C310.665 141.138 312.213 141.341 313.339 141.291L313.239 141.218C312.918 140.983 312.606 140.757 312.375 140.601C312.353 140.587 312.331 140.567 312.311 140.553V140.554C312.12 140.387 311.958 140.215 311.821 140.022C311.677 139.818 311.568 139.6 311.493 139.353C311.483 139.319 311.476 139.291 311.471 139.259H311.469C311.407 138.839 311.411 138.326 311.442 137.827C311.498 136.964 311.637 136.146 311.671 135.961L311.676 135.926H311.675L311.676 135.92C311.73 135.62 311.982 135.405 312.274 135.386L312.279 135.385L312.304 135.385H312.317L312.348 135.385H312.35L312.376 135.387L312.393 135.389L312.432 135.396L312.442 135.397L312.443 135.397L312.455 135.4L312.458 135.4L312.463 135.402L312.491 135.408L312.525 135.415C312.542 135.422 312.561 135.429 312.578 135.436L312.587 135.44C312.783 135.528 312.919 135.707 312.957 135.914L302.525 162.152ZM300.756 154.468C301.612 156.86 302.602 159.182 303.346 160.84C304.125 160.239 305.105 159.733 306.225 159.358C307.632 158.888 309.266 158.617 311.001 158.617C312.946 158.617 314.764 158.957 316.277 159.539C317.402 159.972 318.362 160.54 319.092 161.209L323.543 147.337L324.224 142.915C324.805 139.141 319.997 135.014 319.233 134.384L318.85 134.278C318.789 134.478 318.712 134.664 318.624 134.836C318.49 135.221 318.294 135.574 318.029 135.873C317.761 136.175 317.429 136.416 317.025 136.575C316.191 136.903 315.549 137.146 315.003 137.282C314.406 137.431 313.915 137.458 313.44 137.337C313.209 137.323 312.994 137.282 312.8 137.231C312.776 137.444 312.754 137.674 312.739 137.904C312.714 138.303 312.709 138.705 312.752 139.023C312.784 139.114 312.827 139.196 312.88 139.272C312.946 139.364 313.034 139.457 313.143 139.554C313.424 139.745 313.727 139.962 314.009 140.17C314.495 140.527 314.975 140.893 315.207 141.071L315.209 141.073L315.217 141.078L315.234 141.092L315.241 141.097L315.254 141.103L315.273 141.117V141.117L315.29 141.131L315.307 141.145L315.308 141.146L315.339 141.167L315.348 141.173L315.347 141.175C315.456 141.256 315.54 141.371 315.581 141.511C315.68 141.855 315.482 142.213 315.138 142.313C315.126 142.315 311.015 143.517 308.622 140.738C307.7 139.668 307.098 138.879 306.711 138.324L305.185 141.372C305.124 141.517 305.01 141.64 304.855 141.71C304.53 141.856 304.149 141.712 304 141.39L303.99 141.37L303.988 141.363H303.989L303.989 141.362L303.986 141.355L303.984 141.353L303.984 141.351L303.976 141.338L303.962 141.31L303.952 141.283L303.943 141.263L303.933 141.236H303.935L303.925 141.208L303.918 141.188L303.918 141.187L303.904 141.153L303.899 141.146L303.877 141.099L303.876 141.097L303.854 141.042L303.855 141.041L303.853 141.034L303.845 141.014L303.836 140.993L303.828 140.973L303.828 140.973L303.813 140.939L303.801 140.911L303.777 140.857H303.779L303.777 140.855L303.772 140.841L303.743 140.768H303.745L303.742 140.761L303.718 140.7L303.701 140.659L303.68 140.605L303.66 140.55L303.662 140.55L303.66 140.545L303.66 140.543L303.647 140.516L303.635 140.482L303.616 140.434L303.611 140.42L303.614 140.42L303.59 140.359L303.571 140.311L303.539 140.227L303.54 140.226L303.539 140.225L303.525 140.191L303.501 140.129L303.493 140.109C303.486 140.095 303.479 140.082 303.474 140.061L303.46 140.027H303.461L303.46 140.025L303.425 139.931L303.42 139.918L303.391 139.837L303.372 139.789L303.338 139.695H303.339L303.338 139.692L303.321 139.644L303.322 139.644L303.321 139.642L303.297 139.573L303.27 139.496H303.27L303.27 139.494L303.255 139.453L303.236 139.392C303.229 139.378 303.222 139.358 303.217 139.337L303.215 139.33H303.216L303.215 139.328L303.173 139.207H303.175L303.165 139.18L303.146 139.125L303.129 139.078L303.11 139.023H303.111L303.11 139.021L303.086 138.95H303.087L303.086 138.948L303.057 138.859L303.045 138.818H303.046L303.045 138.816L303.018 138.731L303.001 138.684L302.971 138.588L302.957 138.547L302.947 138.52L302.949 138.519L302.927 138.451L302.915 138.41L302.896 138.349L302.874 138.277L302.872 138.271H302.873L302.872 138.268L302.845 138.176L302.832 138.135L302.794 137.999L302.789 137.979L302.788 137.977H302.789L302.755 137.857H302.755L302.755 137.854L302.745 137.82L302.746 137.819L302.745 137.818L302.728 137.756C302.723 137.743 302.716 137.722 302.714 137.709L302.695 137.639L302.696 137.638L302.691 137.617L302.65 137.461L302.638 137.42L302.603 137.278H302.603L302.602 137.271L302.58 137.181C302.575 137.167 302.571 137.146 302.566 137.126L302.556 137.085H302.557L302.556 137.08L302.549 137.053L302.527 136.958L302.519 136.931L302.512 136.903L302.513 136.903L302.512 136.896L302.507 136.875L302.495 136.828L302.47 136.714H302.471L302.47 136.712L302.463 136.685H302.463L302.463 136.683L302.439 136.57L302.427 136.522L302.405 136.406C302.4 136.392 302.397 136.372 302.395 136.358L302.395 136.356H302.395L302.383 136.287L302.376 136.254L302.373 136.24L302.376 136.239L302.373 136.226L302.361 136.157L302.351 136.11L302.334 136.01L302.332 135.99L302.327 135.963H302.329L302.327 135.956L302.322 135.929V135.926L302.305 135.824L302.301 135.79L302.299 135.777L302.297 135.763L302.282 135.666C301.917 136.002 301.532 136.372 301.147 136.77C300.4 137.54 299.642 138.414 298.984 139.354C297.388 141.633 297.699 142.828 298.359 145.363C298.619 146.359 298.928 147.545 299.205 149.055C299.501 150.666 300.083 152.568 300.756 154.447L300.756 154.468ZM303.658 136.063C303.66 136.097 303.663 136.124 303.663 136.157L303.658 136.063ZM303.977 137.441C303.98 137.462 303.985 137.475 303.985 137.496L303.977 137.441ZM303.583 140.369V140.368V140.369ZM303.994 141.387L303.993 141.385L303.994 141.387ZM303.998 141.392L303.995 141.387L303.998 141.392ZM312.457 135.395L312.464 135.397L312.457 135.395ZM312.96 135.913C313.096 135.984 313.317 136.031 313.591 136.048C313.639 136.05 313.685 136.061 313.73 136.075V136.075C313.988 136.148 314.29 136.129 314.69 136.027C315.168 135.908 315.768 135.68 316.554 135.371C316.76 135.291 316.928 135.169 317.061 135.02C317.215 134.845 317.332 134.626 317.413 134.377C317.425 134.343 317.439 134.306 317.457 134.273H317.456C317.527 134.139 317.584 134.001 317.625 133.864C317.663 133.729 317.691 133.58 317.705 133.417C317.734 133.06 318.048 132.795 318.405 132.824C318.463 132.829 318.518 132.838 318.57 132.858L319.711 133.175C319.799 133.203 319.878 133.243 319.944 133.294H319.945C319.962 133.308 326.254 138.274 325.509 143.109L324.822 147.574C324.814 147.628 324.8 147.674 324.782 147.72L319.982 162.681C319.873 163.02 319.508 163.207 319.167 163.098C319.018 163.051 318.899 162.955 318.821 162.834C318.223 161.992 317.168 161.266 315.816 160.747C314.453 160.223 312.795 159.916 311.001 159.916C309.4 159.916 307.908 160.161 306.637 160.586C305.349 161.017 304.291 161.63 303.584 162.357C303.334 162.613 302.923 162.619 302.667 162.371C302.602 162.31 302.554 162.235 302.522 162.157L312.96 135.913ZM318.821 162.835C318.719 162.678 318.687 162.478 318.749 162.287L318.821 162.835ZM300.368 136.606C299.686 135.85 298.821 134.837 298.169 133.894C297.664 133.164 297.282 132.459 297.187 131.905C296.894 130.211 296.721 124.449 296.721 124.434C296.708 124.076 296.99 123.778 297.348 123.767C297.431 123.765 297.511 123.78 297.586 123.808C298.056 123.951 302.587 125.38 303.737 127.739C304.259 128.807 304.689 130.099 305.001 131.177C304.573 131.391 304.185 131.628 303.86 131.9C303.56 130.817 303.117 129.427 302.571 128.306C301.874 126.877 299.38 125.809 298.046 125.324C298.107 127.001 298.256 130.475 298.466 131.691C298.526 132.04 298.828 132.573 299.235 133.162C299.71 133.85 300.322 134.593 300.882 135.235C301.044 135.079 301.209 134.925 301.372 134.774C301.763 134.412 302.112 134.106 302.414 133.85L302.415 133.851C302.53 133.754 302.678 133.696 302.838 133.698L302.876 133.699C302.761 134.558 302.888 135.61 303.115 136.649C302.938 136.683 302.748 136.647 302.594 136.527C302.46 136.424 302.378 136.278 302.351 136.124H302.35C302.325 135.981 302.303 135.838 302.283 135.691L302.25 135.719C301.959 135.987 301.646 136.289 301.312 136.626C301.061 136.881 300.651 136.884 300.396 136.633L300.369 136.606H300.368H300.368ZM297.585 123.804C297.828 123.891 298.006 124.12 298.014 124.393L297.585 123.804ZM317.047 130.119C317.62 128.52 318.357 126.719 318.878 126.347C319.743 125.73 324.35 124.038 324.363 124.033C324.7 123.914 325.07 124.088 325.191 124.424C325.201 124.451 325.21 124.479 325.215 124.51H325.216C325.218 124.524 326.304 129.445 325.192 131.272C324.941 131.686 324.527 132.316 324.047 133.029C323.415 133.968 322.669 135.053 322.019 135.991C321.816 136.284 321.412 136.358 321.118 136.155C321.079 136.128 321.045 136.101 321.014 136.066C320.194 135.198 319.493 134.598 319.238 134.388L318.779 134.26L318.774 134.287C318.723 134.548 318.646 134.805 318.541 135.052C318.403 135.381 318.024 135.535 317.694 135.396C317.625 135.369 317.564 135.328 317.511 135.281C318.106 134.67 318.463 133.85 318.338 132.796L318.386 132.81L319.711 133.178L319.711 133.18C319.793 133.2 319.872 133.241 319.942 133.297C319.944 133.298 320.575 133.798 321.4 134.611C321.932 133.839 322.491 133.024 322.971 132.31C323.453 131.594 323.859 130.978 324.086 130.605C324.711 129.577 324.326 126.841 324.091 125.516C322.808 125.998 320.183 127.008 319.629 127.403C319.235 127.684 318.467 129.849 317.947 131.434C317.821 131.149 317.667 130.85 317.477 130.539C317.359 130.344 317.212 130.209 317.047 130.121L317.047 130.119ZM302.922 144.51C303.617 144.51 304.248 144.792 304.704 145.247C305.159 145.703 305.441 146.332 305.441 147.027C305.441 147.721 305.159 148.351 304.704 148.806C304.248 149.261 303.617 149.543 302.922 149.543C302.226 149.543 301.597 149.261 301.141 148.806C300.685 148.351 300.403 147.721 300.403 147.027C300.403 146.332 300.685 145.703 301.141 145.247C301.597 144.792 302.226 144.51 302.922 144.51ZM303.784 146.165C303.564 145.944 303.259 145.808 302.922 145.808C302.585 145.808 302.28 145.944 302.06 146.165C301.839 146.385 301.702 146.69 301.702 147.027C301.702 147.363 301.839 147.668 302.06 147.888C302.28 148.109 302.585 148.245 302.922 148.245C303.259 148.245 303.564 148.109 303.784 147.888C304.005 147.668 304.142 147.363 304.142 147.027C304.142 146.69 304.005 146.385 303.784 146.165ZM319.308 144.51C320.004 144.51 320.634 144.792 321.089 145.247C321.545 145.703 321.827 146.332 321.827 147.027C321.827 147.721 321.545 148.351 321.089 148.806C320.634 149.261 320.004 149.543 319.308 149.543C318.612 149.543 317.983 149.261 317.527 148.806C317.071 148.351 316.789 147.721 316.789 147.027C316.789 146.332 317.071 145.703 317.527 145.247C317.983 144.792 318.612 144.51 319.308 144.51ZM320.17 146.165C319.95 145.944 319.645 145.808 319.308 145.808C318.971 145.808 318.666 145.944 318.445 146.165C318.225 146.385 318.088 146.69 318.088 147.027C318.088 147.363 318.225 147.668 318.445 147.888C318.666 148.109 318.971 148.245 319.308 148.245C319.645 148.245 319.95 148.109 320.17 147.888C320.391 147.668 320.527 147.363 320.527 147.027C320.527 146.69 320.391 146.385 320.17 146.165ZM303.992 141.386C303.985 141.366 301.042 134.707 302.728 132.18L302.729 132.181C303.657 130.793 305.697 130.119 307.588 129.494C309.018 129.022 310.352 128.581 310.757 127.995C311.845 126.418 312.505 124.279 312.506 124.272L312.888 123.081L313.641 124.082C313.646 124.089 316.034 127.225 315.331 129.051C315.245 129.273 315.161 129.486 315.079 129.687C316.115 129.234 317.335 129.058 318.03 130.202C318.771 131.421 319.048 132.48 319.007 133.383C318.961 134.389 318.533 135.19 317.906 135.803C317.308 136.388 316.532 136.796 315.748 137.044C314.655 137.391 313.502 137.434 312.761 137.225C312.46 139.128 312.804 139.369 314.036 140.229C314.411 140.491 314.854 140.8 315.352 141.186L316.357 141.962L315.136 142.319C315.124 142.321 311.013 143.523 308.62 140.745C307.698 139.674 307.096 138.886 306.709 138.33L305.165 141.414L304.55 142.644L303.992 141.386ZM303.809 132.9C302.897 134.268 303.951 137.662 304.653 139.547L306.07 136.716L306.716 135.427L307.25 136.763C307.251 136.765 307.554 137.523 309.605 139.903C310.654 141.122 312.177 141.335 313.299 141.292L313.294 141.289C311.538 140.064 311.05 139.722 311.485 137.003L311.557 136.525C311.632 136.024 311.666 135.82 311.902 135.638L311.901 135.637C312.434 135.228 312.607 135.451 312.897 135.825C312.927 135.866 312.98 135.932 313.05 135.957C313.544 136.133 314.449 136.096 315.356 135.808C315.968 135.615 316.56 135.309 316.997 134.881C317.405 134.482 317.683 133.968 317.712 133.329C317.742 132.664 317.518 131.852 316.923 130.873C316.348 129.927 314.053 131.836 314.047 131.841L311.717 133.732L313.06 131.05C313.06 131.048 313.563 130.045 314.123 128.59C314.383 127.913 313.811 126.74 313.296 125.889C312.966 126.707 312.464 127.8 311.822 128.731C311.168 129.678 309.635 130.185 307.993 130.727C306.304 131.285 304.484 131.886 303.808 132.898V132.9L303.809 132.9Z" fill="#F6A31C"/>
</svg>
