<svg width="1336" height="86" viewBox="0 0 1336 86" fill="none" xmlns="http://www.w3.org/2000/svg">
<path fill-rule="evenodd" clip-rule="evenodd" d="M1336 0H0V1.72876C8.09326 0.543884 16.4072 -0.0314941 24.9263 0.00134277C67.5933 0.157288 108.582 10.689 149.565 21.2195L151.874 21.8125C164.499 25.0551 177.11 28.37 189.722 31.6851C227.733 41.6762 265.752 51.6693 304.177 59.6917C380.262 75.5728 455.797 68.8339 530.699 49.2364C568.37 39.3788 606.471 30.8736 644.745 23.7211C703.653 12.7172 761.939 19.2569 819.268 34.8334C841.548 40.8859 863.671 47.5247 885.795 54.1636C900.448 58.5608 915.102 62.958 929.801 67.1849C964.916 77.2859 1000.35 84.6108 1036.29 86H1060.64C1072.15 85.5413 1083.71 84.4102 1095.34 82.5052C1118.86 78.6531 1142.26 73.7301 1165.42 68.0627C1211.99 56.6601 1258.66 54.8233 1305.65 64.5285C1315.76 66.6168 1325.88 68.1719 1336 69.2974V0Z" fill="white"/>
</svg>
