<svg
   viewBox="0 0 1356.762 86.007004"
   version="1.1"
  <metadata
     id="metadata10">
    <rdf:RDF>
      <cc:Work
         rdf:about="">
        <dc:format>image/svg+xml</dc:format>
        <dc:type
           rdf:resource="http://purl.org/dc/dcmitype/StillImage" />
        <dc:title></dc:title>
      </cc:Work>
    </rdf:RDF>
  </metadata>
  <defs
     id="defs8" />
  <sodipodi:namedview
     pagecolor="#ffffff"
     bordercolor="#666666"
     borderopacity="1"
     objecttolerance="10"
     gridtolerance="10"
     guidetolerance="10"
     inkscape:pageopacity="0"
     inkscape:pageshadow="2"
     inkscape:window-width="2560"
     inkscape:window-height="1020"
     id="namedview6"
     showgrid="false"
     inkscape:zoom="1.4142136"
     inkscape:cx="736.39457"
     inkscape:cy="147.25154"
     inkscape:window-x="0"
     inkscape:window-y="32"
     inkscape:window-maximized="1"
     inkscape:current-layer="svg4" />
  <path
     style="fill:#ffffff"
     d="m 1009.5744,0.00703482 c -336.98586,-0.002 -674.86249,-0.0161 -1009.57429721469,0.002 C 42.667303,0.16501482 83.655793,10.695435 124.63878,21.225835 c 0.77,0.1978 1.53959,0.39605 2.30859,0.59375 12.627,3.2429 25.24051,6.55764 37.85351,9.87304 38.01,9.9908 76.02717,19.98376 114.45117,28.00586 76.085,15.8811 151.61949,9.14243 226.52149,-10.45507 37.671,-9.8576 75.77092,-18.36313 114.04492,-25.51563 58.908,-11.0039 117.19544,-4.46332 174.5234,11.11328 22.282,6.0526 44.4073,12.69088 66.5313,19.33008 14.653,4.3969 29.3039,8.79488 44.0019,13.02148 36.6683,7.82839 74.2253,18.81446 106.48834,18.81446 h 10.211 6.3886 c 35.9399,-1.3891 71.3733,-8.71346 106.4883,-18.81446 74.2447,-21.90227 154.7716,-48.41446 222.3106,-67.18554018 -111.931,0.002 -223.3097,-5.9e-4 -335.1875,0 -4.0053,2e-5 -7.9949,-2e-5 -12,0 z"
     id="path2"
     inkscape:connector-curvature="0"
     sodipodi:nodetypes="cccccccccccsccccsc" />
</svg>
