<svg width="139" height="35" viewBox="0 0 139 35" fill="none" xmlns="http://www.w3.org/2000/svg">
<path fill-rule="evenodd" clip-rule="evenodd" d="M5.89782 5.86334L5.22499 5.04587V5.04081C8.38531 1.92629 12.7212 0 17.4994 0C17.6338 0 18.4166 0.0105493 19.1573 0.0806821C19.9291 0.154216 20.6559 0.286797 20.6559 0.286797C20.6559 0.286797 25.5903 0.898539 29.6635 4.93394C33.7066 8.93947 34.9981 13.4822 34.9981 17.5003C34.9981 21.2887 33.7878 24.7997 31.7335 27.6669L29.953 25.5009C31.4707 23.1472 32.3404 20.3365 32.3047 17.3243C32.2123 9.37596 25.778 2.87118 17.8307 2.6965C14.6638 2.62699 11.7152 3.55894 9.27506 5.19387L12.2697 8.92834C12.6463 9.398 13.2165 9.67173 13.8189 9.67173H20.4528C22.324 9.67173 23.8336 10.1506 24.9825 11.1073C26.301 12.1983 26.9601 13.8008 26.9601 15.9156C26.9601 17.3593 26.5774 18.6006 25.8112 19.6415C25.2599 20.3988 24.555 20.9782 23.6946 21.38C23.3219 21.554 23.2249 22.0401 23.4912 22.3535L29.0987 28.9568L29.064 28.9823L29.8366 29.898C26.6128 33.1071 22.1493 35.0703 17.2365 34.9981C7.62831 34.8553 -0.114335 26.8951 0.00127809 17.287C0.0461204 13.5655 1.25887 10.1193 3.28869 7.29952L5.08696 9.43371C3.50016 11.869 2.60861 14.7977 2.69841 17.934C2.92336 25.7158 9.2166 32.0391 16.9976 32.2983C20.3209 32.4082 23.4107 31.4178 25.9329 29.6616L19.517 22.0328H19.5034L18.5759 20.9315C17.9543 20.1927 18.4805 19.062 19.4464 19.062H20.8564C21.792 19.062 22.5785 18.8195 23.2165 18.3325C23.9397 17.762 24.3014 16.9481 24.3014 15.8899C24.3014 13.742 23.1535 12.6672 20.8564 12.6672L14.4057 12.6778L14.5695 27.7201H11.4887L11.3387 12.3808C11.1812 12.2784 11.0387 12.1514 10.9167 12.0028L5.89782 5.86334ZM51.293 8.47394H47.2855V12.0701H51.293C51.7872 12.0701 52.211 11.8933 52.5652 11.5391C52.9125 11.192 53.0853 10.7683 53.0853 10.2674C53.0853 9.77304 52.9125 9.35192 52.5652 9.00499C52.211 8.6504 51.7872 8.47394 51.293 8.47394ZM48.8683 14.8348H47.2855V20.0842H44.5208V5.70907H51.293C52.548 5.70907 53.6227 6.15662 54.5181 7.05125C55.4063 7.94012 55.8499 9.01123 55.8499 10.2674C55.8499 11.3559 55.5059 12.3209 54.8191 13.1623C54.1446 13.9897 53.2857 14.5145 52.2449 14.735L56.2611 20.0842H52.8054L48.8683 14.8348ZM127.874 9.77625C128.742 8.90851 129.784 8.47394 131 8.47394C132.222 8.47394 133.264 8.90851 134.125 9.77625C134.993 10.6377 135.427 11.6796 135.427 12.902C135.427 14.1177 134.993 15.1588 134.125 16.0278C133.264 16.8893 132.222 17.3194 131 17.3194C129.784 17.3194 128.742 16.8893 127.874 16.0278C127.014 15.1588 126.583 14.1177 126.583 12.902C126.583 11.6796 127.014 10.6377 127.874 9.77625ZM123.818 12.902C123.818 14.8849 124.519 16.5778 125.922 17.9803C127.323 19.383 129.017 20.0842 131 20.0842C132.99 20.0842 134.686 19.383 136.089 17.9803C137.492 16.5778 138.193 14.8849 138.193 12.902C138.193 10.9116 137.492 9.2151 136.089 7.81264C134.686 6.40988 132.99 5.70971 131 5.70971C129.017 5.70971 127.323 6.40988 125.922 7.81264C124.519 9.2151 123.818 10.9116 123.818 12.902ZM120.265 22.7899L119.738 23.6549H120.062L120.764 22.7899H120.265ZM120.021 24.7332L120.571 26.4546H119.467L120.021 24.7332ZM120.705 26.8748L121.056 27.9805H121.553L120.29 23.9892H119.834L118.55 27.9805H118.977L119.334 26.8748H120.705ZM67.4911 23.6549C67.4986 23.4452 67.5361 23.2867 67.6039 23.1807C67.6714 23.0765 67.7696 23.0241 67.8952 23.0241C68.0023 23.0241 68.1006 23.0582 68.1918 23.1272L68.3226 23.2259C68.4042 23.2897 68.4661 23.3217 68.5101 23.3217C68.5594 23.3217 68.5989 23.2961 68.6277 23.2472C68.6557 23.1983 68.6732 23.1238 68.6786 23.025H68.9477C68.9393 23.2347 68.901 23.393 68.8342 23.4973C68.7674 23.6025 68.6703 23.6557 68.5429 23.6557C68.4369 23.6557 68.3382 23.6206 68.2476 23.5505L68.1173 23.4506C68.0351 23.389 67.972 23.3593 67.9288 23.3593C67.8795 23.3593 67.8399 23.3837 67.8117 23.4336C67.7824 23.4825 67.7657 23.5568 67.7603 23.6559H67.4911V23.6549ZM68.2062 27.6564C68.5378 27.6564 68.7929 27.51 68.9745 27.2161C69.1548 26.9215 69.2455 26.5067 69.2455 25.9712C69.2455 25.4519 69.1548 25.0456 68.9724 24.7516C68.7911 24.4597 68.5406 24.313 68.2201 24.313C67.897 24.313 67.646 24.4597 67.4647 24.7535C67.2833 25.0474 67.1934 25.4565 67.1934 25.9794C67.1934 26.5003 67.2826 26.9112 67.4629 27.2089C67.6424 27.5074 67.8903 27.6564 68.2062 27.6564ZM68.1998 28.0807C67.7503 28.0807 67.3897 27.8881 67.1156 27.5046C66.8423 27.1201 66.7057 26.613 66.7057 25.9819C66.7057 25.3476 66.8431 24.8404 67.1184 24.4596C67.3933 24.0795 67.7603 23.8892 68.2201 23.8892C68.6778 23.8892 69.0438 24.0787 69.3194 24.4585C69.5958 24.8377 69.7332 25.3439 69.7332 25.9765C69.7332 26.622 69.5958 27.1339 69.3194 27.5128C69.0438 27.8909 68.6703 28.0807 68.1998 28.0807ZM63.4768 28.0737C63.0506 28.0383 62.7154 27.8586 62.4706 27.5347C62.1978 27.1702 62.0598 26.6549 62.0598 25.9874C62.0598 25.3226 62.2009 24.8064 62.479 24.4401C62.758 24.072 63.1517 23.8891 63.659 23.8891C63.95 23.8891 64.2896 23.9486 64.679 24.0651V24.5967C64.2349 24.4072 63.8933 24.313 63.6526 24.313C63.302 24.313 63.029 24.4593 62.8368 24.7523C62.6447 25.0454 62.5476 25.4594 62.5476 25.9927C62.5476 26.5018 62.6511 26.9028 62.8561 27.1977C63.0621 27.4918 63.3433 27.6382 63.6983 27.6382C64.005 27.6382 64.3335 27.5218 64.6826 27.2901V27.7756C64.3769 27.9704 64.0438 28.0717 63.6841 28.0797L63.5974 28.2741C63.7119 28.2741 63.8111 28.3175 63.8951 28.4023C63.9803 28.4884 64.0225 28.588 64.0225 28.7026C64.0225 28.8269 63.9796 28.9317 63.8946 29.0177C63.809 29.1028 63.7047 29.1449 63.5822 29.1449C63.4777 29.1449 63.3716 29.1269 63.2635 29.0897V28.8706C63.3302 28.8983 63.407 28.9122 63.4933 28.9122C63.5673 28.9122 63.6233 28.895 63.6608 28.8621C63.6993 28.8292 63.7184 28.7781 63.7184 28.7118C63.7184 28.6258 63.6847 28.5618 63.6151 28.5179C63.5463 28.4742 63.4448 28.4539 63.3092 28.4539L63.4768 28.0737ZM45.3175 28.0802C45.1002 28.0802 44.8218 28.0219 44.4832 27.9055V27.3435C44.8485 27.5524 45.1482 27.6564 45.3833 27.6564C45.5638 27.6564 45.7092 27.5991 45.8191 27.4815C45.9288 27.3643 45.9848 27.2107 45.9848 27.0204C45.9848 26.8637 45.9481 26.7302 45.8759 26.6213C45.8035 26.5113 45.6707 26.3888 45.4768 26.255L45.2541 26.0957C44.9777 25.9008 44.7838 25.7184 44.671 25.5461C44.5575 25.3751 44.501 25.1744 44.501 24.9465C44.501 24.6389 44.5924 24.3862 44.7725 24.1877C44.9538 23.988 45.1837 23.8892 45.4639 23.8892C45.7128 23.8892 45.9766 23.9412 46.253 24.0432V24.5603C45.9124 24.3955 45.6581 24.313 45.4893 24.313C45.3311 24.313 45.2004 24.3651 45.0958 24.4697C44.9934 24.5727 44.9412 24.704 44.9412 24.8624C44.9412 24.9959 44.9785 25.1143 45.0545 25.2158C45.1308 25.3178 45.269 25.4411 45.4701 25.582L45.7018 25.7441C45.9823 25.9409 46.1769 26.1258 46.2884 26.3007C46.3994 26.4749 46.4546 26.6842 46.4546 26.9287C46.4546 27.2757 46.3508 27.5542 46.143 27.7648C45.9355 27.9751 45.6596 28.0802 45.3175 28.0802ZM49.9517 27.6564C50.2821 27.6564 50.5384 27.51 50.7187 27.2161C50.9003 26.9215 50.991 26.5067 50.991 25.9712C50.991 25.4519 50.9003 25.0447 50.7179 24.7516C50.5366 24.4598 50.2859 24.3132 49.9643 24.3132C49.6422 24.3132 49.3905 24.4597 49.2102 24.7535C49.0289 25.0474 48.9392 25.4568 48.9392 25.9794C48.9392 26.5005 49.0286 26.9113 49.2084 27.2089C49.3869 27.5074 49.6348 27.6564 49.9517 27.6564ZM49.9453 28.0807C49.4958 28.0807 49.1342 27.8881 48.8611 27.5046C48.5876 27.1203 48.4512 26.6128 48.4512 25.982C48.4512 25.3476 48.5886 24.8404 48.8629 24.4597C49.1378 24.0798 49.5058 23.8892 49.9641 23.8892C50.4223 23.8892 50.7893 24.0787 51.0647 24.4587C51.3406 24.8377 51.478 25.3439 51.478 25.9766C51.478 26.622 51.3406 27.1339 51.0647 27.5128C50.7893 27.8912 50.4159 28.0807 49.9453 28.0807ZM53.6666 23.9894V27.9803H55.5835V27.5565H54.1261V23.9894H53.6666ZM57.5754 23.9892H58.0346V26.508C58.0346 26.9089 58.0942 27.2007 58.2152 27.3831C58.3349 27.5652 58.5263 27.6569 58.7893 27.6569C59.0456 27.6569 59.2277 27.5708 59.3346 27.3995C59.4419 27.2274 59.4959 26.9372 59.4959 26.5262V23.9892H59.8976V26.5188C59.8976 27.0628 59.8075 27.4599 59.6261 27.708C59.4448 27.9561 59.1553 28.081 58.759 28.081C58.3552 28.081 58.056 27.9518 57.8636 27.6944C57.6714 27.4383 57.5754 27.0397 57.5754 26.5026V23.9892ZM71.9213 23.9894V27.9803H73.8246V27.5565H72.381V26.1117H73.5115V25.6935H72.381V24.4124H73.7313V23.9894H71.9213ZM76.5298 28.0802C76.313 28.0802 76.0346 28.0219 75.6966 27.9055V27.3435C76.0603 27.5524 76.3605 27.6564 76.5948 27.6564C76.7764 27.6564 76.9218 27.5991 77.0317 27.4815C77.1421 27.3643 77.1974 27.2107 77.1974 27.0204C77.1974 26.8637 77.1606 26.7302 77.0882 26.6213C77.016 26.5113 76.8832 26.3888 76.6893 26.255L76.4669 26.0957C76.1913 25.9008 75.996 25.7184 75.8835 25.5461C75.7703 25.3751 75.7132 25.1744 75.7132 24.9465C75.7132 24.6389 75.8039 24.3862 75.9853 24.1877C76.1666 23.988 76.3965 23.8892 76.6767 23.8892C76.9261 23.8892 77.1889 23.9412 77.4655 24.0432V24.5603C77.1239 24.3955 76.8706 24.313 76.7021 24.313C76.5437 24.313 76.4127 24.3651 76.3094 24.4697C76.2056 24.5727 76.1538 24.704 76.1538 24.8624C76.1538 24.9959 76.1913 25.1143 76.2673 25.2158C76.3431 25.3178 76.4815 25.4411 76.6829 25.582L76.9146 25.7441C77.1956 25.9409 77.3895 26.1258 77.5012 26.3007C77.6119 26.4749 77.6669 26.6842 77.6669 26.9287C77.6669 27.2757 77.5636 27.5542 77.3548 27.7648C77.148 27.9751 76.8724 28.0802 76.5298 28.0802ZM83.9054 24.7332L84.4566 26.4543H83.3524L83.9054 24.7332ZM84.5904 26.8745L84.9418 27.9803H85.4388L84.1743 23.9894H83.7194L82.4362 27.9803H82.8628L83.2188 26.8745H84.5904ZM89.8853 27.8721C89.4923 28.0101 89.1512 28.081 88.8599 28.081C88.3444 28.081 87.9499 27.8996 87.6755 27.5382C87.3994 27.1766 87.2622 26.659 87.2622 25.9845C87.2622 25.3233 87.4017 24.808 87.6807 24.4408C87.9588 24.0739 88.349 23.889 88.8524 23.889C89.182 23.889 89.5246 23.9506 89.8806 24.07V24.5937C89.435 24.4061 89.0923 24.3127 88.8553 24.3127C88.5047 24.3127 88.2326 24.4591 88.0397 24.7522C87.8466 25.0451 87.7503 25.458 87.7503 25.9899C87.7503 26.5172 87.8538 26.9264 88.0608 27.2184C88.2676 27.5105 88.5586 27.6571 88.9313 27.6571C89.0852 27.6571 89.2508 27.6243 89.4286 27.5562V26.2568H89.8853V27.8719V27.8721ZM92.8399 25.8684H92.6909V24.4118H92.9791C93.4646 24.4118 93.7055 24.6188 93.7055 25.0303C93.7055 25.5892 93.4178 25.8684 92.8399 25.8684ZM92.2358 23.9888V27.9805H92.6909V26.2922H93.1204L94.0412 27.9805H94.605L93.5239 26.1122C93.9608 25.8877 94.1787 25.5106 94.1787 24.9786C94.1787 24.6572 94.0952 24.4112 93.9305 24.2425C93.7649 24.0728 93.5268 23.9888 93.2154 23.9888H92.2358ZM97.9246 27.6564C98.2555 27.6564 98.5115 27.51 98.6926 27.2161C98.8732 26.9215 98.9639 26.5067 98.9639 25.9712C98.9639 25.4519 98.8732 25.0447 98.6908 24.7516C98.5095 24.4598 98.2578 24.3132 97.9385 24.3132C97.6151 24.3132 97.3644 24.4597 97.1821 24.7535C97.0017 25.0474 96.9118 25.4568 96.9118 25.9794C96.9118 26.5005 97.001 26.9113 97.181 27.2089C97.3608 27.5074 97.6077 27.6564 97.9246 27.6564ZM97.9182 28.0807C97.4687 28.0807 97.1071 27.8881 96.834 27.5046C96.5605 27.1203 96.423 26.6128 96.423 25.982C96.423 25.3476 96.5615 24.8404 96.8371 24.4597C97.1106 24.0798 97.4787 23.8892 97.9382 23.8892C98.3962 23.8892 98.7622 24.0787 99.0378 24.4587C99.3142 24.8377 99.4516 25.3439 99.4516 25.9766C99.4516 26.622 99.3142 27.1339 99.0378 27.5128C98.7622 27.8912 98.3885 28.0807 97.9182 28.0807ZM102.281 25.966H102.095V24.4124H102.378C102.65 24.4124 102.845 24.4632 102.962 24.5663C103.079 24.6687 103.137 24.8397 103.137 25.078C103.137 25.3608 103.063 25.5789 102.914 25.7336C102.765 25.8885 102.554 25.966 102.281 25.966ZM101.64 23.9894V27.98H102.095V26.3947H102.299C102.713 26.3947 103.037 26.2745 103.27 26.0328C103.503 25.7929 103.62 25.4598 103.62 25.0351C103.62 24.6634 103.535 24.3958 103.364 24.2328C103.193 24.0702 102.913 23.9894 102.522 23.9894H101.64ZM105.662 27.9803V23.9894H107.471V24.4124H106.121V25.6935H107.252V26.1117H106.121V27.5565H107.565V27.9803H105.662ZM109.857 27.5339C110.131 27.8981 110.52 28.0802 111.023 28.0802C111.4 28.0802 111.749 27.9787 112.069 27.7756V27.2901C111.719 27.5218 111.39 27.6384 111.084 27.6384C110.729 27.6384 110.448 27.491 110.242 27.1971C110.036 26.903 109.934 26.5011 109.934 25.9933C109.934 25.4594 110.03 25.0456 110.222 24.7517C110.414 24.4598 110.687 24.313 111.039 24.313C111.279 24.313 111.62 24.4064 112.064 24.5961V24.0639C111.675 23.9477 111.335 23.8892 111.044 23.8892C110.537 23.8892 110.143 24.0723 109.864 24.4396C109.586 24.8065 109.445 25.322 109.445 25.9873C109.445 26.6541 109.583 27.1704 109.857 27.5339ZM114.254 23.9892H114.714V26.508C114.714 26.9089 114.774 27.2007 114.895 27.3831C115.014 27.5652 115.206 27.6569 115.468 27.6569C115.725 27.6569 115.907 27.5708 116.014 27.3995C116.121 27.2274 116.175 26.9372 116.175 26.5262V23.9892H116.577V26.5188C116.577 27.0628 116.487 27.4599 116.305 27.708C116.124 27.9561 115.834 28.081 115.438 28.081C115.035 28.081 114.735 27.9518 114.543 27.6944C114.351 27.4383 114.254 27.0397 114.254 26.5026V23.9892ZM124.022 25.8684H124.171C124.749 25.8684 125.036 25.5892 125.036 25.0303C125.036 24.6188 124.795 24.4118 124.31 24.4118H124.022V25.8684ZM123.567 27.9805V23.9888H124.546C124.858 23.9888 125.096 24.0728 125.261 24.2425C125.426 24.4112 125.51 24.6572 125.51 24.9786C125.51 25.5106 125.292 25.8877 124.855 26.1122L125.936 27.9805H125.372L124.451 26.2922H124.022V27.9805H123.567ZM128.403 23.9894H127.943V27.9803H128.403V23.9894ZM132.421 26.4543L131.87 24.7332L131.318 26.4543H132.421ZM132.907 27.9803L132.555 26.8745H131.184L130.828 27.9803H130.401L131.684 23.9894H132.139L133.404 27.9803H132.907ZM135.219 27.9055C135.557 28.0219 135.835 28.0802 136.052 28.0802C136.395 28.0802 136.67 27.9751 136.877 27.7648C137.086 27.5542 137.189 27.2757 137.189 26.9287C137.189 26.6842 137.134 26.4749 137.024 26.3007C136.912 26.1258 136.718 25.9409 136.437 25.7441L136.205 25.582C136.004 25.4411 135.866 25.3178 135.789 25.2158C135.713 25.1143 135.676 24.9959 135.676 24.8624C135.676 24.704 135.728 24.5727 135.832 24.4697C135.935 24.3651 136.066 24.313 136.224 24.313C136.393 24.313 136.646 24.3955 136.988 24.5603V24.0432C136.711 23.9412 136.449 23.8892 136.199 23.8892C135.918 23.8892 135.689 23.988 135.507 24.1877C135.326 24.3862 135.236 24.6389 135.236 24.9465C135.236 25.1744 135.292 25.3751 135.406 25.5461C135.518 25.7184 135.713 25.9008 135.989 26.0957L136.211 26.255C136.406 26.3888 136.538 26.5113 136.611 26.6213C136.683 26.7302 136.72 26.8637 136.72 27.0204C136.72 27.2107 136.665 27.3643 136.554 27.4815C136.444 27.5991 136.299 27.6564 136.117 27.6564C135.883 27.6564 135.583 27.5524 135.219 27.3435V27.9055ZM99.6062 20.0738V10.5497L106.253 20.0848H109.002V5.70939H106.237V15.033L99.5908 5.70939H96.8407V20.0738H99.6062ZM77.297 13.723H73.2908V17.3188H77.297C77.7914 17.3188 78.2155 17.1424 78.5697 16.789C78.9175 16.4412 79.0906 16.0208 79.0906 15.5263C79.0906 15.0319 78.9175 14.6082 78.5697 14.2539C78.2155 13.9006 77.7914 13.723 77.297 13.723ZM77.297 8.47425H73.2908V10.9581H77.297C77.6376 10.9581 77.9314 10.8382 78.1788 10.5973C78.4197 10.3574 78.5394 10.0634 78.5394 9.71638C78.5394 9.37517 78.4197 9.08218 78.1788 8.83511C77.9314 8.5941 77.6376 8.47425 77.297 8.47425ZM77.297 20.0848H70.525V5.70939H77.297C78.4058 5.70939 79.3506 6.10035 80.1322 6.88149C80.9135 7.66942 81.3045 8.61424 81.3045 9.71638C81.3045 10.6514 81.014 11.4829 80.4327 12.2105C81.3813 13.1121 81.8544 14.2173 81.8544 15.5263C81.8544 16.7814 81.4103 17.8537 80.5223 18.7418C79.628 19.6361 78.553 20.0848 77.297 20.0848ZM57.8638 20.0846H68.9232V17.3188H60.6286V14.2848H66.4287V11.5198H60.6286V8.474H68.9232V5.70914H57.8638V20.0846ZM110.605 20.0848V5.70939H113.369V11.5193H119.45V5.70939H122.215V20.0848H119.45V14.2841H113.369V20.0848H110.605ZM86.8533 15.2866L88.547 11.1641L90.2389 15.2866H86.8533ZM89.3355 5.70939H87.7572L81.8554 20.0848H84.8806L85.6214 18.2784H91.4713L92.2128 20.0848H95.2376L89.3355 5.70939Z" fill="white"/>
</svg>
