<svg width="352" height="90" viewBox="0 0 352 90" fill="none" xmlns="http://www.w3.org/2000/svg">
<path fill-rule="evenodd" clip-rule="evenodd" d="M15.0227 14.9348L13.3089 12.8526V12.8397C21.3587 4.90655 32.403 0 44.5737 0C44.9161 0 46.9101 0.0268707 48.7966 0.20551C50.7624 0.392813 52.6138 0.730517 52.6138 0.730517C52.6138 0.730517 65.1824 2.28872 75.5575 12.5675C85.8561 22.7702 89.1457 34.3412 89.1457 44.5761C89.1457 54.2256 86.0628 63.1687 80.8301 70.4719L76.2949 64.9547C80.1608 58.9594 82.3761 51.8003 82.2852 44.1278C82.0497 23.882 65.6607 7.31335 45.4176 6.86839C37.351 6.69135 29.8405 9.06517 23.625 13.2296L31.2529 22.7419C32.2121 23.9382 33.6645 24.6354 35.1989 24.6354H52.0966C56.8627 24.6354 60.708 25.8551 63.6342 28.292C66.9927 31.0709 68.6715 35.1528 68.6715 40.5396C68.6715 44.2169 67.6967 47.3786 65.7451 50.0301C64.3409 51.9588 62.5455 53.4347 60.3537 54.4581C59.4045 54.9014 59.1574 56.1395 59.8357 56.9378L74.1188 73.7576L74.0305 73.8224L75.9985 76.1548C67.787 84.329 56.4177 89.3294 43.904 89.1456C19.4305 88.7818 -0.291229 68.5059 0.0032555 44.0326C0.117476 34.5534 3.20655 25.7754 8.3768 18.593L12.9573 24.0291C8.91544 30.2322 6.64454 37.692 6.87327 45.6806C7.44626 65.5023 23.4761 81.6086 43.2956 82.2687C51.7604 82.5488 59.6308 80.026 66.0552 75.5529L49.7128 56.121H49.6781L47.3158 53.3159C45.7323 51.434 47.0728 48.5538 49.5331 48.5538H53.1245C55.5077 48.5538 57.5109 47.9361 59.136 46.6956C60.9781 45.2425 61.8995 43.1695 61.8995 40.4742C61.8995 35.003 58.9755 32.2654 53.1245 32.2654L36.6935 32.2924L37.1109 70.6074H29.2635L28.8813 31.5359C28.4802 31.275 28.1172 30.9514 27.8065 30.5731L15.0227 14.9348ZM130.651 21.5844H120.444V30.7445H130.651C131.91 30.7445 132.99 30.294 133.892 29.3918C134.776 28.5079 135.217 27.4285 135.217 26.1526C135.217 24.8934 134.776 23.8208 133.892 22.9371C132.99 22.0339 131.91 21.5844 130.651 21.5844ZM124.475 37.7866H120.444V51.1577H113.401V14.5419H130.651C133.848 14.5419 136.585 15.6819 138.866 17.9606C141.128 20.2247 142.258 22.953 142.258 26.1526C142.258 28.9253 141.382 31.3834 139.633 33.5265C137.915 35.6339 135.727 36.9706 133.076 37.5323L143.306 51.1577H134.504L124.475 37.7866ZM325.716 24.9016C327.927 22.6914 330.581 21.5845 333.677 21.5845C336.79 21.5845 339.444 22.6914 341.638 24.9016C343.849 27.0959 344.954 29.7499 344.954 32.8633C344.954 35.96 343.849 38.6118 341.638 40.8254C339.444 43.0197 336.79 44.1151 333.677 44.1151C330.581 44.1151 327.927 43.0197 325.716 40.8254C323.524 38.6118 322.426 35.96 322.426 32.8633C322.426 29.7499 323.524 27.0959 325.716 24.9016ZM315.384 32.8633C315.384 37.9142 317.17 42.2263 320.742 45.7986C324.312 49.3716 328.626 51.1577 333.677 51.1577C338.747 51.1577 343.066 49.3716 346.641 45.7986C350.213 42.2263 352 37.9142 352 32.8633C352 27.7935 350.213 23.4723 346.641 19.9C343.066 16.327 338.747 14.5435 333.677 14.5435C328.626 14.5435 324.312 16.327 320.742 19.9C317.17 23.4723 315.384 27.7935 315.384 32.8633ZM306.334 58.0493L304.99 60.2528H305.816L307.605 58.0493H306.334ZM305.711 62.9994L307.113 67.3839H304.3L305.711 62.9994ZM307.455 68.4542L308.348 71.2708H309.614L306.397 61.1042H305.235L301.966 71.2708H303.053L303.962 68.4542H307.455ZM171.91 60.2528C171.929 59.7187 172.025 59.3149 172.197 59.0448C172.369 58.7795 172.619 58.646 172.939 58.646C173.212 58.646 173.463 58.7327 173.695 58.9087L174.028 59.1601C174.236 59.3225 174.394 59.4039 174.505 59.4039C174.631 59.4039 174.732 59.3388 174.805 59.2143C174.876 59.0898 174.921 58.9 174.935 58.6483H175.62C175.599 59.1823 175.501 59.5857 175.331 59.8513C175.161 60.1193 174.914 60.2547 174.589 60.2547C174.319 60.2547 174.068 60.1654 173.837 59.9867L173.505 59.7324C173.296 59.5753 173.135 59.4998 173.025 59.4998C172.899 59.4998 172.799 59.5619 172.727 59.6891C172.652 59.8136 172.609 60.0028 172.596 60.2554H171.91V60.2528ZM173.731 70.4451C174.576 70.4451 175.226 70.0722 175.688 69.3237C176.148 68.5733 176.379 67.5167 176.379 66.1526C176.379 64.8299 176.148 63.7949 175.683 63.0463C175.221 62.3028 174.583 61.9289 173.767 61.9289C172.944 61.9289 172.305 62.3028 171.843 63.0509C171.381 63.7996 171.152 64.8416 171.152 66.1735C171.152 67.5003 171.379 68.5471 171.838 69.3054C172.295 70.0657 172.927 70.4451 173.731 70.4451ZM173.715 71.5259C172.57 71.5259 171.652 71.0353 170.954 70.0585C170.257 69.079 169.909 67.7876 169.909 66.1801C169.909 64.5643 170.259 63.2723 170.961 62.3025C171.661 61.3344 172.596 60.8494 173.767 60.8494C174.933 60.8494 175.865 61.3322 176.567 62.2996C177.271 63.2656 177.621 64.555 177.621 66.1663C177.621 67.8105 177.271 69.1144 176.567 70.0794C175.865 71.0425 174.914 71.5259 173.715 71.5259ZM161.685 71.5081C160.6 71.4179 159.746 70.9602 159.122 70.1351C158.428 69.2067 158.076 67.8942 158.076 66.1938C158.076 64.5005 158.436 63.1857 159.144 62.2528C159.855 61.3152 160.858 60.8492 162.15 60.8492C162.891 60.8492 163.756 61.0009 164.748 61.2976V62.6515C163.617 62.169 162.746 61.929 162.133 61.929C161.24 61.929 160.545 62.3016 160.055 63.0481C159.566 63.7946 159.319 64.849 159.319 66.2076C159.319 67.5043 159.582 68.5256 160.105 69.2767C160.629 70.0258 161.346 70.3987 162.25 70.3987C163.031 70.3987 163.868 70.1023 164.757 69.5122V70.7487C163.978 71.245 163.13 71.503 162.213 71.5234L161.993 72.0186C162.284 72.0186 162.537 72.1292 162.751 72.3451C162.968 72.5643 163.075 72.8181 163.075 73.1099C163.075 73.4266 162.966 73.6935 162.75 73.9127C162.532 74.1292 162.266 74.2365 161.954 74.2365C161.688 74.2365 161.418 74.1908 161.142 74.0959V73.5378C161.312 73.6085 161.508 73.6438 161.728 73.6438C161.916 73.6438 162.059 73.6 162.154 73.5162C162.252 73.4325 162.301 73.3023 162.301 73.1335C162.301 72.9143 162.215 72.7514 162.038 72.6395C161.862 72.5283 161.604 72.4766 161.259 72.4766L161.685 71.5081ZM115.431 71.5247C114.877 71.5247 114.168 71.3761 113.306 71.0798V69.6483C114.236 70.1802 115 70.4451 115.598 70.4451C116.058 70.4451 116.429 70.2992 116.709 69.9996C116.988 69.7013 117.131 69.31 117.131 68.8252C117.131 68.4261 117.037 68.0859 116.853 67.8085C116.669 67.5285 116.33 67.2164 115.837 66.8755L115.269 66.4699C114.565 65.9733 114.071 65.5088 113.784 65.0698C113.495 64.6343 113.351 64.1232 113.351 63.5426C113.351 62.759 113.584 62.1154 114.043 61.6098C114.504 61.1011 115.09 60.8494 115.804 60.8494C116.438 60.8494 117.11 60.9821 117.814 61.2417V62.559C116.946 62.1392 116.298 61.9289 115.869 61.9289C115.466 61.9289 115.133 62.0617 114.866 62.3281C114.605 62.5906 114.472 62.9249 114.472 63.3285C114.472 63.6684 114.567 63.97 114.761 64.2285C114.955 64.4883 115.307 64.8024 115.819 65.1614L116.41 65.5742C117.124 66.0754 117.62 66.5465 117.904 66.992C118.187 67.4356 118.327 67.9688 118.327 68.5917C118.327 69.4755 118.063 70.1847 117.534 70.7212C117.005 71.2571 116.302 71.5247 115.431 71.5247ZM127.235 70.4451C128.076 70.4451 128.729 70.0722 129.188 69.3238C129.651 68.5733 129.882 67.5167 129.882 66.1526C129.882 64.83 129.651 63.7928 129.186 63.0463C128.725 62.3028 128.086 61.9296 127.267 61.9296C126.446 61.9296 125.805 62.3028 125.346 63.0509C124.884 63.7996 124.656 64.8424 124.656 66.1735C124.656 67.501 124.883 68.5472 125.341 69.3054C125.796 70.0657 126.427 70.4451 127.235 70.4451ZM127.218 71.526C126.074 71.526 125.152 71.0353 124.457 70.0585C123.76 69.0797 123.413 67.7869 123.413 66.1801C123.413 64.5643 123.763 63.2724 124.461 62.3026C125.162 61.335 126.099 60.8494 127.266 60.8494C128.433 60.8494 129.368 61.3321 130.07 62.3002C130.772 63.2655 131.122 64.555 131.122 66.1663C131.122 67.8105 130.772 69.1144 130.07 70.0794C129.368 71.0431 128.417 71.526 127.218 71.526ZM136.697 61.1049V71.2701H141.58V70.1906H137.868V61.1049H136.697ZM146.654 61.1043H147.824V67.52C147.824 68.5412 147.975 69.2845 148.283 69.749C148.588 70.2128 149.076 70.4464 149.746 70.4464C150.399 70.4464 150.863 70.2272 151.135 69.7909C151.408 69.3525 151.546 68.6132 151.546 67.5664V61.1043H152.569V67.5474C152.569 68.9331 152.339 69.9446 151.877 70.5766C151.415 71.2086 150.678 71.5266 149.669 71.5266C148.64 71.5266 147.878 71.1975 147.388 70.5419C146.898 69.8896 146.654 68.8743 146.654 67.5062V61.1043ZM183.195 61.1049V71.2701H188.043V70.1906H184.366V66.5105H187.245V65.4453H184.366V62.1823H187.805V61.1049H183.195ZM194.933 71.5247C194.381 71.5247 193.672 71.3761 192.811 71.0798V69.6483C193.737 70.1802 194.502 70.4451 195.099 70.4451C195.561 70.4451 195.932 70.2992 196.212 69.9996C196.493 69.7013 196.634 69.31 196.634 68.8252C196.634 68.4261 196.54 68.0859 196.356 67.8085C196.172 67.5285 195.834 67.2164 195.34 66.8755L194.773 66.4699C194.071 65.9733 193.574 65.5088 193.287 65.0698C192.999 64.6343 192.853 64.1232 192.853 63.5426C192.853 62.759 193.084 62.1154 193.546 61.6098C194.008 61.1011 194.594 60.8494 195.308 60.8494C195.943 60.8494 196.612 60.9821 197.317 61.2417V62.559C196.447 62.1392 195.802 61.9289 195.372 61.9289C194.969 61.9289 194.635 62.0617 194.372 62.3281C194.108 62.5906 193.976 62.9249 193.976 63.3285C193.976 63.6684 194.071 63.97 194.265 64.2285C194.458 64.4883 194.81 64.8024 195.323 65.1614L195.913 65.5742C196.629 66.0754 197.123 66.5465 197.408 66.992C197.69 67.4356 197.83 67.9688 197.83 68.5917C197.83 69.4755 197.567 70.1847 197.035 70.7212C196.508 71.2571 195.806 71.5247 194.933 71.5247ZM213.72 62.9994L215.124 67.3832H212.311L213.72 62.9994ZM215.465 68.4536L216.36 71.2701H217.626L214.405 61.1049H213.246L209.978 71.2701H211.064L211.971 68.4536H215.465ZM228.952 70.9947C227.951 71.346 227.082 71.5266 226.34 71.5266C225.027 71.5266 224.022 71.0647 223.323 70.1441C222.62 69.223 222.271 67.9046 222.271 66.1866C222.271 64.5025 222.626 63.1899 223.336 62.2544C224.045 61.3201 225.039 60.8489 226.321 60.8489C227.161 60.8489 228.033 61.0059 228.94 61.3101V62.644C227.805 62.166 226.932 61.9283 226.328 61.9283C225.435 61.9283 224.742 62.3013 224.251 63.0478C223.759 63.7937 223.514 64.8455 223.514 66.2003C223.514 67.5435 223.777 68.5857 224.305 69.3296C224.831 70.0735 225.573 70.4471 226.522 70.4471C226.914 70.4471 227.336 70.3633 227.789 70.1899V66.8801H228.952V70.994V70.9947ZM236.478 65.8908H236.098V62.1807H236.832C238.069 62.1807 238.683 62.708 238.683 63.756C238.683 65.1797 237.95 65.8908 236.478 65.8908ZM234.939 61.1032V71.2708H236.098V66.9704H237.192L239.538 71.2708H240.974L238.22 66.5117C239.333 65.9399 239.888 64.9794 239.888 63.6245C239.888 62.8057 239.675 62.179 239.256 61.7494C238.834 61.3172 238.227 61.1032 237.434 61.1032H234.939ZM249.429 70.4451C250.272 70.4451 250.924 70.0722 251.385 69.3238C251.845 68.5733 252.076 67.5167 252.076 66.1526C252.076 64.83 251.845 63.7928 251.381 63.0463C250.919 62.3028 250.278 61.9296 249.464 61.9296C248.641 61.9296 248.002 62.3028 247.538 63.0509C247.078 63.7996 246.849 64.8424 246.849 66.1735C246.849 67.501 247.076 68.5472 247.535 69.3054C247.993 70.0657 248.622 70.4451 249.429 70.4451ZM249.413 71.526C248.268 71.526 247.347 71.0353 246.651 70.0585C245.954 69.0797 245.604 67.7869 245.604 66.1801C245.604 64.5643 245.957 63.2724 246.659 62.3026C247.356 61.335 248.293 60.8494 249.464 60.8494C250.63 60.8494 251.563 61.3321 252.265 62.3002C252.969 63.2655 253.319 64.555 253.319 66.1663C253.319 67.8105 252.969 69.1144 252.265 70.0794C251.563 71.0431 250.611 71.526 249.413 71.526ZM260.527 66.1395H260.052V62.1823H260.773C261.466 62.1823 261.963 62.3116 262.259 62.5741C262.557 62.835 262.706 63.2707 262.706 63.8776C262.706 64.598 262.518 65.1535 262.137 65.5474C261.757 65.9419 261.221 66.1395 260.527 66.1395ZM258.894 61.1049V71.2695H260.052V67.2314H260.572C261.626 67.2314 262.45 66.9253 263.045 66.3096C263.639 65.6985 263.937 64.85 263.937 63.7682C263.937 62.8214 263.719 62.1399 263.285 61.7247C262.848 61.3105 262.135 61.1049 261.14 61.1049H258.894ZM269.137 71.2701V61.1049H273.746V62.1823H270.308V65.4453H273.188V66.5105H270.308V70.1906H273.985V71.2701H269.137ZM279.823 70.1331C280.52 71.0608 281.511 71.5247 282.794 71.5247C283.755 71.5247 284.643 71.2662 285.456 70.7487V69.5122C284.566 70.1023 283.729 70.3993 282.947 70.3993C282.043 70.3993 281.327 70.0238 280.803 69.2753C280.28 68.5262 280.019 67.5023 280.019 66.2089C280.019 64.8491 280.264 63.795 280.753 63.0464C281.243 62.3028 281.938 61.9289 282.833 61.9289C283.444 61.9289 284.314 62.1668 285.445 62.6501V61.2945C284.454 60.9984 283.589 60.8494 282.848 60.8494C281.556 60.8494 280.552 61.3159 279.842 62.2514C279.133 63.186 278.774 64.4992 278.774 66.1938C278.774 67.8923 279.125 69.2073 279.823 70.1331ZM291.024 61.1043H292.195V67.52C292.195 68.5412 292.346 69.2845 292.654 69.749C292.959 70.2128 293.447 70.4464 294.116 70.4464C294.769 70.4464 295.233 70.2272 295.505 69.7909C295.779 69.3525 295.916 68.6132 295.916 67.5664V61.1043H296.94V67.5474C296.94 68.9331 296.709 69.9446 296.247 70.5766C295.786 71.2086 295.048 71.5266 294.039 71.5266C293.011 71.5266 292.248 71.1975 291.759 70.5419C291.269 69.8896 291.024 68.8743 291.024 67.5062V61.1043ZM315.903 65.8908H316.283C317.755 65.8908 318.487 65.1797 318.487 63.756C318.487 62.708 317.873 62.1807 316.638 62.1807H315.903V65.8908ZM314.745 71.2708V61.1032H317.239C318.032 61.1032 318.639 61.3172 319.061 61.7494C319.481 62.179 319.693 62.8057 319.693 63.6245C319.693 64.9794 319.138 65.9399 318.025 66.5117L320.779 71.2708H319.343L316.997 66.9704H315.903V71.2708H314.745ZM327.063 61.1049H325.892V71.2701H327.063V61.1049ZM337.298 67.3832L335.894 62.9994L334.486 67.3832H337.298ZM338.534 71.2701L337.638 68.4536H334.145L333.239 71.2701H332.152L335.421 61.1049H336.58L339.801 71.2701H338.534ZM344.424 71.0798C345.284 71.3761 345.994 71.5247 346.546 71.5247C347.419 71.5247 348.12 71.2571 348.648 70.7212C349.179 70.1847 349.443 69.4755 349.443 68.5917C349.443 67.9688 349.303 67.4356 349.021 66.992C348.736 66.5465 348.242 66.0754 347.526 65.5742L346.936 65.1614C346.423 64.8024 346.071 64.4883 345.876 64.2285C345.683 63.97 345.588 63.6684 345.588 63.3285C345.588 62.9249 345.721 62.5906 345.984 62.3281C346.248 62.0617 346.581 61.9289 346.985 61.9289C347.414 61.9289 348.059 62.1392 348.93 62.559V61.2417C348.225 60.9821 347.556 60.8494 346.919 60.8494C346.205 60.8494 345.62 61.1011 345.159 61.6098C344.697 62.1154 344.466 62.759 344.466 63.5426C344.466 64.1232 344.61 64.6343 344.9 65.0698C345.187 65.5088 345.683 65.9733 346.385 66.4699L346.952 66.8755C347.446 67.2164 347.785 67.5285 347.969 67.8085C348.153 68.0859 348.247 68.4261 348.247 68.8252C348.247 69.31 348.106 69.7013 347.824 69.9996C347.545 70.2992 347.174 70.4451 346.711 70.4451C346.115 70.4451 345.35 70.1802 344.424 69.6483V71.0798ZM253.713 51.1311V26.8717L270.643 51.1592H277.645V14.5427H270.603V38.2913L253.673 14.5427H246.668V51.1311H253.713ZM196.888 34.9546H186.683V44.1137H196.888C198.147 44.1137 199.227 43.6643 200.13 42.7643C201.015 41.8782 201.456 40.8075 201.456 39.5479C201.456 38.2887 201.015 37.2093 200.13 36.3069C199.227 35.407 198.147 34.9546 196.888 34.9546ZM196.888 21.5853H186.683V27.9121H196.888C197.755 27.9121 198.504 27.6065 199.134 26.9929C199.747 26.382 200.052 25.6332 200.052 24.7491C200.052 23.88 199.747 23.1337 199.134 22.5044C198.504 21.8905 197.755 21.5853 196.888 21.5853ZM196.888 51.1592H179.638V14.5427H196.888C199.712 14.5427 202.118 15.5385 204.109 17.5282C206.1 19.5352 207.095 21.9418 207.095 24.7491C207.095 27.1307 206.355 29.2486 204.875 31.1021C207.291 33.3985 208.496 36.2136 208.496 39.5479C208.496 42.745 207.365 45.4763 205.103 47.7382C202.825 50.0161 200.087 51.1592 196.888 51.1592ZM147.388 51.1585H175.558V44.1137H154.431V36.3856H169.204V29.3428H154.431V21.5846H175.558V14.5421H147.388V51.1585ZM281.728 51.1592V14.5427H288.77V29.3414H304.257V14.5427H311.302V51.1592H304.257V36.3839H288.77V51.1592H281.728ZM221.229 38.9373L225.543 28.4368L229.853 38.9373H221.229ZM227.552 14.5427H223.531L208.499 51.1592H216.204L218.091 46.558H232.992L234.881 51.1592H242.585L227.552 14.5427Z" fill="url(#paint0_linear)"/>
<defs>
<linearGradient id="paint0_linear" x1="0.290728" y1="44.579" x2="89.1503" y2="44.579" gradientUnits="userSpaceOnUse">
<stop stop-color="#F6A21C"/>
<stop offset="1" stop-color="#691717"/>
</linearGradient>
</defs>
</svg>
