<svg width="179" height="203" viewBox="0 0 179 203" fill="none" xmlns="http://www.w3.org/2000/svg">
<path d="M42.3121 104.327C41.3404 94.8508 40.4815 85.8752 39.4548 76.9112C38.9343 72.3217 38.0638 67.7525 37.4565 63.1629C37.1962 61.1764 37.1152 59.1404 37.1037 57.119C37.0603 50.7785 39.0355 47.7334 44.9784 45.4735C51.1469 43.1321 57.4051 41.009 63.6285 38.7927C71.4252 36.0325 79.2421 33.3625 86.9896 30.4889C101.935 24.9454 116.791 19.1721 131.76 13.6954C140.965 10.3332 150.32 7.36939 159.594 4.19914C162.836 3.08519 166.032 1.86948 169.277 0.743896C170.043 0.470499 170.856 0.278537 171.671 0.141838C175.173 -0.413682 176.822 0.618832 177.669 4.01594C177.973 5.27822 178.201 6.59577 178.189 7.89004C178.097 20.3762 177.86 32.8507 177.848 45.3368C177.848 51.8692 178.189 58.4016 178.427 64.937C178.56 68.4679 178.855 71.9901 178.991 75.5239C179.15 79.7849 177.296 82.6817 173.296 84.4326C168.1 86.7157 163.039 89.284 157.934 91.7707C156.454 92.4978 155.054 93.4082 153.573 94.1557C150.884 95.5081 149.721 97.5324 149.64 100.679C149.473 107.325 148.964 113.971 148.434 120.605C148.241 123.072 147.856 125.593 147.078 127.935C145.699 132.079 142.142 132.841 139.137 129.651C137.373 127.763 135.95 125.527 134.492 123.366C131.363 118.753 128.359 114.061 125.195 109.472C123.795 107.45 122.147 105.586 120.565 103.588C119.897 103.733 119.31 103.791 118.792 104.007C114.214 105.961 109.662 107.951 105.087 109.893C103.688 110.495 103.179 111.278 103.586 112.915C105.301 119.948 107.031 126.981 108.477 134.069C109.775 140.476 110.724 146.942 111.799 153.396C112.554 157.985 112.465 159.917 106.681 162.29C100.57 164.811 94.4015 167.231 88.9907 171.222C85.8964 173.493 84.2335 176.242 84.3145 180.229C84.3925 184.502 84.0889 188.786 83.872 193.056C83.7593 195.319 83.4787 197.555 83.23 199.806C83.0594 201.316 82.4607 202.601 80.8123 202.93C79.1408 203.282 78.2009 202.258 77.4346 200.929C74.9938 196.738 72.5414 192.547 70.0457 188.376C68.7704 186.241 67.4487 184.115 66.0577 182.059C63.3596 178.095 62.6684 177.856 58.5792 180.162C54.1632 182.661 49.7674 185.252 45.5105 188.024C38.8215 192.387 31.6611 195.714 24.2259 198.509C19.5034 200.283 16.759 198.954 15.4605 193.876C13.5171 186.285 11.9034 178.606 10.1856 170.96C7.0218 156.836 3.89275 142.692 0.752107 128.56C0.627753 127.978 0.448455 127.411 0.347238 126.832C-0.468287 122.118 -0.106821 121.402 4.28892 119.64C16.1372 114.902 27.9999 110.199 39.851 105.473C40.7099 105.132 41.5341 104.69 42.3121 104.327ZM10.6946 129.217C10.3215 127.013 11.4493 125.402 13.0775 124.389C14.8503 123.287 16.8717 122.537 18.8729 121.879C19.4369 121.696 20.2842 122.345 21.0072 122.606C20.692 123.4 20.5994 124.436 20.0355 124.933C19.1766 125.684 17.9793 126.059 16.9411 126.617C14.2632 128.083 13.8901 128.764 14.5235 131.727C15.5385 136.477 16.6809 141.192 17.6988 145.941C18.3987 149.178 19.0089 152.439 19.6393 155.702C19.7318 156.156 19.8996 156.7 19.7319 157.087C19.4832 157.677 18.9973 158.587 18.5895 158.599C17.9244 158.631 16.8602 158.177 16.6577 157.654C16.036 156.133 15.6976 154.486 15.3592 152.872C13.8554 145.691 12.3892 138.501 10.9201 131.309C10.7842 130.625 10.7727 129.91 10.6946 129.217ZM65.5603 47.905C66.1705 50.4731 65.2798 51.7005 63.3683 52.4829C60.6469 53.5969 57.969 54.8243 55.2592 56.0051C51.7108 57.5524 51.3059 58.0847 51.7802 61.9239C52.5697 68.4011 53.4952 74.855 54.331 81.3176C54.5247 82.7166 54.6837 84.1476 54.6722 85.5553C54.6606 86.0236 54.0273 86.8757 53.7555 86.8408C53.1684 86.7826 52.3673 86.3871 52.1302 85.8985C51.679 84.9648 51.4737 83.8742 51.3059 82.83C50.2215 75.6722 49.137 68.5261 48.1191 61.3683C47.4742 56.8573 48.8652 54.3705 52.9081 52.5847C55.9244 51.2556 58.9291 49.8827 61.9917 48.6553C63.0993 48.2132 64.3515 48.1435 65.5603 47.905ZM97.4641 91.7154L97.5075 91.8405L97.5306 91.9074L97.5653 91.9539L97.6087 92.0674L97.6319 92.1343L97.655 92.1808L97.71 92.3495L97.7331 92.3844L97.7678 92.4862L97.869 92.7596L97.8805 92.7945L97.9037 92.8381L97.9384 92.9312L98.0049 93.0883L98.028 93.1697L98.0627 93.2366L98.1755 93.5769L98.1958 93.635L98.2652 93.7717L98.2767 93.827L98.2999 93.8735L98.3086 93.9084L98.3202 93.9521L98.3433 93.987L98.3664 94.0655L98.4011 94.1673L98.4126 94.1906L98.4242 94.2371L98.4445 94.2808V94.304H98.4561L98.4676 94.3389L98.4792 94.3622H98.5023V94.3942H98.5139V94.4174H98.5254L102.58 105.097C103.474 104.757 104.24 104.472 104.986 104.155C109.211 102.349 113.448 100.554 117.65 98.7133C120.542 97.451 122.948 98.0996 124.958 100.473C126.404 102.189 127.997 103.803 129.284 105.644C133.081 111.098 136.742 116.641 140.49 122.129C140.921 122.752 141.508 123.275 142.402 124.253C142.659 122.72 142.908 121.731 142.989 120.719C143.428 114.675 144.253 108.608 144.151 102.576C144.027 95.5546 147.02 91.1919 153.247 88.4317C158.86 85.9421 164.317 83.0802 169.829 80.3404C174.019 78.2637 174.676 76.8531 174.008 72.1268C173.759 70.3672 173.071 68.3225 173.669 66.8682C174.956 63.7882 174.121 60.8332 174.144 57.8229C174.202 50.9385 174.369 44.0425 174.427 37.1581C174.517 27.6357 174.586 18.1279 174.586 8.61717C174.586 7.01459 174.178 5.42652 173.895 3.34696C171.749 3.90248 170.043 4.23114 168.418 4.8012C152.804 10.3099 137.159 15.7313 121.626 21.4232C101.993 28.6246 82.4376 36.0674 62.8506 43.4055C57.4282 45.4386 52.0376 47.553 46.5834 49.4843C43.0466 50.7233 41.4416 53.1431 41.6007 56.7671C41.7134 59.504 41.939 62.2322 42.2802 64.9458C43.3531 73.6712 44.4926 82.3966 45.6349 91.1134C46.1207 94.8159 46.6847 98.5097 47.2486 102.529C62.0033 97.3027 76.2258 92.2594 90.3789 87.248C94.2425 88.6703 96.4809 89.0455 97.4728 91.6573L97.4641 91.7154ZM108.025 157.11C105.787 144.647 103.517 132.501 101.472 120.332C100.22 112.936 98.6932 105.656 95.9834 98.6551C95.3385 96.9973 94.5924 95.3627 93.7132 93.827C92.4234 91.5439 91.5877 91.1687 89.0457 91.8609C86.4372 92.5764 83.8402 93.4198 81.2866 94.3389C69.4933 98.5882 57.7203 102.881 45.9501 107.177C36.8463 110.496 27.728 113.768 18.6792 117.232C13.5171 119.198 8.47935 121.516 3.23917 123.729C3.56596 125.105 3.82624 126.242 4.10676 127.376C6.38849 136.59 8.7512 145.793 10.9317 155.03C13.8121 167.176 16.5218 179.366 19.3472 191.511C19.6277 192.727 20.2264 193.876 20.7354 195.193C27.7628 192.954 34.1221 190.182 40.1316 186.57C46.3232 182.844 52.4685 179.06 58.7729 175.538C62.5671 173.412 64.5452 173.845 67.6512 176.922C68.9063 178.161 69.9792 179.616 70.9508 181.105C73.2644 184.682 75.4681 188.353 77.7383 191.965C78.1344 192.59 78.655 193.137 79.4676 194.158C79.7944 188.673 80.1559 183.821 80.3381 178.97C80.4827 175.186 81.625 171.891 84.8119 169.721C88.3227 167.336 91.8827 164.983 95.6104 162.973C99.5405 160.847 103.676 159.131 108.025 157.11Z" fill="#571417"/>
<path d="M116.051 52.0454C120.231 49.3273 124.17 46.7006 128.189 44.2154C129.169 43.6051 130.364 43.1895 131.516 43.0509C134.486 42.6942 136.617 45.032 136.034 48.0036C135.818 49.1534 135.387 50.3296 134.772 51.3202C133.495 53.3249 132.107 55.2705 130.638 57.1367C127.472 61.1431 124.248 65.0935 121.016 69.0439C120.106 70.1582 119.159 71.2638 118.101 72.2426C115.824 74.3504 113.34 74.5803 111.017 72.555C109.184 70.966 107.522 69.0763 106.143 67.0628C103.98 63.9054 102.365 60.4414 101.225 56.7446C99.5406 51.273 102.808 47.4376 108.376 48.5903C109.778 48.8792 111.131 49.4305 112.431 50.0172C113.728 50.6186 114.935 51.4116 116.051 52.0454Z" fill="#571417"/>
<path d="M59.2238 136.346C63.4917 133.694 67.5126 131.131 71.6048 128.692C72.6048 128.108 73.8369 127.706 75.0006 127.57C78.0363 127.222 80.2089 129.503 79.6286 132.4C79.3964 133.513 78.9649 134.669 78.3251 135.627C77.0245 137.591 75.6048 139.489 74.1048 141.31C70.8727 145.219 67.5839 149.073 64.2833 152.927C63.3518 154.017 62.3875 155.095 61.3161 156.05C58.9917 158.107 56.447 158.331 54.075 156.355C52.2149 154.802 50.5185 152.95 49.0988 150.994C46.8905 147.916 45.2506 144.534 44.075 140.916C42.3548 135.592 45.6911 131.85 51.3875 132.975C52.8072 133.254 54.1911 133.794 55.5274 134.367C56.8518 134.951 58.084 135.727 59.2238 136.346Z" fill="#571417"/>
</svg>
