<svg width="736" height="555" viewBox="0 0 736 555" fill="none" xmlns="http://www.w3.org/2000/svg">
<path d="M356.713 218.28V205.469H360.603V238.363H356.713V234.812C355.896 236.221 354.86 237.271 353.606 237.962C352.365 238.638 350.872 238.976 349.124 238.976C346.263 238.976 343.931 237.835 342.127 235.552C340.337 233.269 339.442 230.267 339.442 226.546C339.442 222.825 340.337 219.823 342.127 217.54C343.931 215.257 346.263 214.115 349.124 214.115C350.872 214.115 352.365 214.461 353.606 215.151C354.86 215.828 355.896 216.871 356.713 218.28ZM343.458 226.546C343.458 229.407 344.043 231.655 345.213 233.29C346.397 234.91 348.018 235.721 350.075 235.721C352.133 235.721 353.754 234.91 354.938 233.29C356.121 231.655 356.713 229.407 356.713 226.546C356.713 223.685 356.121 221.444 354.938 219.823C353.754 218.188 352.133 217.371 350.075 217.371C348.018 217.371 346.397 218.188 345.213 219.823C344.043 221.444 343.458 223.685 343.458 226.546Z" fill="#581518"/>
<path d="M365.075 214.686H368.965V238.363H365.075V214.686ZM365.075 205.469H368.965V210.395H365.075V205.469Z" fill="#581518"/>
<path d="M390.084 215.384V219.062C388.984 218.499 387.843 218.076 386.659 217.794C385.475 217.512 384.249 217.371 382.981 217.371C381.05 217.371 379.598 217.667 378.626 218.26C377.667 218.852 377.188 219.74 377.188 220.923C377.188 221.825 377.534 222.537 378.224 223.058C378.915 223.566 380.303 224.052 382.389 224.517L383.721 224.813C386.483 225.405 388.442 226.244 389.598 227.329C390.767 228.4 391.352 229.901 391.352 231.832C391.352 234.03 390.478 235.771 388.731 237.053C386.997 238.336 384.608 238.977 381.564 238.977C380.296 238.977 378.971 238.85 377.59 238.597C376.223 238.357 374.778 237.991 373.256 237.497V233.481C374.694 234.228 376.11 234.791 377.505 235.172C378.901 235.539 380.282 235.722 381.649 235.722C383.481 235.722 384.89 235.412 385.877 234.792C386.863 234.158 387.357 233.27 387.357 232.128C387.357 231.071 386.997 230.261 386.279 229.697C385.574 229.133 384.017 228.59 381.607 228.069L380.254 227.752C377.844 227.245 376.103 226.47 375.032 225.427C373.961 224.37 373.425 222.925 373.425 221.093C373.425 218.866 374.215 217.147 375.793 215.935C377.371 214.723 379.612 214.117 382.516 214.117C383.953 214.117 385.306 214.222 386.575 214.434C387.843 214.645 389.013 214.962 390.084 215.385V215.384Z" fill="#581518"/>
<path d="M398.147 207.964V214.686H406.159V217.709H398.147V230.562C398.147 232.493 398.408 233.733 398.929 234.283C399.465 234.833 400.543 235.108 402.164 235.108H406.159V238.364H402.164C399.162 238.364 397.09 237.807 395.948 236.694C394.807 235.566 394.236 233.523 394.236 230.563V217.71H391.382V214.686H394.236V207.964H398.147Z" fill="#581518"/>
<path d="M422.523 218.322C422.086 218.069 421.607 217.885 421.085 217.772C420.578 217.645 420.014 217.582 419.394 217.582C417.196 217.582 415.504 218.3 414.321 219.738C413.151 221.161 412.566 223.212 412.566 225.89V238.362H408.655V214.686H412.566V218.365C413.383 216.927 414.447 215.863 415.758 215.172C417.069 214.468 418.661 214.115 420.536 214.115C420.804 214.115 421.099 214.137 421.424 214.179C421.748 214.21 422.107 214.259 422.502 214.327L422.523 218.322Z" fill="#581518"/>
<path d="M424.39 214.686H428.279V238.363H424.39V214.686ZM424.39 205.469H428.279V210.395H424.39V205.469Z" fill="#581518"/>
<path d="M451.3 226.546C451.3 223.685 450.708 221.444 449.525 219.823C448.355 218.188 446.741 217.371 444.684 217.371C442.626 217.371 441.005 218.188 439.821 219.823C438.652 221.444 438.067 223.685 438.067 226.546C438.067 229.407 438.652 231.655 439.821 233.29C441.005 234.91 442.626 235.721 444.684 235.721C446.741 235.721 448.355 234.91 449.525 233.29C450.708 231.655 451.3 229.407 451.3 226.546ZM438.067 218.28C438.884 216.871 439.913 215.828 441.153 215.151C442.407 214.461 443.901 214.115 445.635 214.115C448.51 214.115 450.842 215.257 452.632 217.54C454.436 219.823 455.338 222.825 455.338 226.546C455.338 230.267 454.436 233.269 452.632 235.552C450.842 237.835 448.51 238.976 445.635 238.976C443.901 238.976 442.407 238.638 441.153 237.962C439.913 237.271 438.884 236.221 438.067 234.812V238.363H434.156V205.469H438.067V218.28Z" fill="#581518"/>
<path d="M457.845 229.019V214.686H461.734V228.871C461.734 231.112 462.171 232.796 463.045 233.924C463.919 235.037 465.23 235.594 466.977 235.594C469.077 235.594 470.733 234.925 471.945 233.586C473.171 232.247 473.784 230.422 473.784 228.11V214.686H477.674V238.363H473.784V234.727C472.84 236.165 471.741 237.236 470.486 237.941C469.246 238.631 467.802 238.976 466.153 238.976C463.433 238.976 461.368 238.131 459.959 236.44C458.549 234.748 457.845 232.275 457.845 229.019Z" fill="#581518"/>
<path d="M482.405 214.686H486.295V238.363H482.405V214.686ZM482.405 205.469H486.295V210.395H482.405V205.469Z" fill="#581518"/>
<path d="M507.9 218.28V205.469H511.79V238.363H507.9V234.812C507.083 236.221 506.047 237.271 504.792 237.962C503.552 238.638 502.058 238.976 500.311 238.976C497.45 238.976 495.117 237.835 493.313 235.552C491.523 233.269 490.628 230.267 490.628 226.546C490.628 222.825 491.523 219.823 493.313 217.54C495.117 215.257 497.45 214.115 500.311 214.115C502.058 214.115 503.552 214.461 504.792 215.151C506.047 215.828 507.083 216.871 507.9 218.28ZM494.645 226.546C494.645 229.407 495.23 231.655 496.4 233.29C497.584 234.91 499.204 235.721 501.262 235.721C503.32 235.721 504.94 234.91 506.124 233.29C507.308 231.655 507.9 229.407 507.9 226.546C507.9 223.685 507.308 221.444 506.124 219.823C504.94 218.188 503.32 217.371 501.262 217.371C499.204 217.371 497.584 218.188 496.4 219.823C495.23 221.444 494.645 223.685 494.645 226.546Z" fill="#581518"/>
<path d="M525.437 217.413C523.351 217.413 521.702 218.231 520.49 219.865C519.278 221.486 518.672 223.713 518.672 226.546C518.672 229.379 519.271 231.612 520.469 233.247C521.681 234.868 523.337 235.678 525.437 235.678C527.508 235.678 529.15 234.861 530.362 233.226C531.574 231.591 532.18 229.364 532.18 226.546C532.18 223.741 531.574 221.521 530.362 219.887C529.15 218.238 527.508 217.413 525.437 217.413ZM525.437 214.115C528.819 214.115 531.476 215.215 533.406 217.413C535.337 219.612 536.303 222.656 536.303 226.546C536.303 230.422 535.337 233.466 533.406 235.678C531.476 237.877 528.819 238.976 525.437 238.976C522.04 238.976 519.376 237.877 517.446 235.678C515.529 233.466 514.571 230.422 514.571 226.546C514.571 222.656 515.529 219.612 517.446 217.413C519.376 215.215 522.04 214.115 525.437 214.115Z" fill="#581518"/>
<path d="M553.491 218.322C553.054 218.069 552.575 217.885 552.054 217.772C551.546 217.645 550.983 217.582 550.362 217.582C548.164 217.582 546.473 218.3 545.289 219.738C544.119 221.161 543.534 223.212 543.534 225.89V238.362H539.623V214.686H543.534V218.365C544.352 216.927 545.416 215.863 546.726 215.172C548.037 214.468 549.63 214.115 551.504 214.115C551.772 214.115 552.068 214.137 552.392 214.179C552.716 214.21 553.076 214.259 553.47 214.327L553.491 218.322Z" fill="#581518"/>
<path d="M271.043 280.258V267.447L274.933 267.208V300.102L271.043 300.341V296.79C270.226 298.249 269.19 299.363 267.935 300.131C266.695 300.884 265.201 301.314 263.454 301.422C260.593 301.598 258.26 300.6 256.456 298.428C254.666 296.255 253.771 293.309 253.771 289.588C253.771 285.867 254.666 282.81 256.456 280.417C258.26 278.023 260.593 276.737 263.454 276.561C265.201 276.454 266.695 276.707 267.935 277.321C269.19 277.92 270.226 278.9 271.043 280.258V280.258ZM257.788 289.34C257.788 292.201 258.373 294.413 259.543 295.976C260.727 297.524 262.347 298.235 264.405 298.108C266.463 297.981 268.083 297.071 269.267 295.377C270.451 293.669 271.043 291.385 271.043 288.524C271.043 285.663 270.451 283.459 269.267 281.911C268.083 280.349 266.463 279.631 264.405 279.758C262.347 279.884 260.727 280.802 259.543 282.51C258.373 284.203 257.788 286.479 257.788 289.34Z" fill="#581518"/>
<path d="M299.657 285.768V287.67L281.773 288.772C281.942 291.44 282.745 293.434 284.183 294.754C285.634 296.06 287.65 296.634 290.229 296.475C291.723 296.382 293.167 296.11 294.562 295.658C295.972 295.205 297.367 294.569 298.748 293.751V297.43C297.353 298.108 295.923 298.647 294.457 299.047C292.991 299.447 291.504 299.694 289.996 299.787C286.219 300.019 283.224 299.105 281.012 297.042C278.813 294.979 277.714 292.073 277.714 288.324C277.714 284.448 278.757 281.312 280.843 278.914C282.942 276.502 285.768 275.186 289.32 274.967C292.505 274.771 295.021 275.645 296.867 277.589C298.727 279.518 299.657 282.244 299.657 285.768V285.768ZM295.767 284.866C295.739 282.739 295.14 281.078 293.971 279.882C292.815 278.684 291.279 278.145 289.362 278.263C287.192 278.397 285.451 279.117 284.14 280.424C282.844 281.73 282.097 283.502 281.899 285.741L295.767 284.866Z" fill="#581518"/>
<path d="M335.411 282.086V296.376L331.521 296.616V282.452C331.521 280.211 331.084 278.561 330.21 277.501C329.337 276.442 328.026 275.966 326.278 276.073C324.178 276.203 322.522 276.974 321.31 278.388C320.098 279.801 319.492 281.664 319.492 283.975V297.357L315.581 297.598V273.921L319.492 273.68V277.358C320.423 275.877 321.515 274.746 322.769 273.964C324.038 273.181 325.496 272.739 327.145 272.637C329.865 272.47 331.923 273.189 333.318 274.794C334.713 276.385 335.411 278.816 335.411 282.085V282.086Z" fill="#581518"/>
<path d="M339.487 286.781V272.448L343.376 272.209V286.394C343.376 288.635 343.813 290.292 344.687 291.366C345.561 292.425 346.872 292.901 348.619 292.794C350.719 292.664 352.375 291.893 353.587 290.479C354.813 289.065 355.426 287.202 355.426 284.891V271.467L359.316 271.227V294.904L355.426 295.144V291.508C354.482 293.003 353.383 294.142 352.129 294.924C350.888 295.691 349.444 296.125 347.795 296.227C345.075 296.394 343.01 295.676 341.601 294.072C340.191 292.467 339.487 290.037 339.487 286.782V286.781Z" fill="#581518"/>
<path d="M367.894 263.976V270.698L375.907 270.204V273.227L367.894 273.72V286.574C367.894 288.504 368.155 289.729 368.677 290.246C369.212 290.762 370.29 290.971 371.911 290.871L375.906 290.625V293.88L371.911 294.127C368.909 294.312 366.837 293.883 365.696 292.84C364.554 291.782 363.983 289.774 363.983 286.814V273.961L361.13 274.137V271.114L363.983 270.938V264.215L367.894 263.976Z" fill="#581518"/>
<path d="M392.271 272.833C391.834 272.606 391.355 272.452 390.833 272.372C390.326 272.276 389.762 272.248 389.142 272.289C386.943 272.425 385.252 273.248 384.068 274.758C382.899 276.254 382.314 278.34 382.314 281.018V293.491L378.403 293.732V270.055L382.314 269.814V273.492C383.131 272.004 384.195 270.875 385.506 270.103C386.817 269.318 388.409 268.868 390.284 268.752C390.551 268.734 390.847 268.737 391.172 268.761C391.496 268.773 391.855 268.801 392.25 268.844L392.271 272.833Z" fill="#581518"/>
<path d="M394.137 269.082L398.027 268.842V292.52L394.137 292.759V269.082ZM394.137 259.865L398.027 259.625V264.551L394.137 264.79V259.865Z" fill="#581518"/>
<path d="M421.091 268.33V271.966C419.992 271.428 418.885 271.045 417.772 270.818C416.673 270.576 415.559 270.489 414.432 270.559C411.909 270.714 409.95 271.638 408.555 273.331C407.159 275.009 406.462 277.293 406.462 280.182C406.462 283.071 407.159 285.276 408.555 286.797C409.95 288.303 411.909 288.979 414.432 288.824C415.559 288.754 416.673 288.538 417.772 288.175C418.885 287.796 419.992 287.27 421.091 286.596V290.19C420.006 290.764 418.878 291.214 417.708 291.54C416.553 291.865 415.32 292.068 414.009 292.149C410.443 292.368 407.61 291.422 405.511 289.311C403.411 287.199 402.361 284.241 402.361 280.436C402.361 276.574 403.418 273.472 405.532 271.129C407.66 268.785 410.57 267.499 414.263 267.272C415.461 267.198 416.63 267.253 417.772 267.436C418.913 267.605 420.02 267.904 421.091 268.331V268.33ZM415.594 291.437C416.37 292.263 416.947 293.031 417.328 293.74C417.708 294.464 417.899 295.164 417.899 295.84C417.899 297.094 417.476 298.065 416.63 298.751C415.785 299.451 414.53 299.853 412.867 299.955C412.219 299.998 411.585 299.995 410.965 299.946C410.359 299.897 409.753 299.808 409.147 299.678V296.908C409.626 297.118 410.126 297.257 410.648 297.323C411.169 297.404 411.761 297.425 412.423 297.388C413.255 297.339 413.882 297.131 414.305 296.764C414.728 296.399 414.939 295.893 414.939 295.245C414.939 294.822 414.784 294.311 414.474 293.71C414.178 293.122 413.713 292.418 413.079 291.597L415.594 291.437Z" fill="#581518"/>
<path d="M434.814 278.351C431.671 278.545 429.494 279.038 428.282 279.832C427.07 280.625 426.464 281.888 426.464 283.622C426.464 285.003 426.915 286.075 427.817 286.837C428.733 287.583 429.973 287.909 431.537 287.812C433.694 287.68 435.42 286.812 436.717 285.21C438.027 283.593 438.683 281.516 438.683 278.98V278.112L434.814 278.351ZM442.573 276.267V289.775L438.683 290.014V286.42C437.795 287.913 436.689 289.045 435.364 289.817C434.039 290.575 432.418 291.013 430.502 291.131C428.077 291.28 426.147 290.723 424.709 289.459C423.286 288.179 422.574 286.398 422.574 284.115C422.574 281.451 423.462 279.388 425.238 277.926C427.028 276.463 429.691 275.622 433.229 275.404L438.683 275.069V274.688C438.683 272.898 438.091 271.554 436.907 270.654C435.737 269.74 434.088 269.348 431.96 269.479C430.607 269.562 429.29 269.805 428.007 270.209C426.725 270.611 425.491 271.173 424.307 271.895V268.301C425.731 267.664 427.112 267.17 428.451 266.82C429.79 266.456 431.093 266.235 432.362 266.156C435.787 265.945 438.345 266.676 440.036 268.347C441.727 270.019 442.573 272.659 442.573 276.267V276.267ZM432.446 261.437L431.241 260.348C430.931 260.085 430.657 259.898 430.417 259.786C430.192 259.659 429.987 259.601 429.804 259.612C429.268 259.643 428.874 259.928 428.62 260.467C428.366 260.99 428.225 261.831 428.197 262.988L425.555 263.151C425.583 261.247 425.956 259.758 426.675 258.685C427.394 257.598 428.395 257.015 429.677 256.936C430.213 256.905 430.706 256.973 431.157 257.141C431.608 257.311 432.094 257.612 432.616 258.045L433.821 259.133C434.131 259.396 434.398 259.591 434.624 259.718C434.863 259.83 435.075 259.88 435.258 259.868C435.793 259.838 436.188 259.56 436.442 259.034C436.696 258.497 436.836 257.65 436.865 256.493L439.507 256.329C439.477 258.234 439.103 259.73 438.387 260.817C437.668 261.89 436.667 262.466 435.385 262.545C434.849 262.575 434.356 262.507 433.905 262.34C433.454 262.17 432.968 261.869 432.446 261.436L432.446 261.437Z" fill="#581518"/>
<path d="M455.959 268.001C453.873 268.129 452.224 269.048 451.012 270.758C449.8 272.453 449.194 274.717 449.194 277.55C449.194 280.383 449.793 282.58 450.991 284.141C452.203 285.687 453.859 286.395 455.959 286.266C458.031 286.138 459.673 285.22 460.885 283.51C462.097 281.801 462.703 279.537 462.703 276.718C462.703 273.913 462.097 271.731 460.885 270.171C459.673 268.596 458.031 267.873 455.959 268.001ZM455.959 264.703C459.341 264.495 461.998 265.43 463.929 267.51C465.86 269.589 466.825 272.574 466.825 276.464C466.825 280.34 465.86 283.443 463.929 285.775C461.998 288.092 459.341 289.355 455.959 289.564C452.562 289.773 449.899 288.838 447.968 286.758C446.051 284.664 445.093 281.678 445.093 277.803C445.093 273.913 446.051 270.81 447.968 268.493C449.899 266.176 452.562 264.912 455.959 264.703Z" fill="#581518"/>
<path d="M494.605 274.668C491.462 274.862 489.285 275.355 488.073 276.149C486.86 276.942 486.254 278.206 486.254 279.939C486.254 281.32 486.705 282.392 487.607 283.154C488.523 283.901 489.764 284.226 491.328 284.129C493.484 283.997 495.211 283.129 496.507 281.527C497.818 279.91 498.473 277.833 498.473 275.297V274.429L494.605 274.668ZM502.363 272.584V286.092L498.473 286.331V282.738C497.586 284.23 496.479 285.362 495.154 286.134C493.83 286.892 492.209 287.33 490.292 287.448C487.868 287.598 485.937 287.04 484.5 285.776C483.076 284.496 482.365 282.715 482.365 280.432C482.365 277.768 483.253 275.705 485.028 274.243C486.818 272.78 489.482 271.939 493.019 271.721L498.473 271.385V271.005C498.473 269.215 497.882 267.87 496.698 266.97C495.528 266.056 493.879 265.664 491.751 265.795C490.398 265.878 489.08 266.122 487.798 266.525C486.515 266.928 485.282 267.49 484.098 268.211V264.618C485.522 263.98 486.903 263.486 488.242 263.136C489.581 262.772 490.884 262.551 492.153 262.473C495.577 262.262 498.135 262.992 499.826 264.663C501.518 266.335 502.363 268.975 502.363 272.583V272.584Z" fill="#581518"/>
<path d="M526.256 270.329V284.62L522.366 284.86V270.696C522.366 268.455 521.929 266.804 521.056 265.745C520.182 264.685 518.871 264.209 517.124 264.317C515.024 264.447 513.368 265.218 512.156 266.631C510.944 268.045 510.338 269.907 510.338 272.219V285.6L506.427 285.841V262.164L510.338 261.923V265.602C511.268 264.121 512.36 262.99 513.614 262.208C514.883 261.425 516.341 260.983 517.99 260.881C520.71 260.714 522.768 261.433 524.163 263.038C525.559 264.629 526.256 267.059 526.256 270.329V270.329Z" fill="#581518"/>
<path d="M530.733 260.667L534.623 260.428V284.105L530.733 284.344V260.667ZM530.733 251.45L534.623 251.211V256.137L530.733 256.376V251.45Z" fill="#581518"/>
<path d="M559.082 263.466C560.055 261.659 561.217 260.298 562.57 259.383C563.923 258.468 565.516 257.954 567.348 257.841C569.814 257.689 571.717 258.439 573.056 260.09C574.395 261.727 575.064 264.138 575.064 267.323V281.614L571.153 281.855V267.691C571.153 265.422 570.752 263.763 569.948 262.713C569.145 261.663 567.919 261.189 566.27 261.29C564.254 261.414 562.662 262.182 561.492 263.593C560.322 265.004 559.738 266.865 559.738 269.176V282.558L555.827 282.799V268.635C555.827 266.352 555.425 264.693 554.622 263.657C553.818 262.607 552.578 262.134 550.901 262.237C548.914 262.359 547.335 263.133 546.165 264.559C544.996 265.969 544.411 267.823 544.411 270.121V283.502L540.5 283.744V260.067L544.411 259.825V263.504C545.299 261.998 546.363 260.861 547.603 260.094C548.843 259.327 550.316 258.891 552.021 258.786C553.741 258.68 555.199 259.027 556.397 259.827C557.609 260.626 558.504 261.839 559.082 263.467V263.466Z" fill="#581518"/>
<path d="M587.776 268.929C584.633 269.122 582.456 269.616 581.244 270.409C580.032 271.203 579.426 272.466 579.426 274.2C579.426 275.581 579.877 276.652 580.778 277.414C581.695 278.161 582.935 278.486 584.499 278.39C586.655 278.257 588.382 277.39 589.679 275.788C590.989 274.171 591.645 272.094 591.645 269.557V268.69L587.776 268.929ZM595.534 266.844V280.353L591.645 280.592V276.998C590.757 278.49 589.65 279.623 588.326 280.395C587.001 281.153 585.38 281.591 583.463 281.709C581.039 281.858 579.108 281.301 577.671 280.036C576.247 278.757 575.536 276.976 575.536 274.693C575.536 272.029 576.424 269.966 578.199 268.504C579.989 267.04 582.653 266.2 586.19 265.982L591.645 265.645V265.265C591.645 263.475 591.053 262.13 589.869 261.231C588.699 260.316 587.05 259.925 584.922 260.056C583.569 260.139 582.251 260.382 580.969 260.785C579.686 261.188 578.453 261.75 577.269 262.472V258.878C578.693 258.24 580.074 257.747 581.413 257.397C582.752 257.032 584.055 256.811 585.324 256.733C588.748 256.522 591.306 257.253 592.997 258.924C594.689 260.596 595.534 263.235 595.534 266.843V266.844Z" fill="#581518"/>
<path d="M599.746 247.199L603.636 246.96V279.854L599.746 280.093V247.199Z" fill="#581518"/>
<path d="M534.492 447.105C527.902 448.688 522.617 450.017 517.302 451.217C507.209 453.496 497.143 452.197 487.09 450.833C479.47 449.801 471.853 448.742 464.241 447.649C445.752 444.994 428.37 449.056 411.721 456.713C402.72 460.853 394.029 465.678 385.239 470.271C375.9 475.151 366.566 479.903 356.031 481.878C341.677 484.57 327.464 483.953 313.191 481.291C300.068 478.842 286.948 476.072 273.699 474.665C251.032 472.257 228.792 476.028 207.098 482.303C190.794 487.018 174.835 492.936 158.767 498.442C146.763 502.556 134.571 505.168 121.806 503.741C119.007 503.427 116.12 503.042 113.513 502.056C107.142 499.646 102.781 495.917 102.087 488.135C99.8938 463.528 96.99 438.983 94.5088 414.401C92.7183 396.677 91.1255 378.933 89.5368 361.191C89.2739 358.266 88.3846 355.109 91.3288 352.705C91.757 352.357 91.1455 350.921 91.3517 350.072C91.6945 348.659 91.9869 346.951 92.9456 346.081C93.4562 345.619 95.5985 346.31 96.5372 347.063C106.959 355.445 118.927 358.958 132.122 358.271C147.222 357.483 161.536 352.985 175.862 348.556C193.249 343.181 210.54 337.405 228.141 332.831C254.308 326.032 280.664 327.104 307.018 332.65C320.272 335.441 333.653 337.754 347.072 339.595C367.723 342.426 387.865 339.172 407.521 332.795C420.22 328.676 432.739 324.002 445.378 319.696C463.942 313.369 482.881 309.325 502.634 311.587C510.872 312.529 519.087 313.845 527.226 315.424C543.6 318.603 559.843 318.455 576.009 314.292C594.109 309.628 612.543 309.938 630.985 310.629C637.097 310.859 638.212 312.767 636.084 318.18C633.361 325.109 633.406 332.249 635.923 339.003C640.576 351.5 645.616 363.873 650.967 376.09C660.237 397.257 660.923 417.974 648.876 438.344C648.051 439.738 646.668 441.028 646.436 442.507C645.58 447.953 641.801 448.229 637.484 448.374C623.926 448.826 610.377 449.598 596.817 449.96C593.365 450.053 591.336 451.174 589.588 454.156C582.929 465.507 576.026 476.713 569.185 487.955C567.924 490.029 566.638 492.106 565.173 494.035C560.258 500.505 555.229 500.039 552.138 492.63C548.945 484.973 546.156 477.15 543.165 469.408C540.34 462.092 537.482 454.789 534.492 447.104V447.105ZM628.406 318.225C613.927 318.724 600.393 318.348 586.972 320.762C576.827 322.586 566.683 324.636 556.446 325.675C543.856 326.953 531.409 324.85 519.107 322.115C498.528 317.539 478.076 317.622 457.954 324.355C442.8 329.426 427.766 334.855 412.693 340.166C394.565 346.553 375.909 349.783 356.685 349.271C341.438 348.865 326.499 346.056 311.686 342.643C293.058 338.35 274.319 335.493 255.121 337.047C238.277 338.41 222.021 342.47 205.919 347.407C188.128 352.861 170.363 358.461 152.371 363.176C134.176 367.942 116.224 367.368 99.5355 357.193C98.9001 356.807 98.0797 356.728 96.9111 356.373C96.9111 358.305 96.7607 359.873 96.934 361.407C99.5105 384.137 102.209 406.853 104.716 429.591C106.735 447.902 108.604 466.23 110.402 484.565C111.115 491.852 111.941 492.885 119.351 494.137C128.75 495.727 137.972 494.628 146.956 491.916C155.861 489.228 164.686 486.222 173.39 482.942C190.268 476.583 207.369 471.055 225.114 467.664C243.103 464.224 261.21 462.222 279.464 464.887C292.278 466.759 305.018 469.171 317.748 471.566C338.779 475.52 358.813 473.39 377.715 462.752C385.471 458.387 393.471 454.449 401.435 450.469C415.688 443.347 430.654 438.607 446.608 437.237C458.233 436.239 469.619 438.272 481.017 439.933C495.517 442.047 509.931 443.53 524.405 439.559C528.266 438.5 532.413 438.264 536.446 438.12C540.91 437.961 541.986 439.344 542.341 443.838C542.459 445.345 542.991 446.873 543.595 448.279C544.792 451.062 546.288 453.718 547.452 456.514C550.794 464.549 554.01 472.638 557.332 480.681C557.89 482.036 558.731 483.274 559.803 485.224C563.626 479.021 567.013 473.518 570.407 468.018C574.872 460.783 579.244 453.487 583.85 446.343C586.735 441.869 587.161 441.904 592.254 443.295C593.399 443.606 594.631 443.837 595.804 443.772C610.149 442.983 624.492 442.132 639.183 441.276C641.588 436.675 644.467 432.204 646.362 427.348C652.687 411.133 651.029 395.279 643.778 379.656C639.354 370.12 635.332 360.389 631.432 350.623C627.393 340.502 625.401 330.047 628.406 318.225" fill="#581518"/>
<path d="M379.829 141.642C381.563 141.386 383.442 141.451 384.986 140.767C386.216 140.223 387.676 138.88 387.896 137.682C388.239 135.817 386.445 134.926 384.764 134.997C380.391 135.178 376.014 135.474 371.666 135.96C370.066 136.138 368.685 137.12 368.831 139.137C368.971 141.079 370.194 141.929 371.978 141.948C374.593 141.98 377.211 141.86 379.827 141.809C379.828 141.754 379.827 141.699 379.829 141.64" fill="#581518"/>
<path d="M35.9752 331.575C36.9356 332.084 38.2649 332.613 39.4016 333.417C50.0965 340.976 60.7597 348.581 71.4291 356.18C71.9197 356.529 72.6362 356.863 72.7746 357.342C73.1348 358.578 73.8362 360.511 73.2991 361.036C72.3788 361.934 70.4823 362.529 69.2412 362.23C67.5681 361.827 66.0752 360.532 64.5967 359.49C55.0446 352.76 45.495 346.025 36.0063 339.205C34.7458 338.299 33.5306 337.059 32.8337 335.698C31.7954 333.671 33.4646 331.43 35.9752 331.575Z" fill="#581518"/>
<path d="M403.191 123.626C405.626 124.624 407.588 123.551 407.755 121.592C407.841 120.589 407.628 119.451 407.204 118.533C403.879 111.309 400.511 104.104 397.053 96.9435C396.291 95.3678 395.232 93.8975 394.108 92.55C392.944 91.157 391.456 90.0303 389.503 91.1026C387.482 92.2127 387.843 93.9848 388.484 95.738C388.727 96.4009 389.018 97.0506 389.339 97.6795C393.197 105.212 397.04 112.752 400.951 120.257C401.663 121.624 402.663 122.843 403.191 123.626Z" fill="#581518"/>
<path d="M43.8822 410.133C47.1052 410.733 49.5094 411.098 51.8745 411.637C58.584 413.166 65.2828 414.742 71.9732 416.354C73.3426 416.684 74.8504 416.981 75.9311 417.782C76.7331 418.378 77.437 419.841 77.2886 420.777C77.1383 421.726 76.031 422.779 75.0777 423.265C74.2864 423.668 73.0739 423.475 72.1096 423.265C63.4147 421.371 54.7314 419.425 46.052 417.459C45.0758 417.236 43.8777 417.057 43.2607 416.405C42.2563 415.343 40.927 413.814 41.0793 412.656C41.2177 411.593 43.1268 410.758 43.8822 410.133Z" fill="#581518"/>
<path d="M368.127 118.681C368.625 119.226 369.261 120.51 370.251 120.907C376.141 123.265 382.093 125.476 388.073 127.602C389.645 128.161 391.386 127.933 392.075 126.072C392.732 124.3 391.863 122.909 390.205 122.223C384.338 119.799 378.491 117.306 372.522 115.161C370.063 114.276 367.882 116.036 368.127 118.681Z" fill="#581518"/>
<path d="M62.9834 377.996C61.018 379.346 60.0566 380.416 58.909 380.679C57.8503 380.922 56.5523 380.423 55.4302 380.042C49.3348 377.976 43.262 375.846 37.1841 373.735C36.6147 373.537 36.0116 373.379 35.5 373.075C33.4706 371.871 30.4543 370.843 31.6413 367.877C32.9054 364.719 35.6698 366.372 37.8741 367.15C44.5125 369.49 51.1725 371.775 57.741 374.296C59.3937 374.931 60.7357 376.373 62.9834 377.996Z" fill="#581518"/>
<path d="M57.3118 449.285C55.176 449.084 53.0201 449.285 51.2115 448.57C50.008 448.102 48.8384 446.454 48.5635 445.143C48.4196 444.455 50.1538 442.668 51.1711 442.554C57.5951 441.841 64.0507 441.311 70.5092 441.11C71.5689 441.073 73.3425 442.805 73.6349 444.001C74.149 446.094 72.4678 447.305 70.4533 447.591C66.0516 448.218 61.6326 448.734 57.3118 449.285Z" fill="#581518"/>
<path d="M59.724 477.475C58.8661 476.531 57.3913 475.575 57.0899 474.336C56.891 473.515 58.1421 471.84 59.1449 471.318C63.0809 469.27 67.1763 467.527 71.2112 465.67C73.1776 464.765 75.2361 464.132 76.3921 466.641C77.371 468.761 75.9106 470.046 74.1719 470.95C70.764 472.724 67.3561 474.505 63.9003 476.185C62.8351 476.703 61.6141 476.906 59.724 477.475Z" fill="#581518"/>
<path d="M294.491 360.128C287.063 358.892 279.636 357.683 272.159 357.148C248.423 355.452 225.271 358.447 203.62 369.098C199.661 371.046 196.211 374.009 192.374 376.24C191.199 376.922 189.515 376.726 188.063 376.932C187.983 375.264 187.16 372.892 187.955 372.054C190.832 369.013 193.971 366.027 197.524 363.859C207.278 357.911 217.996 354.169 229.118 351.747C249.521 347.299 269.966 346.738 290.572 350.859C294.708 351.686 298.857 352.46 303.017 353.182C299.987 355.399 297.143 357.718 294.491 360.128" fill="#581518"/>
<path d="M153.008 395.328L159.764 452.241L168.385 451.217C178.214 450.051 185.422 446.724 190.008 441.238C194.635 435.748 196.398 428.358 195.296 419.071C194.198 409.824 190.78 403.092 185.043 398.874C179.305 394.656 171.5 393.133 161.629 394.304L153.008 395.328ZM126.798 380.003L152.162 376.992C166.323 375.311 176.981 375.081 184.137 376.301C191.33 377.475 197.691 380.183 203.221 384.426C208.093 388.113 211.918 392.58 214.694 397.825C217.471 403.071 219.272 409.171 220.098 416.127C220.933 423.165 220.618 429.58 219.151 435.372C217.679 441.122 215.007 446.359 211.133 451.085C206.709 456.509 201.119 460.657 194.364 463.529C187.604 466.358 177.228 468.604 163.234 470.265L137.869 473.275L126.798 380.003Z" fill="#581518"/>
<path d="M233.852 392.387C229.901 393.005 227.065 394.944 225.344 398.203C223.623 401.462 223.176 405.74 224.005 411.039C224.83 416.314 226.56 420.241 229.194 422.819C231.828 425.397 235.121 426.376 239.072 425.758C243.046 425.137 245.893 423.197 247.614 419.938C249.335 416.678 249.783 412.411 248.958 407.135C248.129 401.837 246.398 397.9 243.764 395.322C241.129 392.744 237.826 391.766 233.852 392.387ZM232.382 382.992C240.464 381.728 247.157 383.05 252.46 386.958C257.763 390.866 261.052 396.895 262.326 405.044C263.598 413.171 262.305 419.905 258.449 425.246C254.592 430.587 248.623 433.889 240.542 435.154C232.482 436.414 225.79 435.092 220.464 431.187C215.161 427.279 211.874 421.262 210.603 413.135C209.328 404.986 210.619 398.241 214.475 392.9C218.354 387.555 224.323 384.253 232.382 382.992Z" fill="#581518"/>
<path d="M385.549 447.742C380.986 450.836 376.143 453.335 371.021 455.239C365.899 457.144 360.472 458.433 354.741 459.108C337.638 461.12 323.528 457.946 312.41 449.585C301.286 441.179 294.761 428.791 292.835 412.421C290.903 396.006 294.374 382.442 303.247 371.729C312.115 360.969 325.1 354.583 342.203 352.57C347.935 351.896 353.512 351.89 358.937 352.553C364.361 353.217 369.651 354.523 374.808 356.473L377.309 377.726C372.009 374.956 366.883 373.072 361.931 372.074C356.979 371.076 351.867 370.888 346.594 371.508C337.148 372.62 330.076 376.52 325.378 383.21C320.68 389.899 318.956 398.562 320.208 409.2C321.455 419.792 325.139 427.796 331.262 433.211C337.385 438.627 345.169 440.779 354.615 439.667C359.888 439.047 364.817 437.677 369.402 435.556C373.987 433.436 378.536 430.414 383.048 426.489L385.549 447.742Z" fill="#581518"/>
<path d="M380.662 370.218L420.81 365.442L422.147 376.687L396.876 379.693L398.154 390.435L421.918 387.608L423.256 398.853L399.492 401.679L401.063 414.894L427.184 411.787L428.522 423.032L387.524 427.908L380.662 370.218Z" fill="#581518"/>
<path d="M464.914 393.599L441.365 395.743L438.618 406.722L423.479 408.1L439.794 347.727L457.749 346.092L484.699 402.526L469.56 403.905L464.914 393.599ZM444.134 384.566L460.133 383.109L450.038 360.599L444.134 384.566Z" fill="#581518"/>
<path d="M501.867 380.536C506.553 380.836 509.959 380.179 512.085 378.565C514.249 376.954 515.458 374.154 515.714 370.165C515.967 366.215 515.121 363.322 513.178 361.486C511.273 359.654 507.978 358.587 503.292 358.287L493.881 357.684L492.457 379.933L501.867 380.536ZM491.467 395.385L489.366 428.207L467.001 426.775L472.554 340.045L506.711 342.232C518.136 342.964 526.378 345.416 531.438 349.59C536.537 353.766 538.821 359.998 538.291 368.286C537.924 374.017 536.228 378.633 533.204 382.134C530.219 385.637 525.882 388.081 520.194 389.467C523.209 390.36 525.838 392.123 528.08 394.755C530.364 397.351 532.585 401.226 534.743 406.381L545.307 431.788L521.49 430.264L512.297 408.035C510.445 403.561 508.466 400.46 506.36 398.73C504.293 397.004 501.44 396.024 497.799 395.791L491.467 395.385Z" fill="#581518"/>
<path d="M598.982 416.739L569.395 419.581L566.009 433.399L546.989 435.226L567.12 359.235L589.679 357.068L623.908 427.837L604.887 429.664L598.982 416.739ZM572.805 405.514L592.907 403.583L580.076 375.351L572.805 405.514ZM577.785 338.072L591.694 336.736L578.933 351.056L569.3 351.982L577.785 338.072Z" fill="#581518"/>
<path d="M468.896 103.237C464.263 102.495 459.678 101.873 455.142 100.997C451.585 100.312 448.043 99.4605 444.575 98.4173C440.588 97.2183 438.672 94.351 439.045 90.1392C439.308 87.1649 439.757 84.1677 440.52 81.2855C442.402 74.1689 444.418 67.0834 446.579 60.0467C447.374 57.4607 448.65 55.009 449.845 52.5644C451.55 49.0776 454.342 47.0956 458.315 47.2275C465.294 47.4604 472.315 47.4086 479.241 48.1747C490.251 49.3909 501.201 51.1581 512.169 52.7448C514.686 53.1086 517.191 53.6037 519.667 54.1877C521.157 54.5395 522.627 55.074 524.024 55.7081C528.147 57.579 530.085 60.944 529.692 65.3502C529.329 69.4081 528.594 73.4449 527.812 77.4504C526.4 84.6808 524.072 91.6655 521.817 98.6647C521.344 100.132 521.031 101.652 520.675 103.154C519.8 106.845 518.054 108.623 514.273 108.658C510.57 108.69 506.813 108.425 503.171 107.775C500.388 107.279 498.107 107.62 495.741 109.124C489.604 113.024 483.38 116.788 477.162 120.557C476.248 121.11 475.2 121.539 474.159 121.763C472.589 122.1 471.487 121.345 471.182 119.747C470.927 118.415 470.937 117.035 470.783 115.681C470.405 112.343 470.023 109.004 469.586 105.673C469.482 104.884 469.154 104.125 468.896 103.237H468.896ZM474.301 118.225C474.933 117.921 475.425 117.732 475.871 117.466C482.419 113.542 488.962 109.608 495.504 105.674C495.813 105.487 496.227 105.343 496.386 105.063C497.253 103.538 498.591 103.707 499.97 103.978C501.662 104.309 503.337 104.765 505.043 104.97C507.926 105.317 510.824 105.681 513.72 105.716C516.412 105.748 517.26 104.973 517.915 102.365C518.996 98.0606 520.911 94.0341 521.679 89.5995C522.562 84.5075 524.173 79.5459 525.22 74.4762C525.878 71.2872 526.181 68.0131 526.459 64.76C526.681 62.175 525.577 60.0631 523.188 58.9715C521.31 58.1136 519.314 57.3278 517.291 57.0045C506.704 55.3113 496.101 53.7156 485.488 52.2042C477.386 51.0501 469.232 50.3881 461.042 50.4525C454.617 50.5038 453.815 51.094 451.331 57.073C448.005 65.0818 445.896 73.4604 443.934 81.876C443.337 84.438 442.876 87.043 442.528 89.6507C442.12 92.7152 443.132 94.342 446.031 95.2532C448.367 95.9863 450.758 96.5932 453.162 97.0534C458.25 98.0267 463.361 98.8765 468.466 99.7583C470.22 100.059 471.447 100.731 471.762 102.764C472.193 105.538 473.011 108.251 473.487 111.02C473.883 113.33 474.024 115.684 474.301 118.225" fill="#581518"/>
<path d="M499.55 35.1814C498.945 37.2723 498.363 39.3706 497.723 41.4511C497.513 42.135 497.309 42.9628 496.813 43.378C496.273 43.8297 495.292 44.2029 494.692 44.0121C494.094 43.8214 493.509 42.9518 493.329 42.2698C493.161 41.6409 493.5 40.8574 493.679 40.1579C494.918 35.3308 496.173 30.5078 497.429 25.6852C497.543 25.2464 497.665 24.8063 497.838 24.3882C498.493 22.7898 499.51 22.1269 500.682 22.503C501.74 22.8412 502.234 23.8559 501.99 25.4287C501.767 26.8612 501.505 28.2931 501.15 29.6975C500.683 31.5426 500.108 33.3612 499.579 35.1908C499.57 35.1879 499.561 35.1908 499.552 35.1908" fill="#581518"/>
<path d="M485.127 40.1266C484.52 40.4807 483.829 41.1791 483.075 41.2551C481.8 41.3845 481.059 40.4659 481.009 39.2228C480.917 36.958 480.926 34.6876 480.926 32.4189C480.925 31.7865 480.945 31.1419 481.068 30.5233C481.365 28.9925 482.184 28.2372 483.369 28.3077C484.562 28.3792 485.363 29.2235 485.362 30.7782C485.361 33.7745 485.221 36.7691 485.128 40.1266" fill="#581518"/>
<path d="M469.494 42.0441C468.873 41.4449 468.333 41.0798 468.003 40.5786C466.806 38.7564 465.639 36.911 464.549 35.0238C464.204 34.4263 463.982 33.6679 463.979 32.9814C463.973 31.9108 464.533 30.8631 465.611 30.7725C466.347 30.7111 467.456 31.1968 467.861 31.7992C469.277 33.9047 470.554 36.121 471.675 38.3978C472.008 39.0743 471.907 40.2274 471.536 40.9068C471.228 41.4713 470.234 41.6618 469.494 42.0441Z" fill="#581518"/>
<path d="M514.84 38.6518C513.675 40.6192 512.488 42.7482 511.172 44.7941C510.442 45.9298 509.275 46.1765 508.379 45.6229C507.473 45.0609 507.324 44.0472 508.026 42.7961C509.173 40.7521 510.295 38.6897 511.539 36.7052C512.31 35.4732 513.324 35.2468 514.256 35.8965C515.219 36.5684 515.37 37.4712 514.84 38.6518" fill="#581518"/>
<path d="M519.157 47.831C517.93 47.5659 517.164 46.3898 517.826 45.5742C519.282 43.7831 520.942 42.1424 522.658 40.5951C522.961 40.3202 524.148 40.5951 524.553 40.9883C524.971 41.399 525.296 42.6052 525.035 42.8913C523.481 44.5971 521.759 46.1543 520.048 47.7126C519.836 47.9067 519.36 47.8096 519.157 47.8323" fill="#581518"/>
<path d="M481.548 71.1268C486.036 68.245 490.267 65.4592 494.58 62.8057C495.629 62.1606 496.919 61.7269 498.145 61.5811C501.345 61.1989 503.628 63.6785 503.011 66.8316C502.771 68.0526 502.311 69.3082 501.645 70.3504C500.281 72.4872 498.786 74.5522 497.205 76.5347C493.812 80.7879 490.344 84.9816 486.875 89.1734C485.893 90.3595 484.881 91.5391 483.749 92.5758C481.306 94.8106 478.636 95.0534 476.142 92.9076C474.174 91.2145 472.39 89.2071 470.908 87.0725C468.582 83.7248 466.85 80.0436 465.621 76.1105C463.811 70.311 467.321 66.235 473.307 67.4603C474.801 67.7674 476.261 68.3494 477.658 68.9791C479.054 69.6081 480.352 70.4559 481.548 71.1268Z" fill="#581518"/>
<path d="M337.967 125.885C331.825 125.885 326.94 128.174 323.311 132.752C319.709 137.33 317.909 143.57 317.909 151.47C317.909 159.343 319.709 165.568 323.311 170.146C326.94 174.725 331.825 177.014 337.967 177.014C344.108 177.014 348.966 174.725 352.539 170.146C356.14 165.568 357.941 159.343 357.941 151.47C357.941 143.57 356.14 137.33 352.539 132.752C348.966 128.174 344.108 125.885 337.967 125.885ZM337.967 119.017C346.732 119.017 353.739 121.962 358.988 127.853C364.236 133.715 366.86 141.588 366.86 151.47C366.86 161.325 364.236 169.197 358.988 175.087C353.739 180.95 346.732 183.881 337.967 183.881C329.173 183.881 322.138 180.95 316.862 175.087C311.614 169.225 308.989 161.353 308.989 151.47C308.989 141.588 311.614 133.715 316.862 127.853C322.138 121.962 329.173 119.017 337.967 119.017Z" fill="#581518"/>
<path d="M442.314 143.556C444.212 140.653 446.46 138.447 449.056 136.94C451.68 135.404 454.555 134.637 457.682 134.637C463.07 134.637 467.174 136.298 469.993 139.62C472.813 142.942 474.222 147.771 474.222 154.108V182.667H459.148V158.212C459.178 157.849 459.193 157.472 459.193 157.081C459.224 156.691 459.239 156.132 459.239 155.406C459.239 152.084 458.751 149.684 457.774 148.204C456.797 146.697 455.219 145.943 453.042 145.943C450.194 145.943 447.989 147.115 446.426 149.46C444.89 151.805 444.095 155.197 444.039 159.636V182.667H428.964V158.212C428.964 153.02 428.517 149.684 427.624 148.204C426.731 146.697 425.139 145.943 422.85 145.943C419.975 145.943 417.755 147.129 416.192 149.502C414.629 151.847 413.847 155.211 413.847 159.594V182.667H398.764V135.767H413.839V142.635C415.682 139.983 417.789 137.987 420.162 136.647C422.563 135.307 425.201 134.637 428.077 134.637C431.315 134.637 434.176 135.418 436.661 136.982C439.146 138.545 441.03 140.736 442.314 143.556Z" fill="#581518"/>
<path d="M501.683 161.562C498.557 161.562 496.198 162.092 494.607 163.153C493.043 164.214 492.262 165.777 492.262 167.843C492.262 169.742 492.89 171.235 494.146 172.324C495.43 173.385 497.203 173.915 499.464 173.915C502.284 173.915 504.657 172.91 506.583 170.9C508.509 168.862 509.472 166.322 509.472 163.279V161.562H501.683ZM524.589 155.909V182.667H509.472V175.716C507.462 178.563 505.201 180.643 502.688 181.955C500.176 183.239 497.119 183.881 493.518 183.881C488.66 183.881 484.71 182.471 481.667 179.652C478.652 176.804 477.145 173.119 477.145 168.597C477.145 163.097 479.029 159.063 482.798 156.495C486.595 153.927 492.541 152.643 500.637 152.643H509.472V151.47C509.472 149.097 508.537 147.367 506.667 146.278C504.796 145.161 501.879 144.603 497.915 144.603C494.704 144.603 491.717 144.924 488.954 145.566C486.19 146.208 483.622 147.171 481.249 148.455V137.023C484.459 136.242 487.683 135.656 490.922 135.265C494.16 134.846 497.398 134.637 500.637 134.637C509.095 134.637 515.195 136.312 518.936 139.662C522.705 142.984 524.589 148.399 524.589 155.909Z" fill="#581518"/>
<path d="M532.032 135.767H547.023V182.667H532.032V135.767ZM532.032 117.51H547.023V129.737H532.032V117.51Z" fill="#581518"/>
<path d="M580.251 145.356C576.929 145.356 574.388 146.557 572.629 148.958C570.899 151.331 570.033 154.764 570.033 159.259C570.033 163.753 570.899 167.201 572.629 169.602C574.388 171.975 576.929 173.161 580.251 173.161C583.517 173.161 586.015 171.975 587.746 169.602C589.477 167.201 590.342 163.753 590.342 159.259C590.342 154.764 589.477 151.331 587.746 148.958C586.015 146.557 583.517 145.356 580.251 145.356ZM580.251 134.637C588.318 134.637 594.614 136.814 599.136 141.169C603.686 145.524 605.962 151.554 605.962 159.259C605.962 166.964 603.686 172.994 599.136 177.349C594.614 181.704 588.318 183.881 580.251 183.881C572.155 183.881 565.818 181.704 561.24 177.349C556.689 172.994 554.414 166.964 554.414 159.259C554.414 151.554 556.689 145.524 561.24 141.169C565.818 136.814 572.155 134.637 580.251 134.637Z" fill="#581518"/>
<path d="M645.685 148.539C644.373 147.925 643.061 147.478 641.749 147.199C640.464 146.892 639.166 146.738 637.854 146.738C634.002 146.738 631.029 147.981 628.935 150.465C626.869 152.922 625.836 156.453 625.836 161.06V182.667H610.845V135.767H625.836V143.472C627.762 140.401 629.968 138.168 632.452 136.772C634.965 135.348 637.966 134.637 641.455 134.637C641.958 134.637 642.502 134.664 643.089 134.72C643.675 134.748 644.526 134.832 645.643 134.971L645.685 148.539Z" fill="#581518"/>
<path d="M712.606 235.389C732.052 235.217 738.529 242.207 735.143 256.445C730.615 275.486 724.829 294.244 719.178 313.002C713.077 333.258 706.339 353.324 700.226 373.578C697.77 381.711 696.349 390.151 694.229 398.394C693.13 402.668 690.42 405.642 685.797 406.37C681.384 407.064 676.773 404.655 674.995 400.406C674.155 398.398 673.746 396.148 673.484 393.967C668.763 354.698 659.583 316.259 651.973 277.526C650.941 272.275 650.11 266.919 649.909 261.585C649.503 250.819 653.94 244.278 664.315 242.447C682.024 239.324 699.908 237.202 712.606 235.389Z" fill="#581518"/>
<path d="M701.741 472.138C701.294 487.93 689.846 499.513 677.406 499.557C666.638 499.594 655.506 488.065 654.384 475.711C653.128 461.857 660.177 450.501 672.267 446.908C682.834 443.767 692.062 447.047 697.03 456.945C699.781 462.427 700.75 468.802 701.741 472.138Z" fill="#581518"/>
<path fill-rule="evenodd" clip-rule="evenodd" d="M16.3956 268.009L22.5469 259.663L290.661 261.577L282.105 267.018L16.3956 268.009Z" fill="#7C382F"/>
<path fill-rule="evenodd" clip-rule="evenodd" d="M266.82 134.439L287.647 261.557L292.723 261.158L271.403 128.518L266.104 132.584L266.82 134.439Z" fill="#7C382F"/>
<path d="M168.728 106.791C168.874 108.445 169.034 110.085 169.192 111.72C169.273 112.554 168.771 113.256 167.919 113.531C165.499 114.291 160.341 115.381 156.512 112.392C156.512 112.392 156.003 109.243 161.249 107.81C163.73 107.472 166.23 107.143 168.728 106.791Z" fill="#7C382F"/>
<path d="M161.249 107.81C161.841 107.732 162.446 107.642 163.052 107.564C162.163 108.146 161.244 108.666 160.309 109.154C159.26 109.704 158.301 110.384 158.885 111.668C159.378 112.756 160.586 113.632 161.669 114.323C159.921 114.171 158.118 113.643 156.512 112.393C156.512 112.393 156.003 109.243 161.249 107.811" fill="#7C382F"/>
<path d="M169.336 78.1828C169.336 78.1828 166.355 101.67 163.847 104.627C163.27 104.676 161.525 104.931 160.209 106.223C159.245 107.183 158.994 108.242 158.905 108.775C159.904 108.943 161.063 109.06 162.323 109.027C164.394 108.969 167.186 108.561 170.056 107.113C169.901 106.726 169.727 106.332 169.569 105.934C169 104.534 169.037 103.079 169.662 101.855C171.739 97.8113 176.479 88.0156 178.085 80.1738C175.17 79.5112 172.253 78.8419 169.336 78.1838L169.336 78.1828Z" stroke="#7C382F" stroke-width="0.105798" stroke-miterlimit="22.9256"/>
<path d="M157.244 77.3196C161.527 74.04 165.837 70.7362 170.207 67.4117C174.512 72.9445 178.818 78.4737 183.131 83.9851C183.131 83.9851 180.403 85.6369 176.027 85.8231C175.819 86.5876 175.435 87.5088 174.791 88.1933C174.162 88.8462 172.881 88.4941 172.592 87.5948C172.414 87.0282 172.232 86.3327 172.17 85.6003C171.374 85.4774 170.546 85.3093 169.683 85.0678C169.4 85.6708 168.98 86.2988 168.394 86.7893C167.704 87.3659 166.451 86.9316 166.262 86.01C166.109 85.3475 166 84.5381 166.067 83.6857C165.445 83.4044 164.836 83.0768 164.211 82.713C163.836 83.2785 163.342 83.8632 162.712 84.2904C161.946 84.7929 160.73 84.2317 160.647 83.3215C160.562 82.5141 160.578 81.4839 160.879 80.4782C159.698 79.5754 158.466 78.5277 157.244 77.3196" fill="#7C382F"/>
<path d="M170.283 77.5494C167.157 77.6301 164.116 78.009 160.989 78.0125C160.044 78.0125 158.963 78.0547 157.895 77.9511C157.677 77.741 157.462 77.5304 157.244 77.3196C161.527 74.04 165.837 70.7362 170.207 67.4117C173.055 71.0793 175.91 74.754 178.772 78.4132C175.945 77.7998 173.11 77.4919 170.283 77.5494" fill="#7C382F"/>
<path d="M157.246 77.3974C157.849 76.9253 158.481 76.4542 159.113 75.9701C167.977 87.4728 181.549 82.8807 182.086 82.7403C182.426 83.1875 182.781 83.6487 183.134 84.0868C183.134 84.0868 180.404 85.7256 176.03 85.9219C175.822 86.6873 175.437 87.6002 174.792 88.2812C174.163 88.9356 172.883 88.5851 172.593 87.6865C172.416 87.13 172.234 86.4324 172.172 85.7C171.375 85.5804 170.547 85.3993 169.686 85.1565C169.402 85.7496 168.982 86.3995 168.396 86.8787C167.707 87.4663 166.453 87.0081 166.263 86.1088C166.112 85.4472 166.002 84.6378 166.07 83.7844C165.446 83.4934 164.838 83.1755 164.213 82.8027C163.84 83.3673 163.345 83.9529 162.712 84.3791C161.947 84.8815 160.733 84.3213 160.65 83.4232C160.565 82.6149 160.579 81.5716 160.882 80.577C159.701 79.6741 158.469 78.6164 157.246 77.3973" fill="#7C382F"/>
<path d="M103.451 99.7013C103.641 101.323 103.832 102.91 104.038 104.511C104.142 105.321 103.692 106.017 102.925 106.275C100.638 107.036 95.8391 108.116 92.1434 105.204C92.1434 105.204 91.5768 102.141 96.4551 100.731C98.7707 100.393 101.116 100.051 103.451 99.7013Z" fill="#7C382F"/>
<path d="M96.4553 100.731C98.7709 100.393 101.117 100.051 103.451 99.7013C103.454 99.7792 103.461 99.8533 103.477 99.931C101.862 100.164 100.249 100.399 98.6368 100.622C93.7256 102.037 94.3076 105.124 94.3076 105.124C96.0059 106.441 97.92 106.935 99.7081 107.005C97.3809 107.297 94.5266 107.083 92.1434 105.203C92.1434 105.203 91.5768 102.141 96.4551 100.73" fill="#7C382F"/>
<path d="M114.788 103.275C114.971 104.869 115.152 106.453 115.349 108.039C115.447 108.834 114.994 109.519 114.195 109.778C111.906 110.528 107.026 111.561 103.324 108.698C103.324 108.698 102.772 105.654 107.701 104.265C110.063 103.939 112.425 103.61 114.788 103.275Z" fill="#7C382F"/>
<path d="M107.745 105.092C110.104 104.756 112.464 104.419 114.829 104.093C114.832 104.158 114.836 104.235 114.855 104.303C113.212 104.533 111.584 104.768 109.956 104.991C104.998 106.399 105.574 109.457 105.574 109.457C107.251 110.784 109.178 111.285 111.007 111.36C108.651 111.645 105.769 111.418 103.374 109.558C103.374 109.558 102.82 106.491 107.746 105.093" fill="#7C382F"/>
<path d="M97.1802 69.5915C97.1802 69.5915 96.4494 80.3508 101.372 86.515C101.372 86.515 101.349 92.7682 99.3965 97.1029C98.3304 97.0708 95.3403 98.8656 95.684 100.939C95.684 100.939 102.586 102.565 106.886 100.874C106.886 100.874 104.554 97.1397 105.054 92.3979C105.054 92.3979 107.541 70.016 112.729 68.3979C112.729 68.3979 104.924 64.5702 97.1802 69.5924V69.5915Z" stroke="#7C382F" stroke-width="0.105798" stroke-miterlimit="22.9256"/>
<path d="M171.091 30.5532C162.842 31.987 155.661 31.7568 148.468 30.6631C141.303 29.5724 134.085 27.6235 125.752 25.5925C115.373 23.0479 108.363 21.8663 102.532 21.0256C96.733 20.1878 92.0206 19.65 86.255 18.4381C80.9505 17.3124 70.0804 22.1907 65.0876 23.0056C68.6359 30.7217 72.1712 38.3857 75.7011 46.0255C75.7011 46.0255 76.5994 56.1607 82.5602 64.5772C88.5092 72.9772 99.5983 79.8021 120.511 73.4593C120.511 73.4593 126.573 77.904 136.028 79.8106C145.536 81.7291 158.603 81.1241 172.714 70.7341C172.714 70.7341 175.89 60.2671 177.296 49.956C178.72 39.5194 178.344 29.2947 171.091 30.5548" fill="#F7AD3D"/>
<path d="M92.3544 68.3513C93.8348 69.0093 95.3611 69.4566 96.91 69.7472C98.0291 71.8022 99.2043 73.872 100.372 75.8775C97.8688 75.4814 95.3921 74.7684 92.9954 73.6438C87.0629 70.858 82.7612 65.8358 80.0239 60.3959C78.2063 56.7826 76.9753 52.9501 76.2568 49.1425C76.9287 50.6254 78.045 52.6917 79.8674 55.6706C82.9297 60.6937 86.7712 65.8487 92.3544 68.3513ZM116.561 68.4228C116.849 68.4228 117.15 68.4548 117.466 68.4613C124.977 68.9408 128.809 73.7961 144.429 74.5981C155.043 75.1701 164.185 69.1093 169.267 72.4111L169.737 72.9913C156.521 81.5523 144.239 81.6982 135.292 79.7522C126.373 77.81 120.629 73.7528 120.629 73.7528C119.027 74.2398 117.356 74.6915 115.64 75.0737C115.97 71.9756 116.355 69.5879 116.561 68.4218" fill="#7C382F"/>
<path d="M74.7257 42.9663C75.0639 43.7117 75.1567 44.1809 75.1822 44.5915C74.9539 43.8736 74.7221 43.1477 74.4637 42.4237C74.5508 42.6112 74.6387 42.7895 74.7257 42.9664" fill="#B3A59E"/>
<path d="M189.677 111.428C189.805 113.076 189.935 114.722 190.094 116.358C190.151 117.186 189.646 117.895 188.775 118.157C186.303 118.921 181.046 119.974 177.172 116.998C177.172 116.998 176.676 113.845 182.039 112.421C184.585 112.094 187.115 111.758 189.677 111.428Z" fill="#7C382F"/>
<path d="M182.156 113.018C182.746 112.937 183.337 112.853 183.944 112.776C183.107 113.154 182.328 113.608 181.645 114.226C181.223 114.615 180.817 115.022 180.426 115.437C180.265 115.618 180.075 115.8 179.918 115.982C179.744 116.156 179.362 116.403 179.28 116.617C179.14 116.937 179.399 117.438 179.627 117.753C180.161 118.532 181.104 119.085 182.041 119.504C180.412 119.287 178.745 118.741 177.302 117.602C177.302 117.602 176.792 114.44 182.156 113.018" fill="#262321"/>
<path d="M190.552 38.7059C192.797 39.341 194.819 40.4692 196.444 41.9056C198.066 43.33 199.279 45.0551 199.895 46.8307C200.512 48.6474 200.562 50.5743 200.37 52.5614C200.258 53.5331 200.102 54.5284 199.899 55.5415C199.698 56.5717 199.48 57.5929 199.263 58.6157C198.387 62.768 197.71 67.0083 197.611 71.3585C197.578 72.4411 197.621 73.5292 197.68 74.6199C197.716 75.1661 197.752 75.708 197.82 76.2571C197.887 76.8068 197.94 77.3533 198.035 77.9024C198.379 80.0812 198.961 82.2617 199.844 84.382C200.368 84.3105 200.921 84.2364 201.462 84.1523C200.606 80.0139 200.578 75.9175 201.047 71.8668C201.253 69.8383 201.625 67.8108 202.014 65.7888C202.417 63.752 202.883 61.7219 203.349 59.6776C203.597 58.6593 203.846 57.6152 204.064 56.5584C204.284 55.4897 204.486 54.3841 204.596 53.2365C204.694 52.1018 204.697 50.9018 204.58 49.6882C204.43 48.4776 204.143 47.219 203.612 46.009C202.565 43.5398 200.677 41.3875 198.376 39.8402C196.075 38.2854 193.349 37.2976 190.683 37.2048C190.643 37.7083 190.589 38.214 190.551 38.7055" fill="#73302E"/>
<path d="M203.433 85.6221C206.034 89.3408 206.606 91.1439 207.219 96.5997C207.667 100.546 205.517 103.94 203.524 105.646C204.708 103.457 204.011 100.657 202.749 98.2304C201.526 95.7948 199.765 93.5041 198.717 91.0029C197.884 89 197.355 86.1712 198.688 84.448C199.946 82.7963 202.169 83.8274 203.434 85.6221" fill="#7C382F"/>
<path d="M157.337 50.7577C152.442 33.2666 175.156 22.4403 190.428 35.5188C190.629 35.6902 190.815 35.8541 191.019 36.0365C191.019 36.0365 195.067 39.6417 196.863 46.0689C198.648 52.4708 198.145 61.5929 189.228 72.5106C189.228 72.5106 190.391 82.3845 191.592 85.4057C192.005 85.875 192.447 86.3344 192.875 86.8046C194.442 88.4919 194.654 90.7451 193.432 92.3364C189.004 98.1321 189.629 100.953 190.2 112.592C190.2 112.592 184.94 116.229 179.345 114.018C180.008 113.128 180.687 112.24 181.366 111.34C182.479 110.555 183.779 109.406 183.77 108.058C183.753 102.439 183.744 96.793 183.744 91.1063C183.744 91.1063 180.061 87.2948 179.137 83.027C179.137 83.027 174.895 79.2735 170.065 73.3915C165.243 67.5208 159.774 59.4397 157.338 50.7577H157.337Z" fill="#F7AD3D" stroke="#7C382F" stroke-width="0.105798" stroke-miterlimit="22.9256"/>
<path d="M157.121 50.6724C159.509 53.3508 160.175 57.085 158.772 59.8935C157.998 61.3922 156.523 62.6929 154.588 62.6883C153.242 62.6912 151.922 62.0722 150.647 61.4747C148.419 60.4125 146.189 59.3538 143.944 58.2986C142.665 57.681 141.339 57.032 140.438 56.0089C138.761 54.1014 139.096 51.3343 140.693 49.7282C144.479 45.8986 152.947 45.9811 157.121 50.6724Z" fill="#7C382F"/>
<path d="M181.077 54.9641C180.11 56.0043 178.537 56.4169 177.166 57.041C175.8 57.6635 174.503 58.7138 174.61 60.1427C174.775 62.1806 177.543 63.4306 178.807 65.2593C179.477 66.2135 179.726 67.3327 180.26 68.3468C180.822 69.3486 181.9 70.3448 183.106 70.2963C184.222 70.2541 184.933 69.3191 185.127 68.3694C185.322 67.408 185.137 66.3833 185.226 65.4042C185.435 63.4666 186.712 61.8708 187.884 60.297C189.056 58.7222 190.2 56.9721 190.064 54.9815C189.928 53.1124 187.587 50.3312 185.238 50.2811C182.663 50.2261 182.329 53.6541 181.077 54.9641Z" fill="#7C382F"/>
<path d="M109.514 63.3855C110.516 64.7689 110.647 66.4426 110.455 67.954C110.245 69.4564 109.745 70.8637 109.612 72.3831C109.511 73.6077 109.541 75.0771 108.419 75.6656C107.108 76.3515 105.237 75.2258 104.094 74.0129C102.501 72.2897 101.385 70.1953 100.997 68.0798C100.686 66.528 100.793 64.9148 101.582 63.6792C103.056 61.4444 107.356 60.4022 109.514 63.3849" fill="#7C382F"/>
<path d="M170.684 38.1393C173.442 40.2987 177.767 41.748 178.152 44.8701C178.537 48.1396 174.044 49.5731 172.538 52.3763C171.838 53.6879 171.637 55.4826 170.117 56.0207C168.656 56.5229 166.854 55.4651 165.909 54.183C164.966 52.9225 164.547 51.4182 163.737 50.1002C160.95 45.6355 154.63 44.2567 149.233 43.7315C143.881 43.1861 137.843 42.6434 134.082 38.8148C131.185 35.8486 130.537 31.5743 131.573 28.0629C131.666 27.7283 131.776 27.4185 131.905 27.1087C144.392 30.2104 154.719 32.5855 167.267 31.1051C167.241 33.6687 168.423 36.3682 170.684 38.1393" fill="#7C382F"/>
<path d="M127.873 38.1119C127.264 39.5658 126.158 40.791 125.659 42.2742C124.669 45.3539 126.457 48.7977 127.688 52.0443C128.9 55.2922 129.354 59.2133 126.456 61.0678C124.459 62.3334 121.314 62.1585 118.874 60.9061C116.462 59.6631 114.74 57.4862 114.029 55.2663C113.46 53.5641 113.434 51.7986 112.656 50.1229C111.906 48.4482 110.049 46.7793 108.018 46.8378C106.017 46.8864 104.889 48.517 104.487 50.0983C104.088 51.6896 104.076 53.4468 103.058 54.7538C101.756 56.3955 99.0374 56.8996 96.5064 56.4495C93.9904 55.9913 91.6382 54.7263 89.5308 53.3019C85.7307 50.7215 82.1439 46.8388 82.9908 43.2062C83.6848 40.2264 87.1606 38.4323 87.8785 35.4441C89.0452 30.4934 82.3108 25.299 82.6445 20.1119C82.6821 19.4923 82.8453 18.8993 83.0707 18.3466C84.2604 18.227 85.352 18.2431 86.2549 18.4373C88.3512 18.8674 90.3066 19.2238 92.1973 19.5345C91.2945 24.2818 98.8062 29.7092 103.602 30.2288C104.817 30.3517 106.082 30.2875 107.014 29.6943C108.704 28.6075 108.618 26.0335 107.422 24.1955C106.89 23.3616 105.881 22.2469 104.791 21.3616C109.307 22.048 114.571 22.9903 121.504 24.5787C121.962 24.9059 122.423 25.2581 122.855 25.6199C126.938 28.9997 129.569 34.0694 127.873 38.1128" fill="#7C382F"/>
<path d="M194.82 51.1179C194.317 49.9499 194.178 48.7078 193.811 47.5027C192.947 44.6609 190.845 42.0184 188.08 40.2567C186.008 38.9497 183.652 38.1604 181.367 37.221C179.112 36.2952 176.807 35.1686 175.206 33.4131C174.279 32.4012 173.637 31.1243 173.486 29.8807C179.176 29.3507 185.458 30.9823 190.782 35.5463C190.983 35.7177 191.17 35.8826 191.371 36.064C191.371 36.064 198.887 42.7269 197.995 53.9997C197.842 53.9676 197.704 53.941 197.552 53.8962C196.237 53.447 195.325 52.2994 194.82 51.1182" fill="#7C382F"/>
<path d="M83.0224 18.7839C83.7693 20.4412 87.6979 29.4087 83.5052 37.8142C81.2652 42.3193 77.6225 44.828 75.6341 45.9235C74.4865 43.4741 73.0566 40.4567 71.7211 37.1203C69.7082 32.1411 68.3316 25.6891 69.4683 20.1654C73.9578 19.7137 78.4804 19.259 83.0224 18.7839Z" fill="#D4852C"/>
<path d="M58.2791 0.310429C58.3938 1.24365 58.6448 2.15556 59.0051 3.07326C59.3663 3.9897 59.8622 4.88697 60.4789 5.74776C60.7716 6.17491 61.1408 6.58108 61.5092 6.98886C61.8923 7.37851 62.2904 7.77814 62.7286 8.10799C63.5965 8.8488 64.5918 9.40792 65.6285 9.92498C66.6781 10.4353 67.8423 10.1125 68.239 9.17866C68.6526 8.24478 68.141 7.06421 67.1024 6.54521C66.9119 6.45446 66.7056 6.38027 66.5178 6.34471C66.4857 6.34374 66.4719 6.3431 66.4545 6.34471C65.7224 6.20887 64.9551 6.04075 64.2366 5.6928C63.8579 5.56025 63.5178 5.33745 63.1485 5.14019C62.8112 4.9235 62.44 4.69849 62.1273 4.42268C61.4718 3.89718 60.8422 3.27119 60.2957 2.56464C59.767 1.85875 59.2765 1.05837 58.9256 0.270987C58.9091 0.269365 58.9091 0.27097 58.9091 0.238888C58.8496 0.0610634 58.6404 -0.0456021 58.4755 0.0190197C58.339 0.0511014 58.2721 0.187099 58.2802 0.313226" fill="#7C382F" fill-opacity="0.83"/>
<path d="M62.7621 6.18784C63.9301 7.01537 65.2271 7.7112 66.5701 8.18687C67.1052 8.37441 67.6743 8.57364 68.2519 8.68556C68.2289 8.81489 68.1914 8.92808 68.1539 9.05319C67.7387 9.97704 66.5626 10.3107 65.5259 9.79105C64.5047 9.27298 63.4965 8.71494 62.6441 7.98253C62.1729 7.65337 61.8034 7.23168 61.3927 6.8643C61.0389 6.44816 60.6705 6.04942 60.3783 5.61384C59.7448 4.7534 59.2617 3.84666 58.9041 2.94933C58.6567 2.30486 58.4708 1.66428 58.3165 1.01625C59.3422 3.02273 60.8776 4.84751 62.7621 6.18784Z" fill="#7C382F" fill-opacity="0.83"/>
<path d="M77.3759 35.9247C77.3759 35.9247 75.5163 38.1844 73.2851 38.4437C66.9888 39.1771 64.5927 37.297 64.5927 37.297C64.5927 37.297 62.138 36.3234 62.0711 33.9117C67.1528 34.5827 72.2484 35.2466 77.3759 35.9247Z" fill="#F7AD3D" fill-opacity="0.83"/>
<path d="M76.8689 34.4608C76.8689 34.4608 75.0063 36.7104 72.7751 36.9817C66.4769 37.7177 64.0792 35.8406 64.0792 35.8406C64.0792 35.8406 61.6362 34.8669 61.5676 32.4443C66.6383 33.1143 71.7384 33.7862 76.8689 34.4608Z" fill="#F7AD3D" fill-opacity="0.83"/>
<path d="M65.338 11.5068C65.338 11.5068 66.1271 14.8928 64.3838 16.2632C64.3838 16.2632 61.4635 17.8975 57.7723 16.053C54.0763 14.215 52.3016 7.82726 53.0066 7.40009C59.4021 4.49143 62.7835 13.1858 65.338 11.5056" fill="#7C382F" fill-opacity="0.83"/>
<path d="M60.216 15.7087C61.7109 15.8154 62.8007 15.3724 63.0823 15.2312C63.6744 14.6995 63.8164 13.6832 63.7844 12.8069C62.6028 12.5967 61.5376 11.6703 60.4224 10.6985C59.0089 9.46103 57.3992 8.07509 55.5421 7.94606C54.8757 7.90115 54.2232 8.00105 53.5192 8.26293C53.6217 9.60942 55.1625 13.7647 57.678 14.9928C58.4919 15.4145 59.3692 15.6453 60.2161 15.7078" fill="#7C382F" fill-opacity="0.83"/>
<path d="M71.8942 4.6526C71.8942 4.6526 83.1356 3.92563 84.9862 17.797C84.9862 17.797 89.4493 38.5602 74.161 36.77C73.9146 36.7379 73.6514 36.6665 73.4185 36.5954C71.8192 36.1013 65.1734 34.1294 62.2486 35.1276C62.2486 35.1276 58.8921 30.6216 62.8865 27.0468C62.8865 27.0468 63.7444 23.4565 62.2247 19.5499C60.6867 15.6486 62.3201 13.4012 63.4896 12.3105C63.4896 12.3105 64.3494 4.68587 71.8942 4.65386" fill="#F7AD3D" fill-opacity="0.83"/>
<path d="M72.088 29.9533C72.2558 31.077 72.3402 33.6619 70.2079 35.011C69.7002 35.3437 69.0539 35.4621 68.3657 35.3962C67.3096 35.2992 66.2539 35.2054 65.2281 35.0986C63.9091 34.9628 62.6772 34.1108 62.1656 32.9079C61.6724 31.7832 61.2317 30.3139 61.3497 28.7905C61.3854 28.4513 61.6119 28.1919 61.9373 28.0684C63.2462 27.6163 67.0732 26.6805 71.4509 29.0811C71.8002 29.2784 72.034 29.5963 72.088 29.9529" fill="#7E3A30" fill-opacity="0.83"/>
<path d="M64.6743 20.5935C65.1287 23.357 64.2462 25.9959 62.2727 27.658C62.4586 27.4608 62.6559 27.2418 62.8868 27.0455C62.8868 27.0455 63.4432 23.5293 61.9251 19.6328C60.4017 15.7226 62.036 13.4724 63.202 12.3713C63.202 12.3713 64.0095 7.69186 67.7935 5.63043C66.0538 7.64983 63.3323 12.2649 64.6743 20.5934" fill="#7C382F" fill-opacity="0.83"/>
<path d="M74.0339 13.6563C76.2981 10.6516 79.4228 9.6938 81.859 9.47391C82.8666 10.813 83.9444 12.5455 84.6914 14.7279C86.9326 13.6132 89.5635 9.17058 95.0852 12.2037C95.9166 12.7464 94.919 19.0461 91.2932 20.3615C89.1024 21.1735 87.0519 20.7218 85.7804 20.2419C86.3101 24.6727 86.5394 33.948 79.9573 36.3467C79.6337 36.4826 79.254 36.5182 78.8857 36.4729C73.6847 35.7799 74.7819 32.3875 72.1503 28.1411C70.2098 24.9757 69.7626 19.3229 74.0339 13.6563Z" fill="#7C382F" fill-opacity="0.83"/>
<path d="M88.1514 19.616C89.0297 19.6811 89.8966 19.5583 90.6933 19.2613C93.1286 18.3685 94.1747 14.3355 94.0958 12.9686C93.3359 12.6003 92.6329 12.4031 91.9519 12.3529C90.0185 12.2204 88.5511 13.4132 87.246 14.4655C86.2338 15.2998 85.2356 16.0816 84.087 16.1366C84.1732 17.0249 84.4363 18.0891 85.1202 18.7096C85.4218 18.8778 86.6261 19.505 88.1514 19.6159" fill="black" fill-opacity="0.83"/>
<path d="M76.9286 36.7698C75.833 36.9897 74.5544 36.5144 73.3444 36.1613C72.1163 35.7735 70.9017 35.3526 69.6451 35.0043C68.3766 34.6606 67.0922 34.3867 65.7926 34.2718C64.5082 34.1716 63.1656 34.3305 62.1783 34.9942C62.1069 35.0428 62.0986 35.1268 62.1618 35.1947C62.1958 35.2397 62.2588 35.2662 62.3028 35.2598C63.5284 35.166 64.6844 35.1727 65.8776 35.2598C67.0692 35.3469 68.2876 35.5908 69.5067 35.8732C70.7449 36.1836 71.9694 36.5312 73.2374 36.8235C73.8705 36.9787 74.5169 37.0985 75.1614 37.1812C75.8039 37.2362 76.4894 37.2912 77.0805 37.0261C77.1557 36.994 77.1804 36.9161 77.1438 36.8288C77.0961 36.771 77.0174 36.7444 76.942 36.7481C76.9292 36.7481 76.9292 36.7481 76.9292 36.7481" fill="#F7AD3D" fill-opacity="0.83"/>
<path d="M61.5384 28.4545C61.5925 28.7779 63.282 28.7391 66.2344 29.0815C69.1236 29.4234 71.8311 29.7305 71.8085 29.3952C71.7856 29.0625 69.3005 27.769 66.4167 27.5462C63.5313 27.3166 61.5009 28.1302 61.5384 28.4529" fill="#7E3A30" fill-opacity="0.83"/>
<path d="M61.3383 16.5894C62.4678 16.7317 63.4256 17.6776 63.5016 18.7592C63.563 19.6281 63.0459 20.323 62.2521 20.5629C61.9132 19.2274 61.3293 17.9508 61.3383 16.5894" fill="#6C3830" fill-opacity="0.83"/>
<path d="M61.3702 17.2415C62.1152 17.3611 62.7577 17.991 62.8092 18.7089C62.8486 19.255 62.5288 19.7117 62.0528 19.9015C61.6845 19.0617 61.4487 18.1204 61.3701 17.2415" fill="#6C3830" fill-opacity="0.83"/>
<path d="M61.4815 17.7281C61.9446 17.7602 62.3571 18.1948 62.3937 18.6979C62.4231 19.0846 62.1848 19.3963 61.8686 19.4918C61.509 19.1781 61.2471 18.0839 61.4349 17.7262C61.4514 17.7262 61.467 17.7272 61.4817 17.7282" fill="#6C3830" fill-opacity="0.83"/>
<path d="M61.8403 18.2307C61.9273 18.3695 62.0984 18.4308 62.2036 18.3792C62.3373 18.3215 62.3566 18.1628 62.2704 18.0305C62.1681 17.8852 62.0085 17.8206 61.8758 17.8755C61.7735 17.9405 61.7541 18.1015 61.8401 18.2307" fill="#EBEBEB" fill-opacity="0.83"/>
<path d="M70.1879 30.0081C69.9587 30.0081 69.7643 30.0924 69.5434 30.173C69.35 30.2537 69.1576 30.3347 68.9808 30.435C68.7901 30.5385 68.6167 30.6646 68.4408 30.7788C68.2665 30.892 68.0935 31.0181 67.9377 31.1858C67.8644 31.2372 67.8864 31.3313 67.9505 31.4025C67.9826 31.4346 68.0294 31.4511 68.0604 31.4538C68.3053 31.4859 68.5474 31.4538 68.7738 31.4538C69.0027 31.4538 69.2284 31.4153 69.4557 31.3796C69.6666 31.3438 69.8919 31.2952 70.1008 31.2373C70.2942 31.1695 70.5025 31.0983 70.6793 30.9851C70.9121 30.8428 70.9516 30.5139 70.7673 30.2746C70.617 30.0839 70.3815 29.9868 70.1863 30.0159" fill="#DBC4BA" fill-opacity="0.83"/>
<path d="M62.2313 30.2316C62.4237 30.3641 62.629 30.4676 62.8493 30.5681C63.0837 30.6488 63.303 30.7395 63.5202 30.8009C63.7566 30.8816 63.9749 30.9432 64.2048 30.995C64.4386 31.0436 64.6853 31.0953 64.9297 31.1146C65.0216 31.1146 65.094 31.0633 65.0876 30.9756C65.0843 30.9334 65.0646 30.8885 65.0326 30.8559C64.8537 30.6813 64.6594 30.5296 64.466 30.3757C64.2726 30.2205 64.0783 30.0783 63.8729 29.9566C63.6651 29.8241 63.4723 29.6915 63.2505 29.5764C63.0296 29.4761 62.8253 29.3855 62.5933 29.324C62.2826 29.2461 62.0178 29.3956 61.9764 29.6688C61.947 29.879 62.0525 30.0896 62.2312 30.2325" fill="#DBC4BA" fill-opacity="0.83"/>
<path d="M75.768 21.1424C75.8203 20.9937 75.856 20.8482 75.8764 20.6888C75.9167 20.3686 75.8796 20.0453 75.8113 19.709C75.759 19.3843 75.7819 19.0306 75.9287 18.6784C76.1954 18.0653 76.784 17.6576 77.5174 17.6136C78.9518 17.5133 80.2589 18.7557 80.1599 20.0993C80.0912 20.9446 79.4275 21.6036 78.5467 21.7116C78.2883 21.7437 78.0416 21.7116 77.7942 21.6759C77.4366 21.598 77.0974 21.54 76.7601 21.5368C76.5292 21.5368 76.3158 21.5339 76.101 21.5368C75.8877 21.5368 75.7033 21.3266 75.7683 21.1361" fill="#6C3830" fill-opacity="0.83"/>
<path d="M79.17 19.7052C79.1287 19.0791 78.5556 18.5365 77.9105 18.489C77.2469 18.4441 76.7564 18.9087 76.7968 19.5338C76.838 20.1472 77.3934 20.6834 78.0553 20.7319C78.7024 20.7768 79.2091 20.3193 79.17 19.7052Z" fill="#6C3830" fill-opacity="0.83"/>
<path d="M78.1947 18.8643C78.2075 19.0484 78.3849 19.1985 78.5698 19.2121C78.7694 19.2121 78.8992 19.0958 78.8867 18.915C78.8766 18.7439 78.7271 18.5809 78.5276 18.5682C78.3428 18.5682 78.1843 18.6942 78.1947 18.8654" fill="#DBC4BA" fill-opacity="0.83"/>
<path d="M85.4949 3.07673C85.5288 3.91003 85.472 4.76502 85.3044 5.55241C85.167 6.32787 84.9038 7.07871 84.5216 7.63522C84.1698 8.20077 83.6673 8.55549 83.1641 8.66253C82.681 8.8113 82.0375 8.63044 81.4124 8.49763C81.3501 8.49763 81.3034 8.46553 81.2566 8.46553C80.2538 8.2262 79.351 8.8074 79.2281 9.76907C79.1172 10.7149 79.8432 11.6882 80.8433 11.9294C81.0283 11.9652 81.2006 11.9743 81.3695 11.9743C81.6472 11.9734 81.936 11.9423 82.2283 11.9386C82.5051 11.9357 82.78 11.9065 83.0853 11.8383C83.3869 11.7604 83.6602 11.7058 83.9331 11.6152C84.2018 11.4827 84.4703 11.3533 84.74 11.2184C85.7317 10.5775 86.3203 9.59575 86.5851 8.62987C86.8664 7.66915 86.871 6.71138 86.7849 5.77816C86.6978 4.83134 86.5201 3.9366 86.2339 3.02568C86.1744 2.8187 85.9662 2.69456 85.7518 2.7249C85.5979 2.75698 85.4999 2.88978 85.4934 3.0512L85.495 3.0833" fill="#7C382F" fill-opacity="0.83"/>
<path d="M79.228 9.76906C79.3508 8.80738 80.2537 8.22534 81.272 8.46657C81.3187 8.46657 81.3654 8.49867 81.4278 8.49867C82.0209 8.63772 82.6324 8.7865 83.119 8.66679C82.9118 8.80584 82.701 8.91904 82.4801 9.04351C81.6726 9.46222 80.536 9.98738 80.5066 10.994C80.4937 11.3045 80.5909 11.6017 80.7478 11.8933C79.7916 11.6217 79.131 10.6843 79.228 9.76948" fill="#7C382F" fill-opacity="0.83"/>
<path d="M72.7695 24.8721C73.7118 23.8713 75.0793 23.4916 76.5826 23.2937C77.9485 23.1256 79.5488 23.2552 80.7498 22.6457C82.1154 21.9517 82.701 20.5429 82.7159 19.0295C82.7324 17.858 82.8799 16.7298 83.2135 15.6556C83.5727 14.5299 83.6876 13.3878 83.6691 12.3427C84.0385 13.078 84.3932 13.857 84.691 14.7278C86.9322 13.6132 89.5631 9.17047 95.0848 12.2036C95.9162 12.7463 94.9186 19.046 91.2928 20.3615C89.102 21.1734 87.0515 20.7217 85.7801 20.2418C86.3097 24.6725 86.539 33.948 79.9569 36.3467C79.6333 36.4825 79.2536 36.518 78.8853 36.4728C73.6074 35.7743 74.8054 32.2858 72.0471 27.9602C72.0471 27.9602 72.0455 27.9603 72.0306 27.9282C72.1241 26.8245 72.3743 25.7832 72.7701 24.863" fill="#7C382F" fill-opacity="0.83"/>
<path d="M111.808 197.597C111.449 197.553 110.987 197.403 110.402 197.154C110.362 196.86 110.324 196.574 110.284 196.273C110.934 196.676 111.449 196.9 111.831 196.947C112.122 196.983 112.334 196.915 112.491 196.763C112.645 196.604 112.702 196.372 112.663 196.073C112.628 195.824 112.534 195.604 112.399 195.424C112.262 195.24 112.014 195.017 111.67 194.768C111.524 194.674 111.403 194.574 111.278 194.474C110.786 194.108 110.434 193.78 110.216 193.486C110.002 193.198 109.868 192.872 109.82 192.511C109.756 192.03 109.837 191.65 110.087 191.377C110.361 191.102 110.699 190.992 111.148 191.048C111.552 191.099 111.99 191.229 112.483 191.455C112.521 191.727 112.556 191.992 112.591 192.263C111.996 191.933 111.552 191.751 111.283 191.717C111.036 191.685 110.821 191.75 110.686 191.879C110.527 192.025 110.489 192.22 110.522 192.469C110.548 192.679 110.62 192.874 110.777 193.05C110.911 193.225 111.16 193.447 111.527 193.706C111.651 193.809 111.798 193.913 111.945 194.013C112.436 194.379 112.788 194.712 113.004 195.006C113.22 195.3 113.354 195.642 113.405 196.024C113.479 196.567 113.382 196.989 113.088 197.274C112.795 197.562 112.369 197.666 111.807 197.597" fill="#5F605E"/>
<path d="M119.236 197.882C119.775 197.95 120.171 197.775 120.402 197.348C120.633 196.928 120.682 196.291 120.571 195.455C120.462 194.638 120.243 193.979 119.889 193.483C119.515 192.984 119.078 192.7 118.561 192.635C118.046 192.57 117.672 192.752 117.442 193.179C117.187 193.594 117.139 194.223 117.249 195.048C117.358 195.866 117.578 196.524 117.932 197.026C118.285 197.534 118.721 197.816 119.236 197.882ZM119.325 198.545C118.584 198.452 117.961 198.079 117.433 197.426C116.903 196.766 116.594 195.945 116.463 194.954C116.33 193.952 116.447 193.185 116.796 192.641C117.165 192.1 117.733 191.878 118.474 191.971C119.216 192.065 119.863 192.44 120.39 193.088C120.92 193.748 121.249 194.567 121.38 195.565C121.513 196.576 121.393 197.349 121.025 197.889C120.654 198.424 120.088 198.643 119.325 198.545" fill="#5F605E"/>
<path d="M125.318 199.153C125.045 197.068 124.77 194.977 124.496 192.887C124.743 192.919 124.991 192.948 125.238 192.981C125.483 194.85 125.728 196.72 125.972 198.583C126.758 198.683 127.543 198.783 128.35 198.883C128.379 199.103 128.408 199.324 128.439 199.546C127.383 199.414 126.35 199.284 125.318 199.154" fill="#5F605E"/>
<path d="M130.854 193.688C131.102 193.721 131.351 193.75 131.597 193.782C131.768 195.105 131.938 196.42 132.11 197.741C132.191 198.366 132.341 198.836 132.58 199.15C132.818 199.457 133.151 199.64 133.578 199.693C133.983 199.748 134.257 199.645 134.4 199.405C134.544 199.153 134.576 198.71 134.494 198.069C134.322 196.742 134.151 195.415 133.979 194.081C134.18 194.113 134.407 194.136 134.631 194.162C134.801 195.489 134.972 196.811 135.145 198.138C135.254 198.99 135.177 199.594 134.934 199.944C134.694 200.299 134.246 200.427 133.595 200.346C132.946 200.265 132.448 200.005 132.082 199.562C131.716 199.124 131.478 198.481 131.368 197.635C131.198 196.318 131.026 195.009 130.854 193.686" fill="#5F605E"/>
<path d="M141.319 201.17C141.431 201.17 141.542 201.202 141.655 201.212C141.607 201.361 141.559 201.506 141.513 201.651C141.691 201.683 141.857 201.761 142.009 201.91C142.161 202.062 142.247 202.223 142.271 202.406C142.297 202.6 142.248 202.751 142.132 202.872C142.013 202.989 141.843 203.031 141.64 203.008C141.483 202.976 141.302 202.937 141.113 202.853C141.1 202.743 141.084 202.627 141.07 202.515C141.189 202.566 141.323 202.602 141.459 202.618C141.571 202.618 141.657 202.618 141.718 202.58C141.78 202.541 141.792 202.46 141.779 202.353C141.762 202.221 141.703 202.111 141.582 202.03C141.461 201.949 141.301 201.891 141.076 201.862C141.156 201.632 141.238 201.397 141.318 201.167L141.319 201.17ZM141.54 201.351C140.71 201.244 140.045 200.884 139.524 200.259C139 199.627 138.674 198.795 138.539 197.746C138.405 196.7 138.549 195.925 138.925 195.4C139.3 194.882 139.893 194.674 140.724 194.779C141.196 194.837 141.77 194.999 142.422 195.265C142.458 195.547 142.493 195.823 142.528 196.1C141.772 195.712 141.192 195.496 140.809 195.449C140.225 195.374 139.804 195.54 139.571 195.967C139.315 196.386 139.241 197.018 139.35 197.859C139.451 198.655 139.689 199.305 140.085 199.805C140.481 200.314 140.957 200.596 141.542 200.669C142.035 200.734 142.551 200.617 143.066 200.323C143.098 200.582 143.129 200.833 143.163 201.086C142.687 201.341 142.145 201.426 141.54 201.351" fill="#5F605E"/>
<path d="M146.903 195.195C146.883 194.872 146.919 194.626 146.988 194.471C147.08 194.319 147.226 194.258 147.451 194.283C147.607 194.315 147.772 194.38 147.945 194.51C148.019 194.575 148.091 194.629 148.166 194.691C148.314 194.81 148.432 194.872 148.499 194.882C148.589 194.882 148.629 194.85 148.687 194.791C148.723 194.719 148.729 194.607 148.71 194.444C148.843 194.476 149.001 194.483 149.158 194.502C149.178 194.83 149.142 195.077 149.072 195.225C148.981 195.377 148.835 195.439 148.61 195.413C148.452 195.381 148.288 195.316 148.116 195.18C148.043 195.122 147.97 195.07 147.895 195.005C147.749 194.896 147.63 194.831 147.563 194.824C147.473 194.824 147.431 194.856 147.397 194.918C147.34 194.99 147.331 195.096 147.351 195.255C147.194 195.223 147.036 195.217 146.902 195.2L146.903 195.195ZM148.861 201.622C149.399 201.69 149.798 201.516 150.031 201.09C150.265 200.668 150.318 200.032 150.213 199.193C150.112 198.38 149.896 197.721 149.546 197.225C149.174 196.727 148.741 196.449 148.224 196.385C147.707 196.32 147.332 196.495 147.075 196.919C146.841 197.336 146.787 197.965 146.891 198.79C146.995 199.607 147.21 200.266 147.561 200.767C147.911 201.274 148.343 201.556 148.861 201.622ZM148.944 202.286C148.204 202.192 147.584 201.82 147.058 201.167C146.535 200.506 146.233 199.685 146.107 198.696C145.979 197.695 146.081 196.925 146.456 196.385C146.83 195.843 147.398 195.621 148.139 195.715C148.882 195.809 149.525 196.185 150.049 196.832C150.574 197.491 150.898 198.311 151.023 199.306C151.149 200.316 151.026 201.09 150.651 201.629C150.277 202.164 149.707 202.381 148.944 202.286" fill="#5F605E"/>
<path d="M154.961 202.892C154.702 200.807 154.443 198.719 154.183 196.63C155.149 196.753 156.138 196.875 157.127 197.002C157.152 197.225 157.182 197.449 157.208 197.664C156.467 197.57 155.725 197.477 155.006 197.386C155.091 198.061 155.173 198.729 155.256 199.397C155.862 199.475 156.469 199.549 157.097 199.63C157.123 199.85 157.152 200.072 157.181 200.292C156.552 200.214 155.944 200.137 155.339 200.059C155.432 200.816 155.527 201.569 155.62 202.32C156.404 202.42 157.191 202.517 157.976 202.617C158.002 202.837 158.031 203.059 158.059 203.281C157.025 203.148 155.994 203.019 154.961 202.889" fill="#5F605E"/>
<path d="M162.453 203.988C162.116 203.946 161.655 203.794 161.072 203.548C161.037 203.257 161.002 202.969 160.965 202.669C161.589 203.069 162.101 203.292 162.482 203.342C162.775 203.378 163.011 203.31 163.169 203.161C163.325 203.002 163.385 202.77 163.349 202.471C163.32 202.223 163.226 202.005 163.094 201.824C162.96 201.64 162.712 201.417 162.371 201.168C162.227 201.074 162.104 200.977 161.982 200.874C161.495 200.507 161.146 200.18 160.931 199.887C160.697 199.596 160.568 199.27 160.525 198.911C160.466 198.429 160.574 198.052 160.828 197.779C161.082 197.5 161.445 197.393 161.895 197.451C162.299 197.503 162.735 197.632 163.204 197.856C163.238 198.127 163.27 198.393 163.303 198.663C162.71 198.332 162.292 198.159 162.02 198.126C161.752 198.09 161.557 198.126 161.398 198.281C161.26 198.427 161.197 198.621 161.228 198.874C161.254 199.078 161.343 199.275 161.476 199.45C161.629 199.628 161.879 199.849 162.218 200.104C162.343 200.208 162.488 200.311 162.633 200.411C163.141 200.781 163.493 201.112 163.706 201.406C163.918 201.7 164.048 202.041 164.095 202.422C164.161 202.966 164.036 203.384 163.738 203.667C163.443 203.958 163.012 204.061 162.453 203.99" fill="#5F605E"/>
<path d="M175.049 203.065C174.628 202.131 174.228 201.194 173.828 200.257C173.623 201.117 173.439 201.981 173.254 202.84C173.837 202.911 174.443 202.989 175.049 203.066V203.065ZM176.121 205.557C175.849 204.951 175.602 204.356 175.354 203.758C174.59 203.661 173.849 203.567 173.108 203.474C172.975 204.024 172.865 204.576 172.756 205.132C172.508 205.1 172.283 205.074 172.06 205.045C172.504 203.049 172.95 201.05 173.396 199.049C173.643 199.081 173.89 199.111 174.138 199.143C175.062 201.315 175.984 203.49 176.929 205.66C176.66 205.628 176.389 205.592 176.121 205.56" fill="#5F605E"/>
<path d="M184.134 206.405C183.507 206.531 182.984 206.577 182.512 206.515C181.659 206.408 180.997 206.048 180.483 205.427C179.965 204.8 179.647 203.967 179.52 202.906C179.396 201.868 179.524 201.089 179.906 200.566C180.288 200.048 180.904 199.844 181.716 199.946C182.254 200.014 182.826 200.179 183.411 200.437C183.444 200.712 183.476 200.983 183.507 201.259C182.753 200.872 182.176 200.662 181.795 200.614C181.233 200.542 180.809 200.708 180.55 201.132C180.288 201.55 180.208 202.182 180.308 203.016C180.405 203.839 180.66 204.502 181.052 205.004C181.441 205.503 181.939 205.79 182.545 205.867C182.792 205.899 183.056 205.867 183.337 205.816C183.256 205.143 183.176 204.457 183.097 203.778C183.341 203.81 183.59 203.839 183.836 203.872C183.935 204.716 184.035 205.561 184.134 206.407" fill="#5F605E"/>
<path d="M188.324 203.838C188.391 203.838 188.481 203.87 188.571 203.87C189.493 203.987 189.912 203.605 189.811 202.732C189.735 202.086 189.316 201.712 188.53 201.613C188.372 201.58 188.215 201.574 188.058 201.555C188.148 202.322 188.236 203.085 188.324 203.841L188.324 203.838ZM187.97 207.058C187.727 204.976 187.483 202.888 187.24 200.796C187.755 200.861 188.294 200.928 188.834 200.996C189.329 201.058 189.75 201.242 190.05 201.546C190.327 201.837 190.507 202.241 190.565 202.743C190.664 203.583 190.394 204.132 189.717 204.394C190.413 205.44 191.111 206.491 191.808 207.542C191.492 207.503 191.202 207.464 190.909 207.429C190.291 206.479 189.695 205.534 189.098 204.587C188.851 204.555 188.626 204.529 188.402 204.5C188.504 205.382 188.608 206.266 188.71 207.15C188.463 207.118 188.217 207.088 187.97 207.056" fill="#5F605E"/>
<path d="M197.156 207.711C197.672 207.776 198.074 207.604 198.312 207.176C198.552 206.756 198.635 206.124 198.54 205.291C198.446 204.473 198.215 203.814 197.872 203.319C197.527 202.824 197.096 202.546 196.581 202.48C196.04 202.412 195.662 202.586 195.423 203.014C195.183 203.43 195.099 204.057 195.195 204.879C195.289 205.696 195.518 206.356 195.864 206.858C196.209 207.364 196.64 207.647 197.156 207.711V207.711ZM197.21 208.373C196.491 208.279 195.851 207.906 195.357 207.255C194.838 206.598 194.523 205.774 194.41 204.785C194.294 203.786 194.426 203.02 194.807 202.48C195.187 201.941 195.74 201.715 196.503 201.812C197.244 201.903 197.862 202.278 198.38 202.926C198.898 203.583 199.212 204.401 199.326 205.395C199.441 206.405 199.307 207.178 198.926 207.717C198.545 208.251 197.972 208.467 197.21 208.373" fill="#5F605E"/>
<path d="M203.613 205.92C203.703 205.92 203.814 205.952 203.927 205.958C204.376 206.016 204.698 205.926 204.918 205.725C205.116 205.505 205.212 205.185 205.162 204.738C205.121 204.369 205 204.087 204.781 203.901C204.583 203.717 204.258 203.6 203.81 203.545C203.652 203.512 203.495 203.506 203.338 203.487C203.427 204.293 203.522 205.111 203.613 205.921V205.92ZM203.229 208.978C202.993 206.898 202.757 204.812 202.521 202.724C202.992 202.781 203.464 202.843 203.958 202.905C204.61 202.985 205.075 203.17 205.374 203.465C205.693 203.756 205.875 204.191 205.941 204.772C206.016 205.439 205.872 205.939 205.533 206.265C205.193 206.593 204.698 206.715 204.025 206.63C203.913 206.63 203.801 206.598 203.688 206.588C203.782 207.416 203.876 208.244 203.968 209.072C203.721 209.04 203.475 209.011 203.229 208.979" fill="#5F605E"/>
<path d="M209.759 209.802C209.526 207.722 209.292 205.635 209.061 203.548C210.027 203.671 211.016 203.794 212.005 203.92C212.031 204.147 212.054 204.368 212.079 204.588C211.337 204.495 210.618 204.404 209.9 204.314C209.974 204.982 210.047 205.648 210.123 206.316C210.728 206.394 211.335 206.468 211.965 206.549C211.99 206.772 212.012 206.991 212.037 207.211C211.408 207.134 210.803 207.056 210.195 206.979C210.281 207.734 210.364 208.486 210.447 209.236C211.211 209.33 211.997 209.43 212.782 209.531C212.805 209.75 212.831 209.973 212.857 210.193C211.824 210.061 210.792 209.932 209.759 209.801" fill="#5F605E"/>
<path d="M218.481 211.056C217.674 210.952 217.015 210.593 216.504 209.968C215.993 209.338 215.679 208.509 215.563 207.46C215.448 206.418 215.586 205.641 215.993 205.126C216.379 204.603 216.976 204.395 217.808 204.502C218.279 204.559 218.852 204.722 219.501 204.986C219.53 205.267 219.563 205.549 219.591 205.82C218.841 205.431 218.263 205.217 217.881 205.168C217.297 205.094 216.873 205.262 216.607 205.682C216.366 206.104 216.281 206.735 216.374 207.573C216.46 208.369 216.686 209.018 217.073 209.518C217.461 210.023 217.934 210.307 218.518 210.38C219.012 210.441 219.531 210.335 220.053 210.034C220.082 210.293 220.108 210.544 220.136 210.796C219.656 211.051 219.11 211.136 218.481 211.055" fill="#5F605E"/>
<path d="M223.06 205.312C223.309 205.344 223.555 205.373 223.824 205.406C223.968 206.726 224.109 208.039 224.252 209.357C224.32 209.981 224.458 210.449 224.691 210.763C224.902 211.067 225.232 211.249 225.657 211.304C226.084 211.355 226.361 211.259 226.513 211.019C226.641 210.764 226.681 210.323 226.612 209.682C226.47 208.357 226.328 207.034 226.183 205.705C226.386 205.737 226.611 205.756 226.836 205.789C226.979 207.112 227.121 208.431 227.262 209.755C227.354 210.604 227.288 211.211 227.036 211.561C226.786 211.915 226.335 212.044 225.685 211.961C225.034 211.879 224.519 211.617 224.16 211.176C223.804 210.74 223.58 210.096 223.488 209.252C223.345 207.937 223.203 206.63 223.06 205.312" fill="#5F605E"/>
<path d="M231.927 205.919C232.148 205.5 232.393 205.08 232.634 204.659C232.905 204.695 233.175 204.727 233.445 204.763C233.111 205.173 232.779 205.582 232.444 205.987C232.265 205.955 232.084 205.942 231.927 205.922V205.919ZM233.74 210.474C233.331 209.536 232.944 208.6 232.556 207.665C232.336 208.523 232.14 209.386 231.944 210.249C232.527 210.323 233.133 210.397 233.74 210.475V210.474ZM234.779 212.962C234.515 212.358 234.275 211.762 234.035 211.16C233.293 211.066 232.552 210.972 231.812 210.879C231.672 211.433 231.53 211.982 231.413 212.538C231.166 212.501 230.941 212.483 230.716 212.446C231.191 210.454 231.665 208.457 232.139 206.453C232.387 206.485 232.634 206.518 232.882 206.547C233.776 208.722 234.672 210.894 235.587 213.061C235.318 213.024 235.047 212.996 234.779 212.957" fill="#5F605E"/>
<path d="M239.257 210.263C239.324 210.263 239.414 210.295 239.505 210.295C240.446 210.414 240.851 210.029 240.76 209.159C240.692 208.513 240.277 208.145 239.489 208.045C239.333 208.013 239.176 208.003 239.019 207.984C239.099 208.745 239.178 209.507 239.257 210.262L239.257 210.263ZM238.862 213.477C238.644 211.399 238.425 209.313 238.208 207.224C238.724 207.289 239.264 207.36 239.803 207.424C240.319 207.489 240.717 207.67 241.014 207.974C241.312 208.272 241.485 208.67 241.536 209.172C241.625 210.01 241.327 210.555 240.646 210.818C241.331 211.862 242.015 212.912 242.723 213.965C242.409 213.928 242.093 213.882 241.802 213.848C241.193 212.9 240.609 211.956 240.023 211.01C239.775 210.978 239.552 210.951 239.325 210.923C239.418 211.804 239.51 212.687 239.603 213.57C239.358 213.533 239.111 213.505 238.862 213.476" fill="#5F605E"/>
<path d="M245.331 208.123C245.578 208.155 245.826 208.185 246.072 208.217C246.287 210.301 246.502 212.386 246.717 214.465C246.469 214.428 246.222 214.401 245.975 214.371C245.761 212.293 245.547 210.209 245.331 208.124" fill="#5F605E"/>
<path d="M253.026 212.901C252.62 211.966 252.238 211.032 251.854 210.097C251.632 210.956 251.43 211.819 251.229 212.673C251.814 212.747 252.421 212.825 253.026 212.9L253.026 212.901ZM254.052 215.386C253.792 214.782 253.554 214.187 253.317 213.59C252.555 213.496 251.813 213.399 251.073 213.308C250.93 213.856 250.808 214.405 250.687 214.963C250.44 214.926 250.216 214.899 249.992 214.871C250.475 212.881 250.958 210.884 251.444 208.887C251.669 208.92 251.915 208.945 252.162 208.978C253.048 211.147 253.954 213.32 254.861 215.485C254.592 215.449 254.323 215.421 254.052 215.382" fill="#5F605E"/>
<path d="M259.185 216.188C258.826 216.142 258.368 215.991 257.789 215.744C257.759 215.453 257.731 215.166 257.701 214.868C258.34 215.269 258.826 215.489 259.208 215.539C259.501 215.576 259.738 215.502 259.9 215.357C260.062 215.199 260.127 214.968 260.098 214.67C260.072 214.421 259.984 214.203 259.855 214.024C259.726 213.839 259.483 213.618 259.148 213.367C259.004 213.274 258.884 213.177 258.764 213.076C258.284 212.711 257.939 212.385 257.732 212.092C257.528 211.804 257.383 211.476 257.346 211.118C257.299 210.639 257.417 210.266 257.677 209.988C257.939 209.716 258.305 209.61 258.755 209.668C259.159 209.716 259.592 209.849 260.06 210.072C260.086 210.337 260.113 210.606 260.139 210.871C259.575 210.548 259.135 210.369 258.866 210.335C258.618 210.303 258.401 210.367 258.26 210.497C258.096 210.636 258.026 210.826 258.053 211.081C258.072 211.285 258.159 211.481 258.309 211.656C258.438 211.831 258.682 212.053 259.04 212.311C259.163 212.414 259.283 212.514 259.427 212.615C259.929 212.984 260.272 213.316 260.479 213.608C260.686 213.902 260.809 214.243 260.845 214.624C260.899 215.164 260.765 215.582 260.46 215.866C260.157 216.153 259.723 216.257 259.185 216.189" fill="#5F605E"/>
<path d="M242.904 185.705C244.186 184.512 245.832 184.034 247.822 184.285C249.811 184.538 251.598 185.443 253.14 186.993C254.7 188.544 255.564 190.275 255.76 192.205C255.952 194.128 255.418 195.683 254.137 196.876C252.877 198.062 251.232 198.518 249.251 198.267C247.267 198.015 245.488 197.132 243.927 195.592C242.387 194.043 241.495 192.307 241.294 190.384C241.094 188.453 241.645 186.901 242.904 185.705ZM236.78 189.813C237.111 192.951 238.542 195.773 241.045 198.259C243.572 200.761 246.431 202.204 249.694 202.612C252.934 203.022 255.593 202.274 257.644 200.351C259.723 198.442 260.628 195.912 260.315 192.777C260.004 189.635 258.562 186.801 256.034 184.282C253.526 181.772 250.632 180.307 247.374 179.897C244.094 179.488 241.448 180.252 239.372 182.185C237.323 184.123 236.452 186.67 236.78 189.813Z" fill="#581518"/>
<path d="M110.853 167.029C113.024 167.301 115.215 167.578 117.407 167.854C118.222 167.958 118.959 168.328 119.598 168.963C120.236 169.581 120.618 170.288 120.72 171.079C120.827 171.875 120.621 172.513 120.128 172.99C119.638 173.477 118.976 173.672 118.163 173.568C115.973 173.293 113.785 173.017 111.617 172.744C111.364 170.848 111.108 168.937 110.853 167.029V167.029ZM112.204 177.131C113.061 177.241 113.917 177.348 114.798 177.458C117.307 180.495 119.813 183.53 122.293 186.561C124.162 186.797 126.029 187.032 127.92 187.269C125.369 184.178 122.837 181.088 120.277 177.99C121.922 177.851 123.234 177.2 124.147 176.031C125.099 174.834 125.466 173.378 125.238 171.647C124.977 169.652 124.033 167.856 122.4 166.259C120.742 164.646 118.883 163.711 116.825 163.452C113.114 162.984 109.426 162.521 105.738 162.057C106.252 165.873 106.768 169.687 107.28 173.487C107.791 177.284 108.302 181.073 108.811 184.858C110.296 185.043 111.804 185.234 113.312 185.425C112.943 182.663 112.574 179.898 112.204 177.131Z" fill="#581518"/>
<path d="M198.515 196.153C198.231 193.649 197.947 191.149 197.66 188.643C197.374 186.138 197.088 183.625 196.801 181.107C198.894 183.857 200.983 186.598 203.073 189.342C205.156 192.076 207.239 194.804 209.342 197.533C210.828 197.721 212.313 197.908 213.821 198.098C213.405 194.33 212.989 190.549 212.569 186.763C212.152 182.978 211.729 179.164 211.31 175.356C209.794 175.166 208.278 174.975 206.784 174.785C207.058 177.252 207.333 179.726 207.61 182.187C207.884 184.654 208.159 187.11 208.432 189.566C206.331 186.879 204.253 184.195 202.166 181.502C200.083 178.811 197.991 176.11 195.902 173.415C194.385 173.224 192.891 173.036 191.399 172.846C191.835 176.652 192.273 180.449 192.71 184.244C193.145 188.029 193.581 191.807 194.014 195.584C195.501 195.771 197.009 195.961 198.515 196.153Z" fill="#581518"/>
<path d="M154.4 180.717C156.567 180.989 158.755 181.266 160.942 181.541C161.776 181.641 162.488 182.01 163.141 182.643C163.774 183.276 164.15 183.982 164.245 184.767C164.339 185.552 164.129 186.177 163.632 186.653C163.113 187.138 162.472 187.328 161.638 187.227C159.454 186.952 157.268 186.677 155.106 186.405C154.871 184.514 154.636 182.617 154.4 180.717ZM153.368 172.388C155.538 172.663 157.73 172.938 159.922 173.214C160.487 173.285 161.007 173.538 161.463 173.97C161.893 174.411 162.152 174.901 162.218 175.442C162.285 175.989 162.141 176.435 161.803 176.771C161.444 177.102 160.97 177.238 160.407 177.166C158.216 176.891 156.027 176.613 153.858 176.341C153.695 175.025 153.532 173.704 153.368 172.388H153.368ZM151.145 190.202C154.814 190.665 158.481 191.128 162.172 191.593C164.243 191.852 165.913 191.36 167.181 190.131C168.475 188.913 168.994 187.319 168.754 185.337C168.503 183.257 167.502 181.407 165.794 179.794C166.604 178.759 166.918 177.499 166.737 176.013C166.526 174.261 165.71 172.678 164.269 171.261C162.853 169.859 161.217 169.043 159.383 168.816C155.674 168.348 151.985 167.884 148.299 167.42C148.774 171.234 149.25 175.053 149.725 178.845C150.2 182.636 150.674 186.422 151.145 190.202Z" fill="#581518"/>
<path d="M130.529 187.598C136.516 188.352 142.524 189.11 148.534 189.869C148.351 188.415 148.169 186.961 147.986 185.502C143.48 184.933 138.974 184.366 134.467 183.797C134.263 182.199 134.058 180.601 133.851 178.998C136.986 179.392 140.143 179.79 143.301 180.19C143.116 178.736 142.932 177.276 142.747 175.811C139.586 175.413 136.424 175.015 133.287 174.619C133.079 173.004 132.872 171.395 132.664 169.781C137.184 170.35 141.706 170.919 146.225 171.488C146.041 170.023 145.857 168.56 145.672 167.09C139.632 166.329 133.59 165.567 127.595 164.809C128.09 168.623 128.584 172.434 129.076 176.233C129.569 180.026 130.04 183.816 130.529 187.598Z" fill="#581518"/>
<path d="M213.933 175.689C214.352 179.495 214.77 183.309 215.186 187.093C215.604 190.878 216.017 194.659 216.432 198.428C217.916 198.616 219.445 198.804 220.955 198.994C220.623 195.954 220.293 192.908 219.959 189.848C223.253 190.261 226.568 190.681 229.884 191.1C230.21 194.16 230.533 197.205 230.857 200.245C232.342 200.429 233.85 200.623 235.358 200.812C234.961 197.046 234.562 193.266 234.162 189.484C233.764 185.701 233.363 181.89 232.962 178.082C231.447 177.891 229.929 177.701 228.436 177.512C228.763 180.591 229.091 183.661 229.418 186.73C226.099 186.311 222.779 185.892 219.484 185.477C219.149 182.408 218.816 179.337 218.48 176.258C216.966 176.067 215.427 175.878 213.933 175.689" fill="#581518"/>
<path d="M176.847 185.98C177.514 183.926 178.18 181.866 178.849 179.808C180.008 182.097 181.19 184.39 182.37 186.677C180.522 186.444 178.673 186.21 176.847 185.98ZM179.114 171.299C178.253 171.189 177.393 171.082 176.534 170.973C175.358 174.579 174.206 178.195 173.058 181.78C171.909 185.369 170.765 188.95 169.622 192.529C171.265 192.736 172.908 192.943 174.55 193.15C174.819 192.248 175.112 191.349 175.403 190.45C178.578 190.849 181.755 191.251 184.952 191.654C185.446 192.652 185.962 193.653 186.479 194.654C188.121 194.861 189.765 195.068 191.407 195.276C189.349 191.294 187.308 187.308 185.265 183.32C183.221 179.33 181.167 175.312 179.114 171.299" fill="#581518"/>
<path fill-rule="evenodd" clip-rule="evenodd" d="M41.4804 152.905C41.9076 153.389 42.3341 153.866 42.761 154.343C45.9839 157.954 49.1784 161.55 52.3894 165.141C52.6268 165.399 52.8832 165.628 53.1774 165.822C53.7974 169.882 54.437 173.927 55.0539 177.967C55.6671 181.999 56.327 186.023 56.9624 190.04C58.6232 190.25 60.2834 190.46 61.9662 190.672C61.3482 186.738 60.7251 182.781 60.1071 178.838C59.484 174.877 58.8596 170.905 58.2336 166.927C61.7304 167.367 65.2512 167.805 68.772 168.242C72.5165 168.714 74.632 170.654 75.1161 174.05C75.3544 175.722 74.9512 176.934 73.887 177.685C72.9618 178.325 71.7337 178.545 70.2249 178.355C69.4578 178.261 68.694 178.161 67.9277 178.064C66.3513 177.867 65.7537 179.541 66.9353 180.833C67.5144 181.476 68.0929 182.12 68.6924 182.756C68.6924 182.756 68.6924 182.756 68.7154 182.759C72.7519 187.196 76.8037 191.625 80.8247 196.045C77.1345 198.274 72.3596 199.195 66.9588 198.341C60.6106 197.345 54.5242 194.048 49.7669 189.478C44.9921 184.888 41.5227 179.015 40.4181 172.846C39.5153 167.871 40.2837 163.411 42.3001 159.865C41.137 158.615 39.9965 157.361 38.8544 156.104C37.5172 158.137 36.561 160.47 36.0598 163.017C35.5603 165.562 35.45 168.339 35.8717 171.275C36.9303 178.846 41.0746 186.143 46.8796 191.81C52.6678 197.462 60.145 201.512 67.95 202.604C75.9099 203.71 82.6863 201.572 87.2008 197.214C86.7076 196.684 86.2155 196.154 85.7444 195.622C85.7636 195.622 85.7847 195.59 85.8058 195.586C82.2685 191.756 78.7677 187.919 75.2405 184.076C74.7429 183.53 74.7943 182.791 75.3618 182.59C76.6659 182.128 77.6845 181.365 78.414 180.282C79.3983 178.794 79.7524 176.914 79.4297 174.64C78.9566 171.295 77.5137 168.617 75.147 166.624C73.0555 164.864 70.4835 163.791 67.4355 163.406C63.8196 162.95 60.2044 162.497 56.5902 162.043C55.5965 161.917 54.6066 161.362 53.8878 160.543C51.9457 158.357 50.0252 156.169 48.1032 153.98C51.7248 151.875 56.3308 150.992 61.5334 151.754C68.0534 152.711 74.3386 156.136 79.171 160.869C84.0037 165.604 87.496 171.668 88.4392 177.954C89.1688 182.719 88.3686 186.962 86.4153 190.349C87.5399 191.606 88.6627 192.857 89.7857 194.108C91.1348 192.074 92.112 189.733 92.6381 187.162C93.1652 184.592 93.2835 181.779 92.8709 178.79C92.4318 175.618 91.4216 172.167 89.6224 168.613C87.8177 165.047 85.1503 161.365 81.4012 157.767C73.8345 150.485 65.6013 148.486 65.6013 148.486C65.6013 148.486 64.3917 148.122 63.1047 147.847C61.8642 147.581 60.5912 147.399 60.3648 147.372C52.5423 146.387 45.9033 148.583 41.4813 152.904" fill="#7B372F"/>
<path fill-rule="evenodd" clip-rule="evenodd" d="M168.146 117.98L6.28247 94.0846L5.66 87.7415L271.771 128.237L266.104 132.584L168.146 117.98Z" fill="#7C382F"/>
<path fill-rule="evenodd" clip-rule="evenodd" d="M16.3958 268.01L0 96.4484L5.66017 87.7415L6.28264 94.0846L22.5472 259.663L16.3958 268.01Z" fill="#7C382F"/>
<path fill-rule="evenodd" clip-rule="evenodd" d="M181.102 546.335L188.694 524.467L185.774 499.292C194.422 496.689 204.312 494.425 215.086 493.175H215.087L218.94 521.976L228.688 537.13L235.621 536.714L197.238 550.891L181.102 546.335ZM166.724 335.049L160.188 278.698L146.308 266.26L158.032 259.668L191.041 263.363L185.982 275.609L193.348 330.675C185.289 332.718 175.59 334.109 166.724 335.049Z" fill="#581518"/>
<path fill-rule="evenodd" clip-rule="evenodd" d="M172.897 549.758L180.488 527.89L177.487 502.006C180.099 501.08 182.866 500.167 185.774 499.291L188.694 524.466L181.103 546.335L197.238 550.891L226.146 540.214L227.417 540.141L189.032 554.317L172.897 549.76V549.758ZM158.214 335.844L151.983 282.122L138.103 269.684L149.826 263.091L151.592 263.288L146.309 266.26L160.188 278.698L166.724 335.049C163.762 335.362 160.898 335.624 158.214 335.844" fill="#7C382F"/>
<path d="M108.62 44.0828C108.62 44.0828 109.706 60.9474 116.706 67.6352C116.706 67.6352 115.59 73.2705 115.19 80.5973C114.795 87.8522 115.028 96.747 117.624 103.519C117.624 103.519 114.182 103.859 115.559 106.932C115.559 106.932 109.032 106.565 107.535 105.316C107.535 105.316 107.985 102.64 111.021 101.883C110.683 98.4547 110.371 95.0054 110.059 91.5461C110.059 91.5461 107.382 87.5056 104 81.9564C100.605 76.3881 96.4579 69.2951 93.5541 63.2236C93.5541 63.2236 92.6299 47.696 108.62 44.0828Z" fill="#F7AD3D" stroke="#7C382F" stroke-width="0.105798" stroke-miterlimit="22.9256"/>
</svg>
