<svg width="544" height="317" viewBox="0 0 544 317" fill="none" xmlns="http://www.w3.org/2000/svg">
<g clip-path="url(#clip0)">
<path d="M66.4515 111.512C52.8427 111.512 42.1564 115.417 34.3854 123.226C26.6523 131.034 22.7859 141.822 22.7859 155.582C22.7859 169.379 26.6716 180.142 34.4427 187.875C42.2137 195.608 53.0937 199.474 67.0816 199.474H68.7829L82.6564 214.939H103.53L86.4141 195.836C94.0714 192.349 99.9261 187.156 103.982 180.257C108.076 173.358 110.123 165.134 110.123 155.582C110.123 141.671 106.276 130.849 98.5806 123.117C90.9233 115.384 80.2119 111.512 66.4515 111.512ZM66.4515 127.378C73.1611 127.378 78.355 129.845 82.032 134.773C85.7091 139.7 87.5482 146.636 87.5482 155.582C87.5482 164.489 85.7091 171.406 82.032 176.333C78.355 181.261 73.1611 183.722 66.4515 183.722C59.6282 183.722 54.4149 181.319 50.8137 176.505C47.2125 171.653 45.4121 164.679 45.4121 155.582C45.4121 146.636 47.2512 139.7 50.9283 134.773C54.6053 129.845 59.7798 127.378 66.4515 127.378ZM221.495 132.722C210.502 132.722 201.862 135.701 195.569 141.652C189.315 147.603 186.187 155.769 186.187 166.155C186.187 176.73 189.367 184.955 195.736 190.83C202.142 196.668 211.111 199.588 222.635 199.588C227.449 199.588 232.261 199.115 237.076 198.168C241.89 197.258 246.702 195.892 251.516 194.072V178.378C246.778 180.956 242.154 182.892 237.643 184.18C233.17 185.432 228.792 186.053 224.508 186.053C219.201 186.053 215.069 184.862 212.112 182.474C209.156 180.086 207.433 176.504 206.94 171.728H254.535V165.926C254.535 155.843 251.517 147.787 245.49 141.761C239.501 135.734 231.503 132.722 221.495 132.722ZM299.822 132.722C295.917 132.722 292.336 133.635 289.076 135.454C285.853 137.274 282.991 139.981 280.489 143.582V134.257H260.022V197.939H280.489V166.608C280.489 160.656 281.551 156.091 283.674 152.907C285.797 149.685 288.808 148.073 292.713 148.073C295.821 148.073 297.984 149.096 299.197 151.143C300.41 153.152 301.019 157.684 301.019 164.735V197.939H321.485V166.665C321.561 160.638 322.643 156.034 324.727 152.85C326.85 149.666 329.848 148.073 333.715 148.073C336.672 148.073 338.809 149.096 340.136 151.143C341.463 153.152 342.13 156.415 342.13 160.926C342.13 161.911 342.109 162.669 342.072 163.2C342.072 163.73 342.052 164.242 342.015 164.735V197.939H362.482V159.162C362.482 150.557 360.571 143.997 356.742 139.487C352.914 134.976 347.338 132.722 340.022 132.722C335.776 132.722 331.877 133.765 328.314 135.85C324.788 137.896 321.732 140.894 319.154 144.836C317.41 141.008 314.852 138.029 311.478 135.907C308.105 133.784 304.219 132.722 299.822 132.722H299.822ZM115.748 134.257V173.149C115.748 181.753 117.665 188.313 121.493 192.824C125.36 197.334 130.968 199.588 138.322 199.588C142.454 199.588 146.23 198.714 149.641 196.971C153.091 195.189 156.349 192.443 159.419 188.728V197.939H179.777V134.257H159.419V165.703C159.419 171.502 158.208 176.029 155.782 179.289C153.356 182.549 150.02 184.18 145.775 184.18C144.031 184.18 142.477 183.818 141.112 183.098C139.785 182.378 138.704 181.355 137.87 180.028C137.225 179.004 136.772 177.373 136.507 175.136C136.241 172.862 136.106 169.17 136.106 164.053C136.106 162.309 136.126 158.839 136.163 153.646C136.201 148.415 136.22 144.076 136.22 140.626V134.257H115.748ZM221.38 146.257C225.02 146.257 227.959 147.449 230.196 149.837C232.47 152.187 233.61 155.295 233.61 159.162H207.169C207.775 154.992 209.31 151.806 211.774 149.608C214.238 147.371 217.438 146.257 221.38 146.257ZM41.1847 219.366C27.2354 219.366 16.8857 221.743 10.1325 226.503C3.37926 231.263 -0.000610352 238.571 -0.000610352 248.423C-0.000610352 257.556 2.65896 264.365 7.97296 268.848C13.287 273.332 22.5591 276.404 35.7888 278.064L41.0186 278.729C47.0522 279.448 51.0664 280.471 53.0591 281.799C55.1072 283.072 56.1294 285.036 56.1294 287.693C56.1294 290.848 54.664 293.23 51.7302 294.835C48.7964 296.44 44.4249 297.241 38.6128 297.241C32.1917 297.241 25.8504 296.526 19.5953 295.087C13.3957 293.648 7.33713 291.488 1.41424 288.609V311.194C8.33351 313.131 15.0569 314.566 21.5887 315.507C28.1759 316.503 34.542 317.002 40.6863 317.002C55.1891 317.002 66.093 314.514 73.3997 309.533C80.7065 304.551 84.3634 297.108 84.3634 287.2C84.3634 277.735 81.7344 270.785 76.4757 266.357C71.2171 261.929 60.9724 258.746 45.75 256.809L40.5202 256.064C35.1509 255.455 31.4137 254.513 29.3103 253.24C27.2622 251.967 26.24 250.139 26.24 247.759C26.24 244.825 27.5946 242.67 30.307 241.286C33.0747 239.847 37.2799 239.127 42.926 239.127C48.1847 239.127 53.7809 239.792 59.7038 241.12C65.6267 242.448 71.7712 244.437 78.1369 247.094V224.515C71.0516 222.744 64.4886 221.439 58.455 220.609C52.4214 219.779 46.6648 219.366 41.1847 219.366ZM137.314 219.366C121.262 219.366 108.695 223.682 99.6174 232.317C90.5947 240.951 86.0818 252.907 86.0818 268.184C86.0818 283.461 90.5947 295.417 99.6174 304.051C108.695 312.686 121.262 317.002 137.314 317.002C153.312 317.002 165.792 312.686 174.759 304.051C183.782 295.417 188.295 283.461 188.295 268.184C188.295 252.907 183.782 240.951 174.759 232.317C165.792 223.682 153.312 219.366 137.314 219.366ZM255.933 219.366C250.231 219.366 244.998 220.696 240.237 223.353C235.532 226.009 231.352 229.962 227.699 235.221V221.606H197.809V314.596H227.699V268.848C227.699 260.158 229.25 253.491 232.35 248.841C235.45 244.136 239.852 241.785 245.553 241.785C250.092 241.785 253.245 243.275 255.016 246.264C256.787 249.197 257.674 255.816 257.674 266.111V314.596H287.569V268.934C287.68 260.134 289.256 253.405 292.3 248.755C295.4 244.106 299.772 241.785 305.418 241.785C309.736 241.785 312.863 243.275 314.801 246.264C316.738 249.197 317.705 253.962 317.705 260.549C317.705 261.988 317.681 263.09 317.625 263.865C317.625 264.64 317.594 265.391 317.539 266.111V314.596H347.434V257.971C347.434 245.407 344.639 235.833 339.048 229.247C333.457 222.66 325.318 219.366 314.635 219.366C308.435 219.366 302.734 220.887 297.53 223.931C292.382 226.92 287.925 231.291 284.161 237.048C281.615 231.457 277.877 227.117 272.951 224.017C268.024 220.918 262.354 219.366 255.933 219.366H255.933ZM404.457 219.366C388.405 219.366 375.839 223.682 366.761 232.317C357.738 240.951 353.225 252.907 353.225 268.184C353.225 283.461 357.738 295.417 366.761 304.051C375.839 312.686 388.405 317.002 404.457 317.002C420.455 317.002 432.935 312.686 441.902 304.051C450.925 295.417 455.438 283.461 455.438 268.184C455.438 252.907 450.925 240.951 441.902 232.317C432.935 223.682 420.455 219.366 404.457 219.366ZM500.828 219.366C486.878 219.366 476.523 221.743 469.77 226.503C463.016 231.263 459.642 238.571 459.642 248.423C459.642 257.556 462.296 264.365 467.61 268.848C472.924 273.332 482.196 276.404 495.426 278.064L500.661 278.729C506.695 279.448 510.704 280.471 512.696 281.799C514.744 283.072 515.772 285.036 515.772 287.693C515.772 290.848 514.301 293.23 511.367 294.835C508.434 296.44 504.062 297.241 498.25 297.241C491.829 297.241 485.493 296.526 479.238 295.087C473.039 293.648 466.974 291.488 461.051 288.609V311.194C467.971 313.131 474.7 314.566 481.232 315.507C487.819 316.503 494.185 317.002 500.329 317.002C514.832 317.002 525.736 314.514 533.043 309.533C540.349 304.551 544.001 297.108 544.001 287.2C544.001 277.735 541.372 270.785 536.113 266.357C530.854 261.929 520.615 258.746 505.393 256.809L500.163 256.064C494.794 255.455 491.057 254.513 488.953 253.24C486.905 251.967 485.877 250.139 485.877 247.759C485.877 244.825 487.237 242.67 489.95 241.286C492.718 239.847 496.923 239.127 502.569 239.127C507.828 239.127 513.418 239.792 519.341 241.12C525.264 242.448 531.408 244.437 537.774 247.094V224.515C530.689 222.744 524.132 221.439 518.098 220.609C512.064 219.779 506.308 219.366 500.828 219.366ZM137.314 240.622C143.791 240.622 148.741 242.999 152.173 247.759C155.605 252.464 157.323 259.272 157.323 268.184C157.323 277.095 155.605 283.929 152.173 288.689C148.741 293.394 143.791 295.752 137.314 295.752C130.727 295.752 125.685 293.394 122.198 288.689C118.766 283.929 117.054 277.095 117.054 268.184C117.054 259.272 118.766 252.464 122.198 247.759C125.685 242.999 130.727 240.622 137.314 240.622ZM404.457 240.622C410.934 240.622 415.89 242.999 419.322 247.759C422.754 252.464 424.466 259.272 424.466 268.184C424.466 277.095 422.754 283.929 419.322 288.689C415.89 293.394 410.934 295.752 404.457 295.752C397.87 295.752 392.834 293.394 389.347 288.689C385.915 283.929 384.197 277.095 384.197 268.184C384.197 259.272 385.915 252.464 389.347 247.759C392.834 242.999 397.87 240.622 404.457 240.622Z" fill="white"/>
<path d="M291.264 -0.00195312C288.132 -0.00195312 285.003 0.0362368 281.892 0.285509C276.446 0.718657 274.86 3.24211 275.271 9.18683C276.723 30.2383 278.182 51.2858 279.739 72.3294C279.992 75.7665 280.559 79.2138 281.394 82.5535C281.676 83.682 283.129 85.1192 284.235 85.3028C286.018 85.5996 286.335 83.81 286.727 82.29C292.613 59.4728 298.576 36.6743 304.455 13.855C305.111 11.3133 305.476 8.68329 305.779 6.07092C306.02 3.9914 305.351 2.15999 303.178 0.767C302.551 0.593976 301.606 0.102221 300.658 0.102221C297.529 0.0728945 294.395 0.0112093 291.264 -0.000521182V-0.00195312ZM294.047 5.31915C296.099 5.3866 298.307 5.5332 300.646 5.76019C295.39 25.9609 290.241 45.7634 285.089 65.5639C284.746 65.5345 284.406 65.5051 284.063 65.5051C282.862 45.8965 281.662 26.2899 280.466 6.76684C283.148 5.62371 287.892 5.11719 294.047 5.31807V5.31915ZM369.573 11.024C366.303 10.9507 363.703 12.249 362.201 15.1022C360.75 17.8577 359.435 20.7379 358.489 23.6996C353.778 38.4533 349.098 53.2195 344.633 68.0497C341.997 76.8015 338.634 85.3855 337.725 94.5807C337.616 95.6814 338.078 97.4855 338.824 97.857C339.635 98.2617 341.253 97.6194 342.215 96.9807C343.118 96.3807 343.658 95.2063 344.3 94.2485C351.664 83.3052 359.015 72.3587 366.371 61.4112C366.319 61.376 366.266 61.3527 366.216 61.3146C373.476 50.5064 380.764 39.7182 387.966 28.8725C389.14 27.107 390.178 25.166 390.842 23.1619C391.871 20.0507 390.947 17.3442 388.023 16.0709C382.145 13.5116 376.145 11.1791 369.573 11.0305L369.573 11.024ZM370.02 16.9694C370.839 16.9988 371.839 17.1571 373.107 17.4105C377.083 18.2096 380.958 19.5381 385.738 20.87C373.845 40.5767 361.101 58.6814 348.826 77.0939C348.47 76.8563 348.112 76.6182 347.754 76.3836C351.611 64.1341 355.433 51.8757 359.337 39.64C361.241 33.6712 363.128 27.6857 365.334 21.8266C366.744 18.0834 367.561 16.8985 370.02 16.9694ZM229.405 33.2077C229.065 33.2053 228.7 33.2372 228.306 33.2753C225.215 33.6401 222.13 34.2956 219.129 35.1311C210.057 37.6608 208.908 40.3612 212.427 49.0951C216.665 59.615 220.645 70.2435 224.857 80.7757C225.429 82.2057 226.709 83.3504 227.028 83.7771C230.02 86.1126 231.362 85.7915 232.298 83.2788C232.695 82.2125 232.814 81.0449 233.06 79.9223C235.893 67.039 234.762 54.0584 234.011 41.088C233.935 39.7768 233.857 38.4403 233.558 37.1699C232.919 34.4487 231.79 33.2216 229.405 33.2066V33.2077ZM228.81 38.2023C229.188 50.6017 231.118 62.7444 228.254 75.2438C223.946 64.3406 219.64 53.4391 215.274 42.3893C219.441 39.5898 223.674 38.7123 228.81 38.2023ZM455.839 60.4604C451.995 60.4311 448.886 62.4122 444.995 66.6636C442.661 69.2153 440.271 71.7225 438.018 74.3445C425.448 88.9768 412.909 103.637 400.362 118.288C400.431 118.35 400.499 118.408 400.568 118.47C400.109 119.155 399.362 119.789 399.245 120.526C398.922 122.538 397.263 124.82 399.165 126.569C401.124 128.372 402.815 126.364 404.366 125.303C417.012 116.634 429.691 108.01 442.234 99.1902C450.451 93.4135 458.504 87.3936 466.533 81.3539C468.488 79.8841 470.276 78.0782 471.78 76.1473C474.514 72.6361 474.116 69.3983 470.617 66.6851C468.551 65.0824 466.264 63.6576 463.875 62.6015C460.715 61.2044 458.145 60.4676 455.839 60.4533L455.839 60.4604ZM456.056 66.1023C457.224 66.0729 458.444 66.3604 459.711 66.9442C462.468 68.2135 465.693 68.7935 467.914 72.2482C451.288 87.913 431.22 98.5291 413.525 112.354C413.292 112.108 413.062 111.856 412.832 111.609C414.173 109.981 415.492 108.338 416.859 106.729C418.351 104.969 419.879 103.24 421.401 101.506C430.205 91.469 439.008 81.4246 447.831 71.4062C448.7 70.4196 449.727 69.5714 450.66 68.6397C452.308 66.9965 454.11 66.1363 456.056 66.1023ZM481.541 117.652C480.126 117.682 478.469 118.243 476.277 119.256C465.386 124.287 454.492 129.32 443.638 134.429C442.04 135.182 440.642 136.357 438.958 137.465C438.784 138.347 438.222 139.421 438.534 140.082C438.867 140.792 439.974 141.243 440.837 141.56C441.403 141.768 442.134 141.56 442.79 141.51C455.962 140.988 469.013 139.442 481.896 136.641C484.288 136.122 486.68 135.365 488.896 134.339C491.642 133.064 492.468 131.081 491.359 128.256C490.533 126.152 489.223 124.196 487.905 122.333C485.576 119.044 483.898 117.608 481.541 117.654V117.652ZM481.472 122.555C483.186 124.806 484.728 126.831 486.696 129.417C476.412 133.43 466.09 133.901 456.028 135.62C455.898 135.199 455.773 134.78 455.644 134.36C464.121 130.486 472.597 126.611 481.472 122.555Z" fill="#F6A31C"/>
</g>
<defs>
<clipPath id="clip0">
<rect width="544" height="317" fill="white"/>
</clipPath>
</defs>
</svg>
